{
.appVersion = "3260";
.formatVersion = 3;
axes = (
{
name = Weight;
tag = wght;
}
);
customParameters = (
{
name = glyphOrder;
value = (
A,
Aacute,
Abreve,
Acircumflex,
Adieresis,
Agrave,
Amacron,
Aogonek,
Aring,
Atilde,
AE,
AEacute,
B,
C,
Cacute,
Ccaron,
Ccedilla,
Cdotaccent,
D,
Eth,
Dcaron,
Dcroat,
E,
Eacute,
Ebreve,
Ecaron,
Ecircumflex,
Edieresis,
Edotaccent,
Egrave,
Emacron,
Eogonek,
Etilde,
F,
G,
Gbreve,
Gcommaaccent,
Gdotaccent,
H,
I,
Iacute,
Ibreve,
Icircumflex,
Idieresis,
Idotaccent,
Igrave,
Imacron,
Iogonek,
Itilde,
J,
K,
Kcommaaccent,
L,
Lacute,
Lcaron,
Lcommaaccent,
Ldot,
Lslash,
M,
N,
Nacute,
Ncaron,
Ncommaaccent,
Ntilde,
O,
Oacute,
Obreve,
Ocircumflex,
Odieresis,
Ograve,
Ohungarumlaut,
Omacron,
Oslash,
Otilde,
OE,
P,
Thorn,
Q,
R,
Racute,
Rcaron,
Rcommaaccent,
S,
Sacute,
Scaron,
Scedilla,
Scommaaccent,
T,
Tcaron,
Tcedilla,
Tcommaaccent,
U,
Uacute,
Ubreve,
Ucircumflex,
Udieresis,
Ugrave,
Uhungarumlaut,
Umacron,
Uogonek,
Uring,
Utilde,
V,
W,
Wacute,
Wcircumflex,
Wdieresis,
Wgrave,
X,
Y,
Yacute,
Ycircumflex,
Ydieresis,
Ygrave,
Ytilde,
Z,
Zacute,
Zcaron,
Zdotaccent,
a,
aacute,
abreve,
acircumflex,
adieresis,
agrave,
amacron,
aogonek,
aring,
atilde,
ae,
aeacute,
b,
c,
cacute,
ccaron,
ccedilla,
cdotaccent,
d,
eth,
dcaron,
dcroat,
e,
eacute,
ebreve,
ecaron,
ecircumflex,
edieresis,
edotaccent,
egrave,
emacron,
eogonek,
etilde,
f,
g,
gbreve,
gcommaaccent,
gdotaccent,
h,
i,
dotlessi,
iacute,
ibreve,
icircumflex,
idieresis,
igrave,
imacron,
iogonek,
itilde,
j,
k,
kcommaaccent,
l,
lacute,
lcaron,
lcommaaccent,
ldot,
lslash,
m,
n,
nacute,
ncaron,
ncommaaccent,
ntilde,
o,
oacute,
obreve,
ocircumflex,
odieresis,
ograve,
ohungarumlaut,
omacron,
oslash,
otilde,
oe,
p,
thorn,
q,
r,
racute,
rcaron,
rcommaaccent,
s,
sacute,
scaron,
scedilla,
scommaaccent,
germandbls,
t,
tcaron,
tcedilla,
tcommaaccent,
u,
uacute,
ubreve,
ucircumflex,
udieresis,
ugrave,
uhungarumlaut,
umacron,
uogonek,
uring,
utilde,
v,
w,
wacute,
wcircumflex,
wdieresis,
wgrave,
x,
y,
yacute,
ycircumflex,

glyphs = (
{
color = 4;
glyphname = A;
lastChange = "2024-08-04 16:35:10 +0000";
layers = (
{
anchors = (
{
name = ogonek;
pos = (747,0);
},
{
name = top;
pos = (378,707);
}
);
layerId = "86171893-955A-4CD1-BD1B-2F7A53CC85DC";
shapes = (
{
closed = 1;
nodes = (
(265,705,l),
(8,0,l),
(214,0,l),
(414,603,l),
(341,603,l),
(540,0,l),
(747,0,l),
(491,705,l)
);
},
{
closed = 1;
nodes = (
(120,115,l),
(615,115,l),
(566,265,l),
(169,265,l)
);
}
);
width = 755;
}
);
unicode = 65;
userData = {
com.schriftgestaltung.Glyphs.ColorIndex = 4;
com.typesupply.AccentFactory.yCoordinates = {
bottom = {
name = origin;
type = glyphMetric;
};
top = {
name = capHeight;
type = fontInfo;
};
};
};
},
{
color = 4;
glyphname = Aogonek;
lastChange = "2024-06-14 14:32:59 +0000";
layers = (
{
anchors = (
{
name = _ogonek;
pos = (747,0);
}
);
layerId = "86171893-955A-4CD1-BD1B-2F7A53CC85DC";
shapes = (
{
closed = 1;
nodes = (
(670,78,ls),
(529,20,o),
(491,-32,o),
(491,-98,cs),
(491,-178,o),
(553,-220,o),
(645,-220,cs),
(684,-220,o),
(720,-214,o),
(751,-204,c),
(751,-99,l),
(720,-109,o),
(694,-114,o),
(673,-114,cs),
(646,-114,o),
(631,-103,o),
(631,-84,cs),
(631,-66,o),
(644,-46,o),
(702,-20,cs),
(747,0,l),
(708,94,l)
);
},
{
alignment = -1;
ref = A;
}
);
width = 755;
}
);
unicode = 260;
userData = {
com.schriftgestaltung.Glyphs.ColorIndex = 8;
com.typesupply.AccentFactory.compileType = manual;
};
},
{
color = 4;
glyphname = AE;
lastChange = "2024-08-04 17:20:29 +0000";
layers = (
{
layerId = "86171893-955A-4CD1-BD1B-2F7A53CC85DC";
shapes = (
{
closed = 1;
nodes = (
(154,108,l),
(581,108,l),
(581,256,l),
(237,256,l)
);
},
{
closed = 1;
nodes = (
(929,550,l),
(929,705,l),
(352,705,l),
(3,0,l),
(216,0,l),
(486,556,l),
(486,0,l),
(929,0,l),
(929,156,l),
(682,156,l),
(682,287,l),
(899,287,l),
(899,435,l),
(682,435,l),
(682,550,l)
);
}
);
width = 971;
}
);
unicode = 198;
userData = {
com.schriftgestaltung.Glyphs.ColorIndex = 4;
com.typemytype.robofont.layerData = {
b = {
anchors = (
);
components = (
);
contours = (
{
points = (
{
segmentType = line;
smooth = 0;
x = 138;
y = 183;
},
{
segmentType = line;
smooth = 0;
x = 449;
y = 183;
},
{
segmentType = line;
smooth = 0;
x = 449;
y = 202;
},
{
segmentType = line;
smooth = 0;
x = 149;
y = 202;
}
);
},
{
points = (
{
segmentType = line;
smooth = 0;
x = 757;
y = 663;
},
{
segmentType = line;
smooth = 0;
x = 757;
y = 683;
},
{
segmentType = line;
smooth = 0;
x = 442;
y = 683;
},
{
segmentType = line;
smooth = 0;
x = 11;
y = 0;
},
{
segmentType = line;
smooth = 0;
x = 32;
y = 0;
},
{
segmentType = line;
smooth = 0;
x = 443;
y = 658;
},
{
segmentType = line;
smooth = 0;
x = 443;
y = 0;
},
{
segmentType = line;
smooth = 0;
x = 757;
y = 0;
},
{
segmentType = line;
smooth = 0;
x = 757;
y = 19;
},
{
segmentType = line;
smooth = 0;
x = 463;
y = 19;
},
{
segmentType = line;
smooth = 0;
x = 463;
y = 332;
},
{
segmentType = line;
smooth = 0;
x = 727;
y = 332;
},
{
segmentType = line;
smooth = 0;
x = 727;
y = 351;
},
{
segmentType = line;
smooth = 0;
x = 463;
y = 351;
},
{
segmentType = line;
smooth = 0;
x = 463;
y = 663;
}
);
}
);
lib = {
};
name = AE;
unicodes = (
);
width = 837;
};
};
com.typesupply.AccentFactory.yCoordinates = {
bottom = {
name = origin;
type = glyphMetric;
};
top = {
name = capHeight;
type = fontInfo;
};
};
};
},
{
color = 4;
glyphname = B;
lastChange = "2024-08-04 17:21:32 +0000";
layers = (
{
layerId = "86171893-955A-4CD1-BD1B-2F7A53CC85DC";
shapes = (
{
closed = 1;
nodes = (
(425,486,cs),
(425,445,o),
(399,425,o),
(351,425,cs),
(252,425,l),
(252,549,l),
(351,549,ls),
(399,549,o),
(425,527,o)
);
},
{
closed = 1;
nodes = (
(641,192,cs),
(641,283,o),
(575,362,o),
(469,367,c),
(452,355,l),
(547,355,o),
(625,416,o),
(625,522,cs),
(625,639,o),
(537,705,o),
(394,705,cs),
(56,705,l),
(56,0,l),
(405,0,ls),
(556,0,o),
(641,73,o)
);
},
{
closed = 1;
nodes = (
(440,220,cs),
(440,178,o),
(415,158,o),
(366,158,cs),
(252,158,l),
(252,286,l),
(365,286,ls),
(413,286,o),
(440,263,o)
);
}
);
width = 671;
}
);
unicode = 66;
userData = {
com.schriftgestaltung.Glyphs.ColorIndex = 4;
com.typesupply.AccentFactory.yCoordinates = {
bottom = {
name = origin;
type = glyphMetric;
};
top = {
name = capHeight;
type = fontInfo;
};
};
};
},
{
color = 4;
glyphname = C;
lastChange = "2024-08-04 20:52:10 +0000";
layers = (
{
layerId = "86171893-955A-4CD1-BD1B-2F7A53CC85DC";
shapes = (
{
closed = 1;
nodes = (
(554,-7,o),
(679,90,o),
(716,245,c),
(521,291,l),
(496,208,o),
(453,173,o),
(379,173,cs),
(288,173,o),
(232,244,o),
(232,353,cs),
(232,460,o),
(288,532,o),
(379,532,cs),
(441,532,o),
(491,506,o),
(517,418,c),
(710,478,l),
(666,620,o),
(545,712,o),
(382,712,cs),
(176,712,o),
(32,567,o),
(32,353,cs),
(32,145,o),
(168,-7,o),
(382,-7,cs)
);
}
);
width = 748;
}
);
unicode = 67;
userData = {
com.schriftgestaltung.Glyphs.ColorIndex = 4;
com.typesupply.AccentFactory.yCoordinates = {
bottom = {
name = origin;
type = glyphMetric;
};
top = {
name = capHeight;
type = fontInfo;
};
};
};
},
{
color = 4;
glyphname = Cacute;
lastChange = "2024-08-04 20:52:25 +0000";
layers = (
{
layerId = "86171893-955A-4CD1-BD1B-2F7A53CC85DC";
shapes = (
{
closed = 1;
nodes = (
(245,880,l),
(245,747,l),
(495,845,l),
(495,993,l)
);
},
{
closed = 1;
nodes = (
(554,-7,o),
(679,90,o),
(716,245,c),
(521,291,l),
(496,208,o),
(453,173,o),
(379,173,cs),
(288,173,o),
(232,244,o),
(232,353,cs),
(232,460,o),
(288,532,o),
(379,532,cs),
(441,532,o),
(491,506,o),
(517,418,c),
(710,478,l),
(666,620,o),
(545,712,o),
(382,712,cs),
(176,712,o),
(32,567,o),
(32,353,cs),
(32,145,o),
(168,-7,o),
(382,-7,cs)
);
}
);
width = 748;
}
);
unicode = 262;
userData = {
com.schriftgestaltung.Glyphs.ColorIndex = 8;
};
},
{
color = 4;
glyphname = Ccaron;
lastChange = "2024-08-04 20:52:30 +0000";
layers = (
{
layerId = "86171893-955A-4CD1-BD1B-2F7A53CC85DC";
shapes = (
{
closed = 1;
nodes = (
(373,868,l),
(212,955,l),
(212,824,l),
(373,747,l),
(532,824,l),
(532,955,l)
);
},
{
closed = 1;
nodes = (
(554,-7,o),
(679,90,o),
(716,245,c),
(521,291,l),
(496,208,o),
(453,173,o),
(379,173,cs),
(288,173,o),
(232,244,o),
(232,353,cs),
(232,460,o),
(288,532,o),
(379,532,cs),
(441,532,o),
(491,506,o),
(517,418,c),
(710,478,l),
(666,620,o),
(545,712,o),
(382,712,cs),
(176,712,o),
(32,567,o),
(32,353,cs),
(32,145,o),
(168,-7,o),
(382,-7,cs)
);
}
);
width = 748;
}
);
unicode = 268;
userData = {
com.schriftgestaltung.Glyphs.ColorIndex = 8;
};
},
{
color = 4;
glyphname = Ccedilla;
lastChange = "2024-08-04 20:52:35 +0000";
layers = (
{
layerId = "86171893-955A-4CD1-BD1B-2F7A53CC85DC";
shapes = (
{
closed = 1;
nodes = (
(437,7,l),
(321,7,l),
(321,-124,l),
(399,-124,ls),
(420,-124,o),
(432,-130,o),
(432,-145,cs),
(432,-159,o),
(420,-166,o),
(399,-166,cs),
(259,-166,l),
(259,-269,l),
(422,-269,ls),
(490,-269,o),
(567,-239,o),
(567,-150,cs),
(567,-61,o),
(491,-32,o),
(437,-32,c)
);
},
{
closed = 1;
nodes = (
(554,-7,o),
(679,90,o),
(716,245,c),
(521,291,l),
(496,208,o),
(453,173,o),
(379,173,cs),
(288,173,o),
(232,244,o),
(232,353,cs),
(232,460,o),
(288,532,o),
(379,532,cs),
(441,532,o),
(491,506,o),
(517,418,c),
(710,478,l),
(666,620,o),
(545,712,o),
(382,712,cs),
(176,712,o),
(32,567,o),
(32,353,cs),
(32,145,o),
(168,-7,o),
(382,-7,cs)
);
}
);
width = 748;
}
);
unicode = 199;
userData = {
com.schriftgestaltung.Glyphs.ColorIndex = 4;
};
},
{
color = 4;
glyphname = Cdotaccent;
lastChange = "2024-08-04 20:52:39 +0000";
layers = (
{
layerId = "86171893-955A-4CD1-BD1B-2F7A53CC85DC";
shapes = (
{
closed = 1;
nodes = (
(292,802,o),
(326,768,o),
(371,768,cs),
(417,768,o),
(452,802,o),
(452,847,cs),
(452,893,o),
(417,928,o),
(371,928,cs),
(326,928,o),
(292,893,o),
(292,847,cs)
);
},
{
closed = 1;
nodes = (
(554,-7,o),
(679,90,o),
(716,245,c),
(521,291,l),
(496,208,o),
(453,173,o),
(379,173,cs),
(288,173,o),
(232,244,o),
(232,353,cs),
(232,460,o),
(288,532,o),
(379,532,cs),
(441,532,o),
(491,506,o),
(517,418,c),
(710,478,l),
(666,620,o),
(545,712,o),
(382,712,cs),
(176,712,o),
(32,567,o),
(32,353,cs),
(32,145,o),
(168,-7,o),
(382,-7,cs)
);
}
);
width = 748;
}
);
unicode = 266;
},
{
color = 4;
glyphname = D;
lastChange = "2024-08-04 17:24:52 +0000";
layers = (
{
anchors = (
{
name = top;
pos = (358,707);
}
);
layerId = "86171893-955A-4CD1-BD1B-2F7A53CC85DC";
shapes = (
{
closed = 1;
nodes = (
(335,705,cs),
(56,705,l),
(56,0,l),
(335,0,ls),
(560,0,o),
(703,149,o),
(703,353,cs),
(703,560,o),
(560,705,o)
);
},
{
closed = 1;
nodes = (
(252,173,l),
(252,535,l),
(320,535,ls),
(433,535,o),
(504,470,o),
(504,353,cs),
(504,237,o),
(433,173,o),
(320,173,cs)
);
}
);
width = 735;
}
);
unicode = 68;
userData = {
com.schriftgestaltung.Glyphs.ColorIndex = 4;
com.typemytype.robofont.guides = (
{
angle = 0;
isGlobal = 0;
magnetic = 5;
x = 122;
y = 684;
}
);
com.typesupply.AccentFactory.yCoordinates = {
bottom = {
name = origin;
type = glyphMetric;
};
top = {
name = capHeight;
type = fontInfo;
};
};
};
},
{
color = 4;
glyphname = Eth;
lastChange = "2024-08-04 18:49:54 +0000";
layers = (
{
layerId = "86171893-955A-4CD1-BD1B-2F7A53CC85DC";
shapes = (
{
closed = 1;
nodes = (
(2,274,l),
(397,274,l),
(397,433,l),
(2,433,l)
);
},
{
closed = 1;
nodes = (
(338,705,cs),
(58,705,l),
(58,0,l),
(338,0,ls),
(563,0,o),
(706,149,o),
(706,353,cs),
(706,560,o),
(563,705,o)
);
},
{
closed = 1;
nodes = (
(255,172,l),
(255,535,l),
(322,535,ls),
(436,535,o),
(506,470,o),
(506,353,cs),
(506,237,o),
(436,172,o),
(322,172,cs)
);
}
);
width = 738;
}
);
unicode = 208;
userData = {
com.schriftgestaltung.Glyphs.ColorIndex = 4;
};
},
{
color = 4;
glyphname = E;
lastChange = "2024-08-04 17:25:57 +0000";
layers = (
{
anchors = (
{
name = bottom;
pos = (277,0);
},
{
name = ogonek;
pos = (277,0);
},
{
name = top;
pos = (277,707);
}
);
layerId = "86171893-955A-4CD1-BD1B-2F7A53CC85DC";
shapes = (
{
closed = 1;
nodes = (
(507,705,l),
(56,705,l),
(56,0,l),
(507,0,l),
(507,157,l),
(252,157,l),
(252,284,l),
(477,284,l),
(477,433,l),
(252,433,l),
(252,548,l),
(507,548,l)
);
}
);
width = 548;
}
);
unicode = 69;
userData = {
com.schriftgestaltung.Glyphs.ColorIndex = 4;
com.typesupply.AccentFactory.yCoordinates = {
bottom = {
name = origin;
type = glyphMetric;
};
top = {
name = capHeight;
type = fontInfo;
};
};
};
},
{
color = 4;
glyphname = F;
lastChange = "2024-08-04 17:26:47 +0000";
layers = (
{
layerId = "86171893-955A-4CD1-BD1B-2F7A53CC85DC";
shapes = (
{
closed = 1;
nodes = (
(56,0,l),
(252,0,l),
(252,276,l),
(460,276,l),
(460,425,l),
(252,425,l),
(252,549,l),
(534,549,l),
(534,705,l),
(56,705,l)
);
}
);
width = 561;
}
);
unicode = 70;
userData = {
com.schriftgestaltung.Glyphs.ColorIndex = 4;
com.typesupply.AccentFactory.yCoordinates = {
bottom = {
name = origin;
type = glyphMetric;
};
top = {
name = capHeight;
type = fontInfo;
};
};
};
},
{
color = 4;
glyphname = G;
lastChange = "2024-08-04 17:32:36 +0000";
layers = (
{
anchors = (
{
name = bottom;
pos = (379,0);
},
{
name = top;
pos = (379,707);
}
);
layerId = "86171893-955A-4CD1-BD1B-2F7A53CC85DC";
shapes = (
{
closed = 1;
nodes = (
(707,513,l),
(658,650,o),
(535,712,o),
(389,712,cs),
(182,712,o),
(32,568,o),
(32,354,cs),
(32,140,o),
(184,-7,o),
(360,-7,cs),
(466,-7,o),
(537,55,o),
(561,115,c),
(561,0,l),
(725,0,l),
(725,402,l),
(359,402,l),
(359,253,l),
(546,253,l),
(517,201,o),
(468,168,o),
(409,168,cs),
(313,168,o),
(232,233,o),
(232,354,cs),
(232,462,o),
(291,532,o),
(390,532,cs),
(458,532,o),
(499,497,o),
(518,444,c)
);
}
);
width = 757;
}
);
unicode = 71;
userData = {
com.schriftgestaltung.Glyphs.ColorIndex = 4;
com.typemytype.robofont.layerData = {
b = {
anchors = (
{
name = top;
x = 411;
y = 683;
},
{
name = bottom;
x = 411;
y = 0;
}
);
components = (
);
contours = (
{
points = (
{
segmentType = curve;
smooth = 1;
x = 60;
y = 341;
},
{
smooth = 0;
x = 60;
y = 138;
},
{
smooth = 0;
x = 214;
y = -6;
},
{
segmentType = curve;
smooth = 1;
x = 407;
y = -6;
},
{
smooth = 0;
x = 590;
y = -6;
},
{
smooth = 0;
x = 747;
y = 110;
},
{
segmentType = curve;
smooth = 0;
x = 764;
y = 341;
},
{
segmentType = line;
smooth = 0;
x = 764;
y = 360;
},
{
segmentType = line;
smooth = 0;
x = 381;
y = 360;
},
{
segmentType = line;
smooth = 0;
x = 381;
y = 341;
},
{
segmentType = line;
smooth = 0;
x = 747;
y = 341;
},
{
smooth = 0;
x = 733;
y = 132;
},
{
smooth = 0;
x = 600;
y = 6;
},
{
segmentType = curve;
smooth = 1;
x = 407;
y = 6;
},
{
smooth = 0;
x = 226;
y = 6;
},
{
smooth = 0;
x = 80;
y = 137;
},
{
segmentType = curve;
smooth = 1;
x = 80;
y = 341;
},
{
smooth = 0;
x = 80;
y = 547;
},
{
smooth = 0;
x = 226;
y = 677;
},
{
segmentType = curve;
smooth = 1;
x = 407;
y = 677;
},
{
smooth = 0;
x = 528;
y = 677;
},
{
smooth = 0;
x = 633;
y = 618;
},
{
segmentType = curve;
smooth = 0;
x = 683;
y = 525;
},
{
segmentType = line;
smooth = 0;
x = 709;
y = 525;
},
{
smooth = 0;
x = 648;
y = 637;
},
{
smooth = 0;
x = 537;
y = 690;
},
{
segmentType = curve;
smooth = 1;
x = 407;
y = 690;
},
{
smooth = 0;
x = 214;
y = 690;
},
{
smooth = 0;
x = 60;
y = 546;
}
);
}
);
lib = {
};
name = G;
unicodes = (
);
width = 792;
};
};
com.typesupply.AccentFactory.yCoordinates = {
bottom = {
name = origin;
type = glyphMetric;
};
top = {
name = capHeight;
type = fontInfo;
};
};
};
},
{
color = 4;
glyphname = Gcommaaccent;
lastChange = "2024-08-04 20:54:05 +0000";
layers = (
{
anchors = (
{
name = _bottom;
pos = (380,0);
}
);
layerId = "86171893-955A-4CD1-BD1B-2F7A53CC85DC";
shapes = (
{
closed = 1;
nodes = (
(385,-326,o),
(484,-273,o),
(484,-152,cs),
(484,-94,o),
(442,-38,o),
(382,-38,cs),
(329,-38,o),
(288,-73,o),
(288,-126,cs),
(288,-180,o),
(325,-202,o),
(369,-202,c),
(378,-202,o),
(386,-201,o),
(394,-198,c),
(378,-227,o),
(335,-243,o),
(284,-241,c),
(284,-318,l)
);
},
{
alignment = -1;
ref = G;
}
);
width = 757;
}
);
unicode = 290;
userData = {
com.schriftgestaltung.Glyphs.ColorIndex = 8;
com.typesupply.AccentFactory.compileType = manual;
};
},
{
color = 4;
glyphname = H;
lastChange = "2024-08-04 17:33:20 +0000";
layers = (
{
layerId = "86171893-955A-4CD1-BD1B-2F7A53CC85DC";
shapes = (
{
closed = 1;
nodes = (
(56,0,l),
(252,0,l),
(252,705,l),
(56,705,l)
);
},
{
closed = 1;
nodes = (
(491,0,l),
(687,0,l),
(687,705,l),
(491,705,l)
);
},
{
closed = 1;
nodes = (
(232,283,l),
(514,283,l),
(514,440,l),
(232,440,l)
);
}
);
width = 743;
}
);
unicode = 72;
userData = {
com.schriftgestaltung.Glyphs.ColorIndex = 4;
com.typesupply.AccentFactory.yCoordinates = {
bottom = {
name = origin;
type = glyphMetric;
};
top = {
name = capHeight;
type = fontInfo;
};
};
};
},
{
color = 4;
glyphname = I;
lastChange = "2024-08-04 20:02:12 +0000";
layers = (
{
anchors = (
{
name = ogonek;
pos = (328,0);
},
{
name = top;
pos = (231,707);
}
);
layerId = "86171893-955A-4CD1-BD1B-2F7A53CC85DC";
shapes = (
{
closed = 1;
nodes = (
(404,0,l),
(404,156,l),
(328,156,l),
(328,549,l),
(404,549,l),
(404,705,l),
(56,705,l),
(56,549,l),
(132,549,l),
(132,156,l),
(56,156,l),
(56,0,l)
);
}
);
width = 460;
}
);
unicode = 73;
userData = {
com.schriftgestaltung.Glyphs.ColorIndex = 4;
com.typemytype.robofont.guides = (
{
angle = 0;
isGlobal = 0;
magnetic = 5;
x = 83;
y = 684;
}
);
com.typesupply.AccentFactory.yCoordinates = {
bottom = {
name = origin;
type = glyphMetric;
};
top = {
name = capHeight;
type = fontInfo;
};
};
};
},
{
color = 4;
glyphname = J;
lastChange = "2024-08-04 17:34:13 +0000";
layers = (
{
layerId = "86171893-955A-4CD1-BD1B-2F7A53CC85DC";
shapes = (
{
closed = 1;
nodes = (
(429,-7,o),
(521,78,o),
(521,238,cs),
(521,705,l),
(324,705,l),
(324,238,ls),
(324,193,o),
(306,169,o),
(269,169,cs),
(230,169,o),
(209,195,o),
(200,255,c),
(18,200,l),
(39,70,o),
(136,-7,o),
(278,-7,cs)
);
}
);
width = 582;
}
);
unicode = 74;
userData = {
com.schriftgestaltung.Glyphs.ColorIndex = 4;
com.typesupply.AccentFactory.yCoordinates = {
bottom = {
name = origin;
type = glyphMetric;
};
top = {
name = capHeight;
type = fontInfo;
};
};
};
},
{
color = 4;
glyphname = K;
lastChange = "2024-08-05 09:08:07 +0000";
layers = (
{
layerId = "86171893-955A-4CD1-BD1B-2F7A53CC85DC";
shapes = (
{
closed = 1;
nodes = (
(252,0,l),
(252,277,l),
(395,277,o),
(487,175,o),
(498,0,c),
(710,0,l),
(682,193,o),
(582,325,o),
(441,356,c),
(580,403,o),
(672,533,o),
(687,705,c),
(475,705,l),
(466,539,o),
(383,437,o),
(252,437,c),
(252,705,l),
(56,705,l),
(56,0,l)
);
}
);
width = 722;
}
);
unicode = 75;
userData = {
com.schriftgestaltung.Glyphs.ColorIndex = 4;
com.typesupply.AccentFactory.yCoordinates = {
bottom = {
name = origin;
type = glyphMetric;
};
top = {
name = capHeight;
type = fontInfo;
};
};
};
},
{
color = 4;
glyphname = Kcommaaccent;
lastChange = "2024-07-30 13:44:24 +0000";
layers = (
{
anchors = (
{
name = _bottom;
pos = (380,0);
}
);
layerId = "86171893-955A-4CD1-BD1B-2F7A53CC85DC";
shapes = (
{
closed = 1;
nodes = (
(391,-326,o),
(490,-273,o),
(490,-152,cs),
(490,-94,o),
(448,-38,o),
(388,-38,cs),
(335,-38,o),
(294,-73,o),
(294,-126,cs),
(294,-180,o),
(331,-202,o),
(375,-202,c),
(384,-202,o),
(392,-201,o),
(400,-198,c),
(384,-227,o),
(341,-243,o),
(290,-241,c),
(290,-318,l)
);
},
{
alignment = -1;
ref = K;
}
);
width = 759;
}
);
unicode = 310;
userData = {
com.schriftgestaltung.Glyphs.ColorIndex = 8;
com.typesupply.AccentFactory.compileType = manual;
};
},
{
color = 4;
glyphname = L;
lastChange = "2024-08-04 17:39:33 +0000";
layers = (
{
anchors = (
{
name = bottom;
pos = (261,0);
},
{
name = commaaccent;
pos = (261,10);
},
{
name = top;
pos = (229,707);
},
{
name = topright;
pos = (456,707);
}
);
layerId = "86171893-955A-4CD1-BD1B-2F7A53CC85DC";
shapes = (
{
closed = 1;
nodes = (
(56,705,l),
(56,0,l),
(471,0,l),
(471,150,l),
(252,150,l),
(252,705,l)
);
}
);
width = 491;
}
);
unicode = 76;
userData = {
com.schriftgestaltung.Glyphs.ColorIndex = 4;
com.typesupply.AccentFactory.yCoordinates = {
bottom = {
name = origin;
type = glyphMetric;
};
top = {
name = capHeight;
type = fontInfo;
};
};
};
},
{
color = 4;
glyphname = Lcaron;
lastChange = "2024-07-30 11:35:41 +0000";
layers = (
{
anchors = (
{
name = _bottom;
pos = (426,743);
}
);
layerId = "86171893-955A-4CD1-BD1B-2F7A53CC85DC";
shapes = (
{
closed = 1;
nodes = (
(422,421,o),
(521,474,o),
(521,595,cs),
(521,653,o),
(479,709,o),
(419,709,cs),
(366,709,o),
(325,674,o),
(325,621,cs),
(325,567,o),
(362,545,o),
(406,545,cs),
(415,545,o),
(423,546,o),
(431,549,c),
(415,520,o),
(372,504,o),
(321,506,c),
(321,429,l)
);
},
{
alignment = -1;
ref = L;
}
);
width = 553;
}
);
unicode = 317;
userData = {
com.schriftgestaltung.Glyphs.ColorIndex = 8;
com.typesupply.AccentFactory.compileType = manual;
};
},
{
color = 4;
glyphname = Lcommaaccent;
lastChange = "2024-08-04 20:57:25 +0000";
layers = (
{
anchors = (
{
name = _commaaccent;
pos = (280,8);
}
);
layerId = "86171893-955A-4CD1-BD1B-2F7A53CC85DC";
shapes = (
{
closed = 1;
nodes = (
(263,-326,o),
(362,-273,o),
(362,-152,cs),
(362,-94,o),
(320,-38,o),
(260,-38,cs),
(207,-38,o),
(166,-73,o),
(166,-126,cs),
(166,-180,o),
(203,-202,o),
(247,-202,c),
(256,-202,o),
(264,-201,o),
(272,-198,c),
(256,-227,o),
(213,-243,o),
(162,-241,c),
(162,-318,l)
);
},
{
alignment = -1;
ref = L;
}
);
width = 491;
}
);
unicode = 315;
userData = {
com.schriftgestaltung.Glyphs.ColorIndex = 8;
com.typesupply.AccentFactory.compileType = manual;
};
},
{
color = 4;
glyphname = Ldot;
lastChange = "2024-08-04 20:57:34 +0000";
layers = (
{
layerId = "86171893-955A-4CD1-BD1B-2F7A53CC85DC";
shapes = (
{
closed = 1;
nodes = (
(471,0,l),
(471,150,l),
(252,150,l),
(252,705,l),
(56,705,l),
(56,0,l)
);
},
{
closed = 1;
nodes = (
(445,324,o),
(480,359,o),
(480,403,cs),
(480,449,o),
(445,484,o),
(399,484,cs),
(355,484,o),
(320,449,o),
(320,403,cs),
(320,359,o),
(355,324,o),
(399,324,cs)
);
}
);
width = 500;
}
);
unicode = 319;
},
{
color = 4;
glyphname = Lslash;
lastChange = "2024-08-04 20:57:47 +0000";
layers = (
{
layerId = "86171893-955A-4CD1-BD1B-2F7A53CC85DC";
shapes = (
{
closed = 1;
nodes = (
(10,247,l),
(346,343,l),
(346,513,l),
(10,417,l)
);
},
{
closed = 1;
nodes = (
(70,705,l),
(70,0,l),
(485,0,l),
(485,149,l),
(267,149,l),
(267,705,l)
);
}
);
width = 505;
}
);
unicode = 321;
userData = {
com.schriftgestaltung.Glyphs.ColorIndex = 4;
};
},
{
color = 4;
glyphname = M;
lastChange = "2024-08-04 19:01:31 +0000";
layers = (
{
layerId = "86171893-955A-4CD1-BD1B-2F7A53CC85DC";
shapes = (
{
closed = 1;
nodes = (
(56,0,l),
(252,0,l),
(252,580,l),
(192,568,l),
(386,0,l),
(550,0,l),
(744,568,l),
(683,580,l),
(683,0,l),
(879,0,l),
(879,705,l),
(643,705,l),
(426,131,l),
(509,146,l),
(293,705,l),
(56,705,l)
);
}
);
width = 935;
}
);
unicode = 77;
userData = {
com.schriftgestaltung.Glyphs.ColorIndex = 4;
com.typesupply.AccentFactory.yCoordinates = {
bottom = {
name = origin;
type = glyphMetric;
};
top = {
name = capHeight;
type = fontInfo;
};
};
};
},
{
color = 4;
glyphname = N;
lastChange = "2024-08-04 19:01:28 +0000";
layers = (
{
anchors = (
{
name = bottom;
pos = (382,0);
},
{
name = top;
pos = (382,707);
}
);
layerId = "86171893-955A-4CD1-BD1B-2F7A53CC85DC";
shapes = (
{
closed = 1;
nodes = (
(513,705,l),
(513,306,l),
(252,705,l),
(56,705,l),
(56,0,l),
(252,0,l),
(252,394,l),
(513,0,l),
(709,0,l),
(709,705,l)
);
}
);
width = 765;
}
);
unicode = 78;
userData = {
com.schriftgestaltung.Glyphs.ColorIndex = 4;
com.typesupply.AccentFactory.yCoordinates = {
bottom = {
name = origin;
type = glyphMetric;
};
top = {
name = capHeight;
type = fontInfo;
};
};
};
},
{
color = 4;
glyphname = Ncommaaccent;
lastChange = "2024-08-04 20:58:23 +0000";
layers = (
{
anchors = (
{
name = _bottom;
pos = (402,0);
}
);
layerId = "86171893-955A-4CD1-BD1B-2F7A53CC85DC";
shapes = (
{
closed = 1;
nodes = (
(403,-326,o),
(502,-273,o),
(502,-152,cs),
(502,-94,o),
(460,-38,o),
(400,-38,cs),
(347,-38,o),
(306,-73,o),
(306,-126,cs),
(306,-180,o),
(343,-202,o),
(387,-202,c),
(396,-202,o),
(404,-201,o),
(412,-198,c),
(396,-227,o),
(353,-243,o),
(302,-241,c),
(302,-318,l)
);
},
{
alignment = -1;
ref = N;
}
);
width = 765;
}
);
unicode = 325;
userData = {
com.schriftgestaltung.Glyphs.ColorIndex = 8;
com.typesupply.AccentFactory.compileType = manual;
};
},
{
color = 4;
glyphname = O;
lastChange = "2024-08-04 17:41:33 +0000";
layers = (
{
anchors = (
{
name = top;
pos = (394,707);
}
);
layerId = "86171893-955A-4CD1-BD1B-2F7A53CC85DC";
shapes = (
{
closed = 1;
nodes = (
(594,-7,o),
(755,143,o),
(755,353,cs),
(755,563,o),
(595,712,o),
(394,712,cs),
(194,712,o),
(32,563,o),
(32,353,cs),
(32,143,o),
(194,-7,o),
(394,-7,cs)
);
},
{
closed = 1;
nodes = (
(292,175,o),
(232,246,o),
(232,353,cs),
(232,462,o),
(292,532,o),
(394,532,cs),
(495,532,o),
(556,462,o),
(556,353,cs),
(556,246,o),
(495,175,o),
(394,175,cs)
);
}
);
width = 787;
}
);
unicode = 79;
userData = {
com.schriftgestaltung.Glyphs.ColorIndex = 4;
com.typemytype.robofont.layerData = {
b = {
anchors = (
{
name = top;
x = 407;
y = 683;
}
);
components = (
);
contours = (
{
points = (
{
segmentType = curve;
smooth = 1;
x = 60;
y = 341;
},
{
smooth = 0;
x = 60;
y = 138;
},
{
smooth = 0;
x = 214;
y = -7;
},
{
segmentType = curve;
smooth = 1;
x = 407;
y = -7;
},
{
smooth = 0;
x = 601;
y = -7;
},
{
smooth = 0;
x = 754;
y = 138;
},
{
segmentType = curve;
smooth = 1;
x = 754;
y = 341;
},
{
smooth = 0;
x = 754;
y = 546;
},
{
smooth = 0;
x = 601;
y = 690;
},
{
segmentType = curve;
smooth = 1;
x = 407;
y = 690;
},
{
smooth = 0;
x = 214;
y = 690;
},
{
smooth = 0;
x = 60;
y = 546;
}
);
},
{
points = (
{
segmentType = curve;
smooth = 1;
x = 733;
y = 341;
},
{
smooth = 0;
x = 733;
y = 137;
},
{
smooth = 0;
x = 588;
y = 4;
},
{
segmentType = curve;
smooth = 1;
x = 407;
y = 4;
},
{
smooth = 0;
x = 226;
y = 4;
},
{
smooth = 0;
x = 80;
y = 137;
},
{
segmentType = curve;
smooth = 1;
x = 80;
y = 341;
},
{
smooth = 0;
x = 80;
y = 547;
},
{
smooth = 0;
x = 226;
y = 677;
},
{
segmentType = curve;
smooth = 1;
x = 407;
y = 677;
},
{
smooth = 0;
x = 588;
y = 677;
},
{
smooth = 0;
x = 733;
y = 547;
}
);
}
);
lib = {
};
name = O;
unicodes = (
);
width = 792;
};
};
com.typesupply.AccentFactory.yCoordinates = {
bottom = {
name = origin;
type = glyphMetric;
};
top = {
name = capHeight;
type = fontInfo;
};
};
};
},
{
color = 4;
glyphname = Oslash;
lastChange = "2024-08-04 17:42:44 +0000";
layers = (
{
layerId = "86171893-955A-4CD1-BD1B-2F7A53CC85DC";
shapes = (
{
closed = 1;
nodes = (
(20,1,l),
(130,1,l),
(766,705,l),
(657,705,l)
);
},
{
alignment = -1;
pos = (-1,0);
ref = O;
}
);
width = 787;
}
);
unicode = 216;
userData = {
com.schriftgestaltung.Glyphs.ColorIndex = 4;
};
},
{
color = 4;
glyphname = OE;
lastChange = "2024-08-04 17:43:49 +0000";
layers = (
{
layerId = "86171893-955A-4CD1-BD1B-2F7A53CC85DC";
shapes = (
{
closed = 1;
nodes = (
(1015,549,l),
(1015,705,l),
(564,705,l),
(564,652,l),
(516,694,o),
(449,712,o),
(379,712,cs),
(181,712,o),
(32,562,o),
(32,353,cs),
(32,143,o),
(181,-7,o),
(379,-7,cs),
(449,-5,o),
(516,12,o),
(564,54,c),
(564,0,l),
(1015,0,l),
(1015,156,l),
(760,156,l),
(760,284,l),
(985,284,l),
(985,432,l),
(760,432,l),
(760,549,l)
);
},
{
closed = 1;
nodes = (
(232,460,o),
(292,531,o),
(394,531,cs),
(495,531,o),
(556,460,o),
(556,353,cs),
(556,246,o),
(495,174,o),
(394,174,cs),
(292,174,o),
(232,246,o),
(232,353,cs)
);
}
);
width = 1056;
}
);
metricLeft = O;
metricRight = E;
unicode = 338;
userData = {
com.schriftgestaltung.Glyphs.ColorIndex = 4;
com.typesupply.AccentFactory.yCoordinates = {
bottom = {
name = origin;
type = glyphMetric;
};
top = {
name = capHeight;
type = fontInfo;
};
};
};
},
{
color = 4;
glyphname = P;
lastChange = "2024-08-04 17:44:11 +0000";
layers = (
{
layerId = "86171893-955A-4CD1-BD1B-2F7A53CC85DC";
shapes = (
{
closed = 1;
nodes = (
(252,394,l),
(252,547,l),
(330,547,ls),
(389,547,o),
(413,517,o),
(413,470,cs),
(413,424,o),
(389,394,o),
(330,394,cs)
);
},
{
closed = 1;
nodes = (
(613,470,cs),
(613,606,o),
(524,705,o),
(349,705,cs),
(56,705,l),
(56,0,l),
(252,0,l),
(252,238,l),
(349,238,ls),
(528,238,o),
(613,347,o)
);
}
);
width = 636;
}
);
unicode = 80;
userData = {
com.schriftgestaltung.Glyphs.ColorIndex = 4;
com.typesupply.AccentFactory.yCoordinates = {
bottom = {
name = origin;
type = glyphMetric;
};
top = {
name = capHeight;
type = fontInfo;
};
};
};
},
{
color = 4;
glyphname = Thorn;
lastChange = "2024-08-04 17:44:50 +0000";
layers = (
{
layerId = "86171893-955A-4CD1-BD1B-2F7A53CC85DC";
shapes = (
{
closed = 1;
nodes = (
(252,276,l),
(252,431,l),
(330,431,ls),
(389,431,o),
(413,400,o),
(413,353,cs),
(413,307,o),
(389,276,o),
(330,276,cs)
);
},
{
closed = 1;
nodes = (
(613,353,cs),
(613,485,o),
(524,580,o),
(349,580,cs),
(251,580,l),
(251,705,l),
(56,705,l),
(56,0,l),
(252,0,l),
(252,129,l),
(349,129,ls),
(528,129,o),
(613,234,o)
);
}
);
width = 636;
}
);
unicode = 222;
userData = {
com.schriftgestaltung.Glyphs.ColorIndex = 4;
};
},
{
color = 4;
glyphname = Q;
lastChange = "2024-08-04 13:38:06 +0000";
layers = (
{
layerId = "86171893-955A-4CD1-BD1B-2F7A53CC85DC";
shapes = (
{
closed = 1;
nodes = (
(708,-140,o),
(730,-136,o),
(747,-130,c),
(747,39,l),
(732,35,o),
(718,34,o),
(706,34,cs),
(667,34,o),
(641,47,o),
(617,80,c),
(463,1,l),
(504,-105,o),
(615,-140,o),
(684,-140,cs)
);
},
{
alignment = -1;
ref = O;
}
);
width = 770;
}
);
unicode = 81;
userData = {
com.schriftgestaltung.Glyphs.ColorIndex = 4;
com.typesupply.AccentFactory.yCoordinates = {
bottom = {
name = origin;
type = glyphMetric;
};
top = {
name = capHeight;
type = fontInfo;
};
};
};
},
{
color = 4;
glyphname = R;
lastChange = "2024-08-04 21:00:30 +0000";
layers = (
{
layerId = "86171893-955A-4CD1-BD1B-2F7A53CC85DC";
shapes = (
{
closed = 1;
nodes = (
(252,0,l),
(252,244,l),
(308,242,o),
(350,227,o),
(381,200,cs),
(431,158,o),
(452,88,o),
(458,0,c),
(670,0,l),
(649,161,o),
(578,267,o),
(479,302,c),
(576,324,o),
(628,402,o),
(628,485,cs),
(628,623,o),
(530,705,o),
(365,705,cs),
(56,705,l),
(56,0,l)
);
},
{
closed = 1;
nodes = (
(252,547,l),
(349,547,ls),
(400,547,o),
(429,518,o),
(429,476,cs),
(429,430,o),
(402,400,o),
(349,400,cs),
(252,400,l)
);
}
);
width = 702;
}
);
unicode = 82;
userData = {
com.schriftgestaltung.Glyphs.ColorIndex = 4;
com.typesupply.AccentFactory.yCoordinates = {
bottom = {
name = origin;
type = glyphMetric;
};
top = {
name = capHeight;
type = fontInfo;
};
};
};
},
{
color = 4;
glyphname = Racute;
lastChange = "2024-08-04 21:00:34 +0000";
layers = (
{
layerId = "86171893-955A-4CD1-BD1B-2F7A53CC85DC";
shapes = (
{
closed = 1;
nodes = (
(252,0,l),
(252,244,l),
(308,242,o),
(350,227,o),
(381,200,cs),
(431,158,o),
(452,88,o),
(458,0,c),
(670,0,l),
(649,161,o),
(578,267,o),
(479,302,c),
(576,324,o),
(628,402,o),
(628,485,cs),
(628,623,o),
(530,705,o),
(365,705,cs),
(56,705,l),
(56,0,l)
);
},
{
closed = 1;
nodes = (
(252,547,l),
(349,547,ls),
(400,547,o),
(429,518,o),
(429,476,cs),
(429,430,o),
(402,400,o),
(349,400,cs),
(252,400,l)
);
},
{
closed = 1;
nodes = (
(445,844,l),
(445,992,l),
(195,879,l),
(195,746,l)
);
}
);
width = 702;
}
);
unicode = 340;
userData = {
com.schriftgestaltung.Glyphs.ColorIndex = 8;
};
},
{
color = 4;
glyphname = Rcaron;
lastChange = "2024-08-04 21:00:38 +0000";
layers = (
{
layerId = "86171893-955A-4CD1-BD1B-2F7A53CC85DC";
shapes = (
{
closed = 1;
nodes = (
(252,0,l),
(252,244,l),
(308,242,o),
(350,227,o),
(381,200,cs),
(431,158,o),
(452,88,o),
(458,0,c),
(670,0,l),
(649,161,o),
(578,267,o),
(479,302,c),
(576,324,o),
(628,402,o),
(628,485,cs),
(628,623,o),
(530,705,o),
(365,705,cs),
(56,705,l),
(56,0,l)
);
},
{
closed = 1;
nodes = (
(252,547,l),
(349,547,ls),
(400,547,o),
(429,518,o),
(429,476,cs),
(429,430,o),
(402,400,o),
(349,400,cs),
(252,400,l)
);
},
{
closed = 1;
nodes = (
(482,823,l),
(482,954,l),
(323,867,l),
(162,954,l),
(162,823,l),
(323,746,l)
);
}
);
width = 702;
}
);
unicode = 344;
userData = {
com.schriftgestaltung.Glyphs.ColorIndex = 8;
};
},
{
color = 4;
glyphname = Rcommaaccent;
lastChange = "2024-08-04 21:00:42 +0000";
layers = (
{
anchors = (
{
name = _bottom;
pos = (342,0);
}
);
layerId = "86171893-955A-4CD1-BD1B-2F7A53CC85DC";
shapes = (
{
closed = 1;
nodes = (
(348,-326,o),
(447,-273,o),
(447,-152,cs),
(447,-94,o),
(405,-38,o),
(345,-38,cs),
(292,-38,o),
(251,-73,o),
(251,-126,cs),
(251,-180,o),
(288,-202,o),
(332,-202,c),
(341,-202,o),
(349,-201,o),
(357,-198,c),
(341,-227,o),
(298,-243,o),
(247,-241,c),
(247,-318,l)
);
},
{
alignment = -1;
ref = R;
}
);
width = 702;
}
);
unicode = 342;
userData = {
com.schriftgestaltung.Glyphs.ColorIndex = 8;
com.typesupply.AccentFactory.compileType = manual;
};
},
{
color = 4;
glyphname = S;
lastChange = "2024-08-04 17:51:11 +0000";
layers = (
{
anchors = (
{
name = bottom;
pos = (334,-2);
},
{
name = top;
pos = (333,709);
}
);
layerId = "86171893-955A-4CD1-BD1B-2F7A53CC85DC";
shapes = (
{
closed = 1;
nodes = (
(480,-7,o),
(601,90,o),
(601,214,cs),
(601,436,o),
(252,403,o),
(252,508,cs),
(252,536,o),
(279,556,o),
(312,556,cs),
(354,556,o),
(384,529,o),
(394,479,c),
(582,528,l),
(558,643,o),
(463,712,o),
(315,712,cs),
(160,712,o),
(53,636,o),
(53,498,cs),
(53,275,o),
(395,304,o),
(395,201,cs),
(395,169,o),
(368,150,o),
(322,150,cs),
(274,150,o),
(237,185,o),
(223,244,c),
(35,200,l),
(66,71,o),
(178,-7,o),
(333,-7,cs)
);
}
);
width = 636;
}
);
unicode = 83;
userData = {
com.schriftgestaltung.Glyphs.ColorIndex = 4;
com.typesupply.AccentFactory.yCoordinates = {
bottom = {
name = origin;
type = glyphMetric;
};
top = {
name = capHeight;
type = fontInfo;
};
};
};
},
{
color = 4;
glyphname = Scommaaccent;
lastChange = "2024-08-04 21:01:09 +0000";
layers = (
{
anchors = (
{
name = _bottom;
pos = (334,0);
}
);
layerId = "86171893-955A-4CD1-BD1B-2F7A53CC85DC";
shapes = (
{
closed = 1;
nodes = (
(313,-326,o),
(412,-273,o),
(412,-152,cs),
(412,-94,o),
(370,-38,o),
(310,-38,cs),
(257,-38,o),
(216,-73,o),
(216,-126,cs),
(216,-180,o),
(253,-202,o),
(297,-202,c),
(306,-202,o),
(314,-201,o),
(322,-198,c),
(306,-227,o),
(263,-243,o),
(212,-241,c),
(212,-318,l)
);
},
{
alignment = -1;
ref = S;
}
);
width = 636;
}
);
unicode = 536;
userData = {
com.schriftgestaltung.Glyphs.ColorIndex = 8;
com.typesupply.AccentFactory.compileType = manual;
};
},
{
color = 4;
glyphname = T;
lastChange = "2024-08-04 19:04:20 +0000";
layers = (
{
anchors = (
{
name = bottom;
pos = (298,0);
},
{
name = top;
pos = (298,707);
}
);
layerId = "86171893-955A-4CD1-BD1B-2F7A53CC85DC";
shapes = (
{
closed = 1;
nodes = (
(17,549,l),
(203,549,l),
(203,0,l),
(399,0,l),
(399,549,l),
(587,549,l),
(587,705,l),
(17,705,l)
);
}
);
width = 604;
}
);
unicode = 84;
userData = {
com.schriftgestaltung.Glyphs.ColorIndex = 4;
com.typesupply.AccentFactory.yCoordinates = {
bottom = {
name = origin;
type = glyphMetric;
};
top = {
name = capHeight;
type = fontInfo;
};
};
};
},
{
color = 4;
glyphname = Tcommaaccent;
lastChange = "2024-08-04 19:04:39 +0000";
layers = (
{
layerId = "86171893-955A-4CD1-BD1B-2F7A53CC85DC";
shapes = (
{
closed = 1;
nodes = (
(302,-326,o),
(401,-273,o),
(401,-152,cs),
(401,-94,o),
(359,-38,o),
(299,-38,cs),
(246,-38,o),
(205,-73,o),
(205,-126,cs),
(205,-180,o),
(242,-202,o),
(286,-202,c),
(295,-202,o),
(303,-201,o),
(311,-198,c),
(295,-227,o),
(252,-243,o),
(201,-241,c),
(201,-318,l)
);
},
{
alignment = -1;
ref = T;
}
);
width = 604;
}
);
unicode = 538;
userData = {
com.schriftgestaltung.Glyphs.ColorIndex = 8;
com.typesupply.AccentFactory.compileType = manual;
};
},
{
color = 4;
glyphname = U;
lastChange = "2024-08-04 17:52:30 +0000";
layers = (
{
anchors = (
{
name = ogonek;
pos = (442,2);
},
{
name = top;
pos = (356,707);
}
);
layerId = "86171893-955A-4CD1-BD1B-2F7A53CC85DC";
shapes = (
{
closed = 1;
nodes = (
(53,296,ls),
(53,95,o),
(181,-7,o),
(351,-7,cs),
(520,-7,o),
(660,95,o),
(660,296,cs),
(660,705,l),
(464,705,l),
(464,296,ls),
(464,223,o),
(429,177,o),
(355,177,cs),
(281,177,o),
(248,223,o),
(248,296,cs),
(248,705,l),
(53,705,l)
);
}
);
width = 712;
}
);
unicode = 85;
userData = {
com.schriftgestaltung.Glyphs.ColorIndex = 4;
com.typesupply.AccentFactory.yCoordinates = {
bottom = {
name = origin;
type = glyphMetric;
};
top = {
name = capHeight;
type = fontInfo;
};
};
};
},
{
color = 4;
glyphname = Uogonek;
lastChange = "2024-08-04 17:52:54 +0000";
layers = (
{
anchors = (
{
name = ogonek;
pos = (442,2);
},
{
name = top;
pos = (356,707);
}
);
layerId = "86171893-955A-4CD1-BD1B-2F7A53CC85DC";
shapes = (
{
closed = 1;
nodes = (
(53,296,ls),
(53,95,o),
(181,-7,o),
(351,-7,cs),
(520,-7,o),
(660,95,o),
(660,296,cs),
(660,705,l),
(464,705,l),
(464,296,ls),
(464,223,o),
(429,177,o),
(355,177,cs),
(281,177,o),
(248,223,o),
(248,296,cs),
(248,705,l),
(53,705,l)
);
},
{
closed = 1;
nodes = (
(365,74,ls),
(224,15,o),
(186,-37,o),
(186,-99,cs),
(186,-174,o),
(248,-218,o),
(341,-218,cs),
(379,-218,o),
(415,-212,o),
(446,-202,c),
(446,-97,l),
(415,-107,o),
(388,-112,o),
(365,-112,cs),
(341,-112,o),
(326,-101,o),
(326,-85,cs),
(326,-64,o),
(346,-44,o),
(398,-18,cs),
(442,4,l),
(403,90,l)
);
}
);
width = 712;
}
);
unicode = 370;
userData = {
com.schriftgestaltung.Glyphs.ColorIndex = 8;
};
},
{
color = 4;
glyphname = V;
lastChange = "2024-08-04 21:04:17 +0000";
layers = (
{
layerId = "86171893-955A-4CD1-BD1B-2F7A53CC85DC";
shapes = (
{
closed = 1;
nodes = (
(374,196,l),
(214,705,l),
(4,705,l),
(248,0,l),
(499,0,l),
(742,705,l),
(533,705,l)
);
}
);
width = 746;
}
);
unicode = 86;
userData = {
com.schriftgestaltung.Glyphs.ColorIndex = 4;
com.typesupply.AccentFactory.yCoordinates = {
bottom = {
name = origin;
type = glyphMetric;
};
top = {
name = capHeight;
type = fontInfo;
};
};
};
},
{
color = 4;
glyphname = W;
lastChange = "2024-08-04 17:53:58 +0000";
layers = (
{
layerId = "86171893-955A-4CD1-BD1B-2F7A53CC85DC";
shapes = (
{
closed = 1;
nodes = (
(198,0,l),
(439,0,l),
(549,481,l),
(527,481,l),
(635,0,l),
(876,0,l),
(1049,705,l),
(837,705,l),
(733,101,l),
(783,101,l),
(647,705,l),
(432,705,l),
(293,101,l),
(342,101,l),
(239,705,l),
(27,705,l)
);
}
);
width = 1076;
}
);
unicode = 87;
userData = {
com.schriftgestaltung.Glyphs.ColorIndex = 4;
com.typemytype.robofont.layerData = {
b = {
anchors = (
);
components = (
);
contours = (
{
points = (
{
segmentType = line;
smooth = 0;
x = 229;
y = -2;
},
{
segmentType = line;
smooth = 0;
x = 245;
y = 0;
},
{
segmentType = line;
smooth = 0;
x = 473;
y = 727;
},
{
segmentType = line;
smooth = 0;
x = 435;
y = 727;
},
{
segmentType = line;
smooth = 0;
x = 638;
y = 0;
},
{
segmentType = line;
smooth = 0;
x = 654;
y = 0;
},
{
segmentType = line;
smooth = 0;
x = 877;
y = 684;
},
{
segmentType = line;
smooth = 0;
x = 860;
y = 684;
},
{
segmentType = line;
smooth = 0;
x = 636;
y = 7;
},
{
segmentType = line;
smooth = 0;
x = 650;
y = 5;
},
{
segmentType = line;
smooth = 0;
x = 459;
y = 684;
},
{
segmentType = line;
smooth = 0;
x = 442;
y = 684;
},
{
segmentType = line;
smooth = 0;
x = 230;
y = 10;
},
{
segmentType = line;
smooth = 0;
x = 239;
y = 10;
},
{
segmentType = line;
smooth = 0;
x = 54;
y = 684;
},
{
segmentType = line;
smooth = 0;
x = 36;
y = 684;
}
);
}
);
lib = {
};
name = W;
unicodes = (
);
width = 904;
};
};
com.typesupply.AccentFactory.yCoordinates = {
bottom = {
name = origin;
type = glyphMetric;
};
top = {
name = capHeight;
type = fontInfo;
};
};
};
},
{
color = 4;
glyphname = X;
lastChange = "2024-08-04 17:54:37 +0000";
layers = (
{
layerId = "86171893-955A-4CD1-BD1B-2F7A53CC85DC";
shapes = (
{
closed = 1;
nodes = (
(497,0,l),
(728,0,l),
(243,705,l),
(12,705,l)
);
},
{
closed = 1;
nodes = (
(278,407,l),
(20,0,l),
(243,0,l),
(392,254,l)
);
},
{
closed = 1;
nodes = (
(455,299,l),
(713,705,l),
(490,705,l),
(342,452,l)
);
}
);
width = 739;
}
);
unicode = 88;
userData = {
com.schriftgestaltung.Glyphs.ColorIndex = 4;
com.typemytype.robofont.guides = (
{
angle = 90;
isGlobal = 0;
magnetic = 5;
x = 50;
y = 16;
},
{
angle = 90;
isGlobal = 0;
magnetic = 5;
x = 490;
y = 36;
},
{
angle = 0;
isGlobal = 0;
magnetic = 5;
x = 511;
y = 352;
}
);
com.typesupply.AccentFactory.yCoordinates = {
bottom = {
name = origin;
type = glyphMetric;
};
top = {
name = capHeight;
type = fontInfo;
};
};
};
},
{
color = 4;
glyphname = Y;
lastChange = "2024-08-04 17:55:07 +0000";
layers = (
{
anchors = (
{
name = top;
pos = (351,707);
}
);
layerId = "86171893-955A-4CD1-BD1B-2F7A53CC85DC";
shapes = (
{
closed = 1;
nodes = (
(252,224,l),
(252,0,l),
(449,0,l),
(449,224,l),
(697,705,l),
(476,705,l),
(315,352,l),
(389,352,l),
(228,705,l),
(4,705,l)
);
}
);
width = 701;
}
);
unicode = 89;
userData = {
com.schriftgestaltung.Glyphs.ColorIndex = 4;
com.typesupply.AccentFactory.yCoordinates = {
bottom = {
name = origin;
type = glyphMetric;
};
top = {
name = capHeight;
type = fontInfo;
};
};
};
},
{
color = 4;
glyphname = Z;
lastChange = "2024-08-04 17:55:30 +0000";
layers = (
{
anchors = (
{
name = top;
pos = (307,707);
}
);
layerId = "86171893-955A-4CD1-BD1B-2F7A53CC85DC";
shapes = (
{
closed = 1;
nodes = (
(563,705,l),
(50,705,l),
(50,547,l),
(340,547,l),
(50,149,l),
(50,0,l),
(563,0,l),
(563,159,l),
(270,159,l),
(563,556,l)
);
}
);
width = 613;
}
);
unicode = 90;
userData = {
com.schriftgestaltung.Glyphs.ColorIndex = 4;
com.typesupply.AccentFactory.yCoordinates = {
bottom = {
name = origin;
type = glyphMetric;
};
top = {
name = capHeight;
type = fontInfo;
};
};
};
},
{
color = 4;
glyphname = a;
lastChange = "2024-08-04 17:56:22 +0000";
layers = (
{
anchors = (
{
name = bottom;
pos = (340,0);
},
{
name = ogonek;
pos = (611,10);
},
{
name = top;
pos = (340,561);
}
);
layerId = "86171893-955A-4CD1-BD1B-2F7A53CC85DC";
shapes = (
{
closed = 1;
nodes = (
(338,-7,o),
(403,41,o),
(427,125,c),
(427,96,ls),
(427,34,o),
(461,0,o),
(523,0,cs),
(623,0,l),
(623,561,l),
(427,561,l),
(427,435,l),
(403,519,o),
(338,568,o),
(256,568,cs),
(108,568,o),
(24,436,o),
(24,280,cs),
(24,124,o),
(108,-7,o),
(256,-7,cs)
);
},
{
closed = 1;
nodes = (
(267,165,o),
(224,208,o),
(224,280,cs),
(224,352,o),
(267,397,o),
(325,397,cs),
(383,397,o),
(427,352,o),
(427,280,cs),
(427,208,o),
(383,165,o),
(325,165,cs)
);
}
);
width = 679;
}
);
unicode = 97;
userData = {
com.schriftgestaltung.Glyphs.ColorIndex = 4;
com.typemytype.robofont.guides = (
{
angle = 90;
isGlobal = 0;
magnetic = 5;
x = 306;
y = 501;
},
{
angle = 0;
isGlobal = 0;
magnetic = 5;
x = 88;
y = 270;
}
);
com.typesupply.AccentFactory.yCoordinates = {
bottom = {
name = origin;
type = glyphMetric;
};
top = {
name = xHeight;
type = fontInfo;
};
};
};
},
{
color = 4;
glyphname = aogonek;
lastChange = "2024-08-04 21:39:38 +0000";
layers = (
{
anchors = (
{
name = bottom;
pos = (340,0);
},
{
name = ogonek;
pos = (611,10);
},
{
name = top;
pos = (340,561);
}
);
layerId = "86171893-955A-4CD1-BD1B-2F7A53CC85DC";
shapes = (
{
closed = 1;
nodes = (
(338,-7,o),
(403,41,o),
(427,125,c),
(427,96,ls),
(427,34,o),
(461,0,o),
(523,0,cs),
(623,0,l),
(623,561,l),
(427,561,l),
(427,435,l),
(403,519,o),
(338,568,o),
(256,568,cs),
(108,568,o),
(24,436,o),
(24,280,cs),
(24,124,o),
(108,-7,o),
(256,-7,cs)
);
},
{
closed = 1;
nodes = (
(267,165,o),
(224,208,o),
(224,280,cs),
(224,352,o),
(267,397,o),
(325,397,cs),
(383,397,o),
(427,352,o),
(427,280,cs),
(427,208,o),
(383,165,o),
(325,165,cs)
);
},
{
closed = 1;
nodes = (
(546,70,ls),
(405,11,o),
(367,-41,o),
(367,-103,cs),
(367,-178,o),
(429,-220,o),
(522,-220,cs),
(560,-220,o),
(596,-214,o),
(627,-204,c),
(627,-99,l),
(596,-109,o),
(569,-114,o),
(546,-114,cs),
(522,-114,o),
(507,-103,o),
(507,-87,cs),
(507,-66,o),
(527,-48,o),
(579,-22,cs),
(623,0,l),
(584,86,l)
);
}
);
width = 679;
}
);
unicode = 261;
userData = {
com.schriftgestaltung.Glyphs.ColorIndex = 8;
com.typesupply.AccentFactory.compileType = manual;
};
},
{
color = 4;
glyphname = ae;
lastChange = "2024-08-05 09:36:18 +0000";
layers = (
{
layerId = "86171893-955A-4CD1-BD1B-2F7A53CC85DC";
shapes = (
{
closed = 1;
nodes = (
(338,-7,o),
(403,41,o),
(427,125,c),
(427,96,ls),
(427,34,o),
(461,0,o),
(523,0,cs),
(623,0,l),
(623,561,l),
(427,561,l),
(427,435,l),
(403,519,o),
(338,568,o),
(256,568,cs),
(108,568,o),
(24,436,o),
(24,280,cs),
(24,124,o),
(108,-7,o),
(256,-7,cs)
);
},
{
closed = 1;
nodes = (
(267,165,o),
(224,208,o),
(224,280,cs),
(224,352,o),
(267,397,o),
(325,397,cs),
(383,397,o),
(427,352,o),
(427,280,cs),
(427,208,o),
(383,165,o),
(325,165,cs)
);
},
{
closed = 1;
nodes = (
(913,-7,o),
(1019,31,o),
(1078,107,c),
(958,204,l),
(927,170,o),
(874,136,o),
(813,136,cs),
(756,136,o),
(702,165,o),
(693,200,c),
(705,199,o),
(717,199,o),
(730,199,cs),
(875,199,o),
(1051,242,o),
(1051,380,cs),
(1051,498,o),
(919,568,o),
(794,568,cs),
(632,568,o),
(498,447,o),
(498,276,cs),
(498,90,o),
(655,-7,o),
(809,-7,cs)
);
},
{
closed = 1;
nodes = (
(711,320,o),
(692,321,o),
(683,322,c),
(686,363,o),
(724,425,o),
(793,425,cs),
(827,425,o),
(865,408,o),
(865,380,cs),
(865,331,o),
(788,320,o),
(726,320,cs)
);
}
);
width = 1102;
}
);
unicode = 230;
userData = {
com.schriftgestaltung.Glyphs.ColorIndex = 4;
com.typemytype.robofont.layerData = {
b = {
anchors = (
);
components = (
);
contours = (
{
points = (
{
segmentType = line;
smooth = 0;
x = 547;
y = 261;
},
{
segmentType = line;
smooth = 0;
x = 1043;
y = 261;
},
{
smooth = 0;
x = 1046;
y = 280;
},
{
smooth = 0;
x = 1047;
y = 298;
},
{
segmentType = curve;
smooth = 1;
x = 1047;
y = 315;
},
{
smooth = 0;
x = 1047;
y = 439;
},
{
smooth = 0;
x = 956;
y = 552;
},
{
segmentType = curve;
smooth = 1;
x = 799;
y = 552;
},
{
smooth = 0;
x = 703;
y = 552;
},
{
smooth = 0;
x = 638;
y = 528;
},
{
segmentType = curve;
smooth = 0;
x = 582;
y = 437;
},
{
segmentType = line;
smooth = 0;
x = 582;
y = 540;
},
{
segmentType = line;
smooth = 0;
x = 562;
y = 540;
},
{
segmentType = line;
smooth = 0;
x = 562;
y = 437;
},
{
smooth = 0;
x = 508;
y = 528;
},
{
smooth = 0;
x = 432;
y = 552;
},
{
segmentType = curve;
smooth = 1;
x = 344;
y = 552;
},
{
smooth = 0;
x = 174;
y = 552;
},
{
smooth = 0;
x = 60;
y = 448;
},
{
segmentType = curve;
smooth = 1;
x = 60;
y = 278;
},
{
smooth = 0;
x = 60;
y = 108;
},
{
smooth = 0;
x = 174;
y = -12;
},
{
segmentType = curve;
smooth = 1;
x = 329;
y = -12;
},
{
smooth = 0;
x = 432;
y = -12;
},
{
smooth = 0;
x = 521;
y = 41;
},
{
segmentType = curve;
smooth = 0;
x = 562;
y = 105;
},
{
segmentType = line;
smooth = 0;
x = 562;
y = 0;
},
{
segmentType = line;
smooth = 0;
x = 582;
y = 0;
},
{
segmentType = line;
smooth = 0;
x = 582;
y = 103;
},
{
smooth = 0;
x = 627;
y = 34;
},
{
smooth = 0;
x = 696;
y = -12;
},
{
segmentType = curve;
smooth = 1;
x = 780;
y = -12;
},
{
smooth = 0;
x = 924;
y = -12;
},
{
smooth = 0;
x = 995;
y = 66;
},
{
segmentType = curve;
smooth = 0;
x = 1027;
y = 137;
},
{
segmentType = line;
smooth = 0;
x = 1007;
y = 137;
},
{
smooth = 0;
x = 982;
y = 60;
},
{
smooth = 0;
x = 917;
y = -1;
},
{
segmentType = curve;
smooth = 1;
x = 807;
y = -1;
},
{
smooth = 0;
x = 667;
y = -1;
},
{
smooth = 0;
x = 561;
y = 118;
},
{
segmentType = curve;
smooth = 1;
x = 561;
y = 274;
},
{
segmentType = line;
smooth = 1;
x = 561;
y = 259;
},
{
smooth = 0;
x = 561;
y = 432;
},
{
smooth = 0;
x = 674;
y = 541;
},
{
segmentType = curve;
smooth = 1;
x = 804;
y = 541;
},
{
smooth = 0;
x = 933;
y = 541;
},
{
smooth = 0;
x = 1030;
y = 448;
},
{
segmentType = curve;
smooth = 0;
x = 1027;
y = 290;
},
{
segmentType = line;
smooth = 0;
x = 552;
y = 290;
}
);
},
{
points = (
{
segmentType = curve;
smooth = 1;
x = 81;
y = 278;
},
{
smooth = 0;
x = 81;
y = 438;
},
{
smooth = 0;
x = 192;
y = 536;
},
{
segmentType = curve;
smooth = 1;
x = 323;
y = 536;
},
{
smooth = 0;
x = 456;
y = 536;
},
{
smooth = 0;
x = 567;
y = 430;
},
{
segmentType = curve;
smooth = 1;
x = 567;
y = 270;
},
{
smooth = 0;
x = 567;
y = 110;
},
{
smooth = 0;
x = 456;
y = 5;
},
{
segmentType = curve;
smooth = 1;
x = 323;
y = 5;
},
{
smooth = 0;
x = 192;
y = 5;
},
{
smooth = 0;
x = 81;
y = 118;
}
);
}
);
lib = {
};
name = ae;
unicodes = (
);
width = 1135;
};
};
com.typesupply.AccentFactory.yCoordinates = {
bottom = {
name = origin;
type = glyphMetric;
};
top = {
name = xHeight;
type = fontInfo;
};
};
};
},
{
color = 4;
glyphname = b;
lastChange = "2024-08-04 21:06:10 +0000";
layers = (
{
layerId = "86171893-955A-4CD1-BD1B-2F7A53CC85DC";
shapes = (
{
closed = 1;
nodes = (
(571,-7,o),
(655,124,o),
(655,280,c),
(655,436,o),
(571,568,o),
(423,568,c),
(341,568,o),
(276,519,o),
(252,435,c),
(252,740,l),
(56,740,l),
(56,0,l),
(156,0,ls),
(218,0,o),
(252,34,o),
(252,96,cs),
(252,125,l),
(276,41,o),
(341,-7,o),
(423,-7,c)
);
},
{
closed = 1;
nodes = (
(296,165,o),
(252,208,o),
(252,280,c),
(252,352,o),
(296,397,o),
(354,397,c),
(412,397,o),
(455,353,o),
(455,280,c),
(455,208,o),
(412,165,o),
(354,165,c)
);
}
);
width = 679;
}
);
unicode = 98;
userData = {
com.schriftgestaltung.Glyphs.ColorIndex = 4;
com.typemytype.robofont.layerData = {
b = {
anchors = (
);
components = (
);
contours = (
{
points = (
{
segmentType = curve;
smooth = 0;
x = 105;
y = 398;
},
{
segmentType = line;
smooth = 0;
x = 105;
y = 740;
},
{
segmentType = line;
smooth = 0;
x = 85;
y = 740;
},
{
segmentType = line;
smooth = 0;
x = 85;
y = 0;
},
{
segmentType = line;
smooth = 0;
x = 105;
y = 0;
},
{
segmentType = line;
smooth = 0;
x = 105;
y = 140;
},
{
smooth = 0;
x = 137;
y = 60;
},
{
smooth = 0;
x = 223;
y = -12;
},
{
segmentType = curve;
smooth = 1;
x = 342;
y = -12;
},
{
smooth = 0;
x = 498;
y = -12;
},
{
smooth = 0;
x = 611;
y = 108;
},
{
segmentType = curve;
smooth = 1;
x = 611;
y = 278;
},
{
smooth = 0;
x = 611;
y = 448;
},
{
smooth = 0;
x = 498;
y = 552;
},
{
segmentType = curve;
smooth = 1;
x = 342;
y = 552;
},
{
smooth = 0;
x = 223;
y = 552;
},
{
smooth = 0;
x = 138;
y = 480;
}
);
},
{
points = (
{
segmentType = curve;
smooth = 1;
x = 590;
y = 278;
},
{
smooth = 0;
x = 590;
y = 118;
},
{
smooth = 0;
x = 480;
y = 5;
},
{
segmentType = curve;
smooth = 1;
x = 347;
y = 5;
},
{
smooth = 0;
x = 215;
y = 5;
},
{
smooth = 0;
x = 105;
y = 110;
},
{
segmentType = curve;
smooth = 1;
x = 105;
y = 270;
},
{
smooth = 0;
x = 105;
y = 430;
},
{
smooth = 0;
x = 215;
y = 536;
},
{
segmentType = curve;
smooth = 1;
x = 347;
y = 536;
},
{
smooth = 0;
x = 480;
y = 536;
},
{
smooth = 0;
x = 590;
y = 438;
}
);
}
);
lib = {
};
name = b;
unicodes = (
);
width = 671;
};
};
com.typesupply.AccentFactory.yCoordinates = {
bottom = {
name = origin;
type = glyphMetric;
};
top = {
name = ascender;
type = fontInfo;
};
};
};
},
{
color = 4;
glyphname = c;
lastChange = "2024-08-04 19:08:24 +0000";
layers = (
{
layerId = "86171893-955A-4CD1-BD1B-2F7A53CC85DC";
shapes = (
{
closed = 1;
nodes = (
(463,-7,o),
(554,94,o),
(577,192,c),
(378,239,l),
(375,198,o),
(354,158,o),
(304,158,cs),
(255,158,o),
(224,202,o),
(224,281,cs),
(224,360,o),
(256,401,o),
(304,401,cs),
(345,401,o),
(370,374,o),
(379,332,c),
(569,392,l),
(523,540,o),
(403,568,o),
(308,568,cs),
(136,568,o),
(24,453,o),
(24,281,cs),
(24,105,o),
(139,-7,o),
(308,-7,cs)
);
}
);
width = 602;
}
);
unicode = 99;
userData = {
com.schriftgestaltung.Glyphs.ColorIndex = 4;
com.typemytype.robofont.guides = (
{
angle = 90;
isGlobal = 0;
magnetic = 5;
x = 287;
y = 532;
}
);
com.typesupply.AccentFactory.yCoordinates = {
bottom = {
name = origin;
type = glyphMetric;
};
top = {
name = xHeight;
type = fontInfo;
};
};
};
},
{
color = 4;
glyphname = cacute;
lastChange = "2024-08-04 19:08:30 +0000";
layers = (
{
layerId = "86171893-955A-4CD1-BD1B-2F7A53CC85DC";
shapes = (
{
closed = 1;
nodes = (
(463,-7,o),
(554,94,o),
(577,192,c),
(378,239,l),
(375,198,o),
(354,158,o),
(304,158,cs),
(255,158,o),
(224,202,o),
(224,281,cs),
(224,360,o),
(256,401,o),
(304,401,cs),
(345,401,o),
(370,374,o),
(379,332,c),
(569,392,l),
(523,540,o),
(403,568,o),
(308,568,cs),
(136,568,o),
(24,453,o),
(24,281,cs),
(24,105,o),
(139,-7,o),
(308,-7,cs)
);
},
{
closed = 1;
nodes = (
(421,697,l),
(421,845,l),
(171,732,l),
(171,599,l)
);
}
);
width = 602;
}
);
unicode = 263;
userData = {
com.schriftgestaltung.Glyphs.ColorIndex = 8;
};
},
{
color = 4;
glyphname = ccaron;
lastChange = "2024-08-04 19:08:51 +0000";
layers = (
{
layerId = "86171893-955A-4CD1-BD1B-2F7A53CC85DC";
shapes = (
{
closed = 1;
nodes = (
(463,-7,o),
(554,94,o),
(577,192,c),
(378,239,l),
(375,198,o),
(354,158,o),
(304,158,cs),
(255,158,o),
(224,202,o),
(224,281,cs),
(224,360,o),
(256,401,o),
(304,401,cs),
(345,401,o),
(370,374,o),
(379,332,c),
(569,392,l),
(523,540,o),
(403,568,o),
(308,568,cs),
(136,568,o),
(24,453,o),
(24,281,cs),
(24,105,o),
(139,-7,o),
(308,-7,cs)
);
},
{
closed = 1;
nodes = (
(460,676,l),
(460,807,l),
(301,720,l),
(140,807,l),
(140,676,l),
(301,599,l)
);
}
);
width = 602;
}
);
unicode = 269;
userData = {
com.schriftgestaltung.Glyphs.ColorIndex = 8;
};
},
{
color = 4;
glyphname = ccedilla;
lastChange = "2024-08-04 19:08:57 +0000";
layers = (
{
layerId = "86171893-955A-4CD1-BD1B-2F7A53CC85DC";
shapes = (
{
closed = 1;
nodes = (
(463,-7,o),
(554,94,o),
(577,192,c),
(378,239,l),
(375,198,o),
(354,158,o),
(304,158,cs),
(255,158,o),
(224,202,o),
(224,281,cs),
(224,360,o),
(256,401,o),
(304,401,cs),
(345,401,o),
(370,374,o),
(379,332,c),
(569,392,l),
(523,540,o),
(403,568,o),
(308,568,cs),
(136,568,o),
(24,453,o),
(24,281,cs),
(24,105,o),
(139,-7,o),
(308,-7,cs)
);
},
{
closed = 1;
nodes = (
(351,-269,ls),
(419,-269,o),
(496,-239,o),
(496,-150,cs),
(496,-61,o),
(420,-32,o),
(366,-32,c),
(366,7,l),
(250,7,l),
(250,-124,l),
(328,-124,ls),
(349,-124,o),
(361,-130,o),
(361,-145,cs),
(361,-159,o),
(349,-166,o),
(328,-166,cs),
(188,-166,l),
(188,-269,l)
);
}
);
width = 602;
}
);
unicode = 231;
userData = {
com.schriftgestaltung.Glyphs.ColorIndex = 4;
};
},
{
color = 4;
glyphname = cdotaccent;
lastChange = "2024-08-04 19:09:01 +0000";
layers = (
{
layerId = "86171893-955A-4CD1-BD1B-2F7A53CC85DC";
shapes = (
{
closed = 1;
nodes = (
(463,-7,o),
(554,94,o),
(577,192,c),
(378,239,l),
(375,198,o),
(354,158,o),
(304,158,cs),
(255,158,o),
(224,202,o),
(224,281,cs),
(224,360,o),
(256,401,o),
(304,401,cs),
(345,401,o),
(370,374,o),
(379,332,c),
(569,392,l),
(523,540,o),
(403,568,o),
(308,568,cs),
(136,568,o),
(24,453,o),
(24,281,cs),
(24,105,o),
(139,-7,o),
(308,-7,cs)
);
},
{
closed = 1;
nodes = (
(345,620,o),
(380,654,o),
(380,699,cs),
(380,745,o),
(345,780,o),
(299,780,cs),
(254,780,o),
(220,745,o),
(220,699,cs),
(220,654,o),
(254,620,o),
(299,620,cs)
);
}
);
width = 602;
}
);
unicode = 267;
},
{
color = 4;
glyphname = d;
lastChange = "2024-08-04 17:59:36 +0000";
layers = (
{
anchors = (
{
name = topright;
pos = (624,740);
}
);
layerId = "86171893-955A-4CD1-BD1B-2F7A53CC85DC";
shapes = (
{
closed = 1;
nodes = (
(338,-7,o),
(403,41,o),
(427,125,c),
(427,96,ls),
(427,34,o),
(461,0,o),
(523,0,cs),
(623,0,l),
(623,740,l),
(427,740,l),
(427,435,l),
(403,519,o),
(338,568,o),
(256,568,c),
(108,568,o),
(24,436,o),
(24,280,c),
(24,124,o),
(108,-7,o),
(256,-7,c)
);
},
{
closed = 1;
nodes = (
(267,165,o),
(224,208,o),
(224,280,c),
(224,352,o),
(267,397,o),
(325,397,c),
(383,397,o),
(427,352,o),
(427,280,c),
(427,208,o),
(383,165,o),
(325,165,c)
);
}
);
width = 679;
}
);
unicode = 100;
userData = {
com.schriftgestaltung.Glyphs.ColorIndex = 4;
com.typesupply.AccentFactory.yCoordinates = {
bottom = {
name = origin;
type = glyphMetric;
};
top = {
name = ascender;
type = fontInfo;
};
};
};
},
{
color = 4;
glyphname = eth;
lastChange = "2024-08-04 17:59:55 +0000";
layers = (
{
layerId = "86171893-955A-4CD1-BD1B-2F7A53CC85DC";
shapes = (
{
closed = 1;
nodes = (
(264,657,l),
(264,588,l),
(534,667,l),
(534,737,l)
);
},
{
closed = 1;
nodes = (
(147,566,o),
(24,459,o),
(24,282,cs),
(24,105,o),
(162,-7,o),
(325,-7,cs),
(485,-7,o),
(617,106,o),
(617,317,cs),
(617,477,o),
(537,633,o),
(427,740,c),
(252,740,l),
(309,692,o),
(367,618,o),
(400,547,c),
(368,559,o),
(336,566,o),
(302,566,cs)
);
},
{
closed = 1;
nodes = (
(279,163,o),
(224,196,o),
(224,281,cs),
(224,365,o),
(275,398,o),
(322,398,cs),
(366,398,o),
(417,365,o),
(417,281,cs),
(417,196,o),
(371,163,o),
(325,163,cs)
);
}
);
width = 641;
}
);
unicode = 240;
userData = {
com.schriftgestaltung.Glyphs.ColorIndex = 4;
};
},
{
color = 4;
glyphname = dcaron;
lastChange = "2024-08-04 15:20:10 +0000";
layers = (
{
layerId = "86171893-955A-4CD1-BD1B-2F7A53CC85DC";
shapes = (
{
closed = 1;
nodes = (
(759,461,o),
(858,514,o),
(858,635,cs),
(858,693,o),
(816,749,o),
(756,749,cs),
(703,749,o),
(662,714,o),
(662,661,cs),
(662,607,o),
(699,585,o),
(743,585,c),
(752,585,o),
(760,586,o),
(768,589,c),
(752,560,o),
(709,544,o),
(658,546,c),
(658,469,l)
);
},
{
alignment = -1;
ref = d;
}
);
width = 868;
}
);
unicode = 271;
userData = {
com.schriftgestaltung.Glyphs.ColorIndex = 8;
com.typesupply.AccentFactory.compileType = manual;
};
},
{
color = 4;
glyphname = dcroat;
lastChange = "2024-06-17 15:24:55 +0000";
layers = (
{
layerId = "86171893-955A-4CD1-BD1B-2F7A53CC85DC";
shapes = (
{
closed = 1;
nodes = (
(362,592,l),
(686,592,l),
(686,680,l),
(362,680,l)
);
},
{
alignment = -1;
ref = d;
}
);
width = 698;
}
);
unicode = 273;
userData = {
com.schriftgestaltung.Glyphs.ColorIndex = 8;
};
},
{
color = 4;
glyphname = e;
lastChange = "2024-08-05 09:09:30 +0000";
layers = (
{
anchors = (
{
name = bottom;
pos = (309,0);
},
{
name = top;
pos = (309,561);
}
);
layerId = "86171893-955A-4CD1-BD1B-2F7A53CC85DC";
shapes = (
{
closed = 1;
nodes = (
(439,-7,o),
(545,31,o),
(604,107,c),
(484,204,l),
(453,170,o),
(400,136,o),
(339,136,cs),
(282,136,o),
(228,165,o),
(219,200,c),
(231,199,o),
(243,199,o),
(256,199,cs),
(401,199,o),
(577,242,o),
(577,380,cs),
(577,498,o),
(445,568,o),
(320,568,cs),
(158,568,o),
(24,447,o),
(24,276,cs),
(24,90,o),
(181,-7,o),
(335,-7,cs)
);
},
{
closed = 1;
nodes = (
(237,320,o),
(218,321,o),
(209,322,c),
(212,363,o),
(250,425,o),
(319,425,cs),
(353,425,o),
(391,408,o),
(391,380,cs),
(391,331,o),
(314,320,o),
(252,320,cs)
);
}
);
width = 618;
}
);
unicode = 101;
userData = {
com.schriftgestaltung.Glyphs.ColorIndex = 4;
com.typemytype.robofont.layerData = {
b = {
anchors = (
{
name = top;
x = 314;
y = 540;
},
{
name = ogonek;
x = 442;
y = 45;
},
{
name = bottom;
x = 314;
y = 0;
}
);
components = (
);
contours = (
{
points = (
{
segmentType = line;
smooth = 0;
x = 54;
y = 261;
},
{
segmentType = line;
smooth = 0;
x = 564;
y = 261;
},
{
smooth = 0;
x = 567;
y = 280;
},
{
smooth = 0;
x = 568;
y = 298;
},
{
segmentType = curve;
smooth = 1;
x = 568;
y = 315;
},
{
smooth = 0;
x = 568;
y = 434;
},
{
smooth = 0;
x = 482;
y = 552;
},
{
segmentType = curve;
smooth = 1;
x = 330;
y = 552;
},
{
smooth = 0;
x = 164;
y = 552;
},
{
smooth = 0;
x = 60;
y = 438;
},
{
segmentType = curve;
smooth = 1;
x = 60;
y = 270;
},
{
smooth = 0;
x = 60;
y = 103;
},
{
smooth = 0;
x = 164;
y = -12;
},
{
segmentType = curve;
smooth = 1;
x = 316;
y = -12;
},
{
smooth = 0;
x = 451;
y = -12;
},
{
smooth = 0;
x = 516;
y = 66;
},
{
segmentType = curve;
smooth = 0;
x = 548;
y = 137;
},
{
segmentType = line;
smooth = 0;
x = 528;
y = 137;
},
{
smooth = 0;
x = 505;
y = 60;
},
{
smooth = 0;
x = 424;
y = -1;
},
{
segmentType = curve;
smooth = 1;
x = 316;
y = -1;
},
{
smooth = 0;
x = 186;
y = -1;
},
{
smooth = 0;
x = 81;
y = 93;
},
{
segmentType = curve;
smooth = 1;
x = 81;
y = 269;
},
{
segmentType = line;
smooth = 1;
x = 81;
y = 274;
},
{
smooth = 0;
x = 81;
y = 447;
},
{
smooth = 0;
x = 183;
y = 541;
},
{
segmentType = curve;
smooth = 1;
x = 316;
y = 541;
},
{
smooth = 0;
x = 448;
y = 541;
},
{
smooth = 0;
x = 551;
y = 448;
},
{
segmentType = curve;
smooth = 0;
x = 549;
y = 290;
},
{
segmentType = line;
smooth = 0;
x = 53;
y = 290;
}
);
}
);
lib = {
};
name = e;
unicodes = (
);
width = 628;
};
};
com.typesupply.AccentFactory.yCoordinates = {
bottom = {
name = origin;
type = glyphMetric;
};
top = {
name = xHeight;
type = fontInfo;
};
};
};
},
{
color = 4;
glyphname = eogonek;
lastChange = "2024-08-04 21:07:19 +0000";
layers = (
{
layerId = "86171893-955A-4CD1-BD1B-2F7A53CC85DC";
shapes = (
{
closed = 1;
nodes = (
(342,-211,o),
(378,-205,o),
(409,-195,c),
(409,-90,l),
(378,-100,o),
(351,-105,o),
(328,-105,cs),
(304,-105,o),
(289,-94,o),
(289,-78,cs),
(289,-57,o),
(311,-36,o),
(361,-13,cs),
(382,-4,l),
(466,7,o),
(545,45,o),
(594,114,c),
(460,212,l),
(434,176,o),
(376,149,o),
(325,148,cs),
(282,148,o),
(239,164,o),
(224,205,c),
(235,205,o),
(249,205,o),
(262,206,cs),
(384,213,o),
(569,250,o),
(569,381,cs),
(569,499,o),
(445,568,o),
(320,568,cs),
(158,568,o),
(24,439,o),
(24,268,cs),
(24,130,o),
(107,46,o),
(211,12,c),
(205,9,o),
(149,-28,o),
(149,-94,cs),
(149,-169,o),
(211,-211,o),
(304,-211,cs)
);
},
{
closed = 1;
nodes = (
(217,366,o),
(254,422,o),
(319,422,cs),
(351,422,o),
(377,407,o),
(377,379,cs),
(377,341,o),
(321,330,o),
(269,326,cs),
(249,324,o),
(226,324,o),
(214,325,c)
);
}
);
width = 618;
}
);
unicode = 281;
userData = {
com.schriftgestaltung.Glyphs.ColorIndex = 8;
};
},
{
color = 4;
glyphname = f;
lastChange = "2024-08-04 19:11:49 +0000";
layers = (
{
anchors = (
{
name = bottom;
pos = (187,0);
},
{
name = top;
pos = (187,740);
}
);
layerId = "86171893-955A-4CD1-BD1B-2F7A53CC85DC";
shapes = (
{
closed = 1;
nodes = (
(271,0,l),
(271,398,l),
(359,398,l),
(359,561,l),
(271,561,l),
(271,570,ls),
(271,628,o),
(335,624,o),
(357,622,c),
(357,788,l),
(230,799,o),
(74,754,o),
(74,566,cs),
(74,561,l),
(13,561,l),
(13,398,l),
(74,398,l),
(74,0,l)
);
}
);
width = 373;
}
);
unicode = 102;
userData = {
com.schriftgestaltung.Glyphs.ColorIndex = 4;
com.typemytype.robofont.layerData = {
b = {
anchors = (
);
components = (
);
contours = (
{
points = (
{
segmentType = line;
smooth = 0;
x = 108;
y = 0;
},
{
segmentType = line;
smooth = 0;
x = 128;
y = 0;
},
{
segmentType = line;
smooth = 1;
x = 128;
y = 609;
},
{
smooth = 0;
x = 128;
y = 701;
},
{
smooth = 0;
x = 162;
y = 742;
},
{
segmentType = curve;
smooth = 0;
x = 275;
y = 742;
},
{
segmentType = line;
smooth = 0;
x = 275;
y = 753;
},
{
smooth = 0;
x = 158;
y = 753;
},
{
smooth = 0;
x = 108;
y = 711;
},
{
segmentType = curve;
smooth = 1;
x = 108;
y = 609;
}
);
}
);
lib = {
};
name = f;
unicodes = (
);
width = 318;
};
};
com.typesupply.AccentFactory.yCoordinates = {
bottom = {
name = origin;
type = glyphMetric;
};
top = {
name = ascender;
type = fontInfo;
};
};
};
},
{
color = 4;
glyphname = g;
lastChange = "2024-08-04 21:07:47 +0000";
layers = (
{
anchors = (
{
name = bottom;
pos = (341,-268);
},
{
name = top;
pos = (341,561);
}
);
layerId = "86171893-955A-4CD1-BD1B-2F7A53CC85DC";
shapes = (
{
closed = 1;
nodes = (
(541,-274,o),
(623,-127,o),
(623,23,cs),
(623,561,l),
(428,561,l),
(428,435,l),
(404,519,o),
(341,568,o),
(259,568,cs),
(111,568,o),
(24,436,o),
(24,280,cs),
(24,124,o),
(111,-7,o),
(259,-7,cs),
(341,-7,o),
(404,41,o),
(428,125,c),
(428,23,ls),
(428,-57,o),
(392,-114,o),
(312,-114,cs),
(255,-114,o),
(216,-83,o),
(198,-39,c),
(30,-95,l),
(57,-216,o),
(186,-274,o),
(321,-274,cs)
);
},
{
closed = 1;
nodes = (
(268,164,o),
(224,208,o),
(224,280,cs),
(224,352,o),
(268,397,o),
(326,397,cs),
(384,397,o),
(428,352,o),
(428,280,cs),
(428,208,o),
(384,164,o),
(326,164,cs)
);
}
);
width = 679;
}
);
unicode = 103;
userData = {
com.schriftgestaltung.Glyphs.ColorIndex = 4;
com.typesupply.AccentFactory.yCoordinates = {
top = {
name = xHeight;
type = fontInfo;
};
};
};
},
{
color = 4;
glyphname = gcommaaccent;
lastChange = "2024-08-04 21:07:56 +0000";
layers = (
{
layerId = "86171893-955A-4CD1-BD1B-2F7A53CC85DC";
shapes = (
{
closed = 1;
nodes = (
(340,887,o),
(241,834,o),
(241,713,cs),
(241,655,o),
(283,599,o),
(343,599,cs),
(396,599,o),
(437,634,o),
(437,687,cs),
(437,741,o),
(400,763,o),
(356,763,c),
(347,763,o),
(339,762,o),
(331,759,c),
(347,788,o),
(390,804,o),
(441,802,c),
(441,879,l)
);
},
{
alignment = -1;
ref = g;
}
);
width = 679;
}
);
unicode = 291;
userData = {
com.schriftgestaltung.Glyphs.ColorIndex = 8;
com.typesupply.AccentFactory.compileType = manual;
};
},
{
color = 4;
glyphname = h;
lastChange = "2024-08-04 18:04:22 +0000";
layers = (
{
layerId = "86171893-955A-4CD1-BD1B-2F7A53CC85DC";
shapes = (
{
closed = 1;
nodes = (
(252,0,l),
(252,291,ls),
(252,355,o),
(286,404,o),
(346,404,c),
(402,404,o),
(438,365,o),
(438,301,cs),
(438,0,l),
(634,0,l),
(634,329,ls),
(634,475,o),
(553,568,o),
(425,568,cs),
(347,568,o),
(276,521,o),
(252,440,c),
(252,740,l),
(56,740,l),
(56,0,l)
);
}
);
width = 686;
}
);
unicode = 104;
userData = {
com.schriftgestaltung.Glyphs.ColorIndex = 4;
com.typesupply.AccentFactory.yCoordinates = {
bottom = {
name = origin;
type = glyphMetric;
};
top = {
name = ascender;
type = fontInfo;
};
};
};
},
{
color = 4;
glyphname = i;
lastChange = "2024-07-31 14:32:22 +0000";
layers = (
{
anchors = (
{
name = ogonek;
pos = (245,-1);
}
);
layerId = "86171893-955A-4CD1-BD1B-2F7A53CC85DC";
shapes = (
{
closed = 1;
nodes = (
(245,0,l),
(245,561,l),
(49,561,l),
(49,0,l)
);
},
{
closed = 1;
nodes = (
(221,614,o),
(270,659,o),
(270,721,cs),
(270,784,o),
(221,830,o),
(148,830,cs),
(74,830,o),
(25,784,o),
(25,721,cs),
(25,659,o),
(74,614,o),
(148,614,cs)
);
}
);
width = 295;
}
);
unicode = 105;
userData = {
com.schriftgestaltung.Glyphs.ColorIndex = 4;
com.typemytype.robofont.guides = (
{
angle = 0;
isGlobal = 0;
magnetic = 5;
x = 82;
y = 540;
}
);
com.typesupply.AccentFactory.yCoordinates = {
bottom = {
name = origin;
type = glyphMetric;
};
};
};
},
{
color = 4;
glyphname = dotlessi;
lastChange = "2024-06-18 10:28:43 +0000";
layers = (
{
anchors = (
{
name = ogonek;
pos = (312,10);
},
{
name = top;
pos = (174,561);
}
);
layerId = "86171893-955A-4CD1-BD1B-2F7A53CC85DC";
shapes = (
{
closed = 1;
nodes = (
(75,0,l),
(272,0,l),
(272,561,l),
(75,561,l)
);
}
);
width = 347;
}
);
unicode = 305;
userData = {
com.schriftgestaltung.Glyphs.ColorIndex = 4;
com.typesupply.AccentFactory.yCoordinates = {
bottom = {
name = origin;
type = glyphMetric;
};
top = {
name = xHeight;
type = fontInfo;
};
};
};
},
{
color = 4;
glyphname = j;
lastChange = "2024-08-04 21:10:23 +0000";
layers = (
{
layerId = "86171893-955A-4CD1-BD1B-2F7A53CC85DC";
shapes = (
{
closed = 1;
nodes = (
(155,-274,o),
(262,-193,o),
(262,-48,cs),
(262,561,l),
(66,561,l),
(66,-26,ls),
(66,-72,o),
(40,-94,o),
(7,-94,cs),
(-8,-94,o),
(-25,-89,o),
(-41,-79,c),
(-124,-211,l),
(-76,-254,o),
(-17,-274,o),
(40,-274,cs)
);
},
{
closed = 1;
nodes = (
(238,614,o),
(287,659,o),
(287,721,cs),
(287,784,o),
(238,830,o),
(165,830,cs),
(91,830,o),
(42,784,o),
(42,721,cs),
(42,659,o),
(91,614,o),
(165,614,cs)
);
}
);
width = 326;
}
);
unicode = 106;
userData = {
com.schriftgestaltung.Glyphs.ColorIndex = 4;
com.typesupply.AccentFactory.yCoordinates = {
bottom = {
name = origin;
type = glyphMetric;
};
};
};
},
{
color = 4;
glyphname = k;
lastChange = "2024-08-04 21:10:52 +0000";
layers = (
{
anchors = (
{
name = bottom;
pos = (330,0);
}
);
layerId = "86171893-955A-4CD1-BD1B-2F7A53CC85DC";
shapes = (
{
closed = 1;
nodes = (
(252,0,l),
(252,200,l),
(340,187,o),
(411,109,o),
(435,0,c),
(646,0,l),
(619,127,o),
(516,252,o),
(404,279,c),
(510,322,o),
(609,441,o),
(642,561,c),
(433,561,l),
(415,466,o),
(338,372,o),
(252,350,c),
(252,740,l),
(56,740,l),
(56,0,l)
);
}
);
width = 650;
}
);
unicode = 107;
userData = {
com.schriftgestaltung.Glyphs.ColorIndex = 4;
com.typemytype.robofont.guides = (
{
angle = 0;
isGlobal = 0;
magnetic = 5;
x = 86;
y = 740;
}
);
com.typesupply.AccentFactory.yCoordinates = {
bottom = {
name = origin;
type = glyphMetric;
};
top = {
name = ascender;
type = fontInfo;
};
};
};
},
{
color = 4;
glyphname = kcommaaccent;
lastChange = "2024-08-04 21:11:08 +0000";
layers = (
{
layerId = "86171893-955A-4CD1-BD1B-2F7A53CC85DC";
shapes = (
{
closed = 1;
nodes = (
(327,-326,o),
(426,-273,o),
(426,-152,cs),
(426,-94,o),
(384,-38,o),
(324,-38,cs),
(271,-38,o),
(230,-73,o),
(230,-126,cs),
(230,-180,o),
(267,-202,o),
(311,-202,c),
(320,-202,o),
(328,-201,o),
(336,-198,c),
(320,-227,o),
(277,-243,o),
(226,-241,c),
(226,-318,l)
);
},
{
alignment = -1;
ref = k;
}
);
width = 650;
}
);
unicode = 311;
userData = {
com.schriftgestaltung.Glyphs.ColorIndex = 8;
com.typesupply.AccentFactory.compileType = manual;
};
},
{
color = 4;
glyphname = l;
lastChange = "2024-08-04 20:16:56 +0000";
layers = (
{
anchors = (
{
name = bottom;
pos = (154,0);
},
{
name = commaaccent;
pos = (154,10);
},
{
name = top;
pos = (154,740);
},
{
name = topright;
pos = (306,561);
}
);
layerId = "86171893-955A-4CD1-BD1B-2F7A53CC85DC";
shapes = (
{
closed = 1;
nodes = (
(56,43,o),
(155,-7,o),
(249,-7,cs),
(285,-7,o),
(321,0,o),
(350,12,c),
(321,165,l),
(313,162,o),
(305,161,o),
(297,161,cs),
(273,161,o),
(252,174,o),
(252,203,cs),
(252,740,l),
(56,740,l),
(56,196,l)
);
}
);
width = 362;
}
);
unicode = 108;
userData = {
com.schriftgestaltung.Glyphs.ColorIndex = 4;
com.typesupply.AccentFactory.yCoordinates = {
bottom = {
name = origin;
type = glyphMetric;
};
top = {
name = ascender;
type = fontInfo;
};
};
};
},
{
color = 4;
glyphname = lcaron;
lastChange = "2024-07-30 13:50:13 +0000";
layers = (
{
layerId = "86171893-955A-4CD1-BD1B-2F7A53CC85DC";
shapes = (
{
closed = 1;
nodes = (
(405,460,o),
(504,513,o),
(504,634,cs),
(504,692,o),
(462,748,o),
(402,748,cs),
(349,748,o),
(308,713,o),
(308,660,cs),
(308,606,o),
(345,584,o),
(389,584,c),
(398,584,o),
(406,585,o),
(414,588,c),
(398,559,o),
(355,543,o),
(304,545,c),
(304,468,l)
);
},
{
alignment = -1;
ref = l;
}
);
width = 522;
}
);
unicode = 318;
userData = {
com.schriftgestaltung.Glyphs.ColorIndex = 8;
com.typesupply.AccentFactory.compileType = manual;
};
},
{
color = 4;
glyphname = lcommaaccent;
lastChange = "2024-08-04 19:17:52 +0000";
layers = (
{
layerId = "86171893-955A-4CD1-BD1B-2F7A53CC85DC";
shapes = (
{
closed = 1;
nodes = (
(193,-326,o),
(292,-273,o),
(292,-152,cs),
(292,-94,o),
(250,-38,o),
(190,-38,cs),
(137,-38,o),
(96,-73,o),
(96,-126,cs),
(96,-180,o),
(133,-202,o),
(177,-202,c),
(186,-202,o),
(194,-201,o),
(202,-198,c),
(186,-227,o),
(143,-243,o),
(92,-241,c),
(92,-318,l)
);
},
{
alignment = -1;
ref = l;
}
);
width = 406;
}
);
unicode = 316;
userData = {
com.schriftgestaltung.Glyphs.ColorIndex = 8;
com.typesupply.AccentFactory.compileType = manual;
};
},
{
color = 4;
glyphname = ldot;
lastChange = "2024-08-04 18:08:03 +0000";
layers = (
{
layerId = "86171893-955A-4CD1-BD1B-2F7A53CC85DC";
shapes = (
{
closed = 1;
nodes = (
(285,-7,o),
(321,0,o),
(350,12,c),
(321,165,l),
(313,162,o),
(305,161,o),
(297,161,cs),
(273,161,o),
(252,174,o),
(252,203,cs),
(252,740,l),
(56,740,l),
(56,196,ls),
(56,43,o),
(155,-7,o),
(249,-7,cs)
);
},
{
closed = 1;
nodes = (
(403,284,o),
(438,318,o),
(438,363,cs),
(438,409,o),
(403,443,o),
(357,443,cs),
(313,443,o),
(278,409,o),
(278,363,cs),
(278,318,o),
(313,284,o),
(357,284,cs)
);
}
);
width = 409;
}
);
unicode = 320;
userData = {
com.typesupply.AccentFactory.compileType = manual;
};
},
{
color = 4;
glyphname = lslash;
lastChange = "2024-08-04 18:08:26 +0000";
layers = (
{
layerId = "86171893-955A-4CD1-BD1B-2F7A53CC85DC";
shapes = (
{
closed = 1;
nodes = (
(304,-7,o),
(340,0,o),
(369,12,c),
(340,165,l),
(332,162,o),
(324,161,o),
(316,161,cs),
(292,161,o),
(271,174,o),
(271,203,cs),
(271,740,l),
(75,740,l),
(75,196,ls),
(75,43,o),
(174,-7,o),
(268,-7,cs)
);
},
{
closed = 1;
nodes = (
(337,343,l),
(337,513,l),
(10,419,l),
(10,249,l)
);
}
);
width = 380;
}
);
unicode = 322;
userData = {
com.schriftgestaltung.Glyphs.ColorIndex = 4;
};
},
{
color = 4;
glyphname = m;
lastChange = "2024-08-04 18:08:49 +0000";
layers = (
{
layerId = "86171893-955A-4CD1-BD1B-2F7A53CC85DC";
shapes = (
{
closed = 1;
nodes = (
(252,0,l),
(252,293,ls),
(252,357,o),
(290,406,o),
(346,406,cs),
(402,406,o),
(438,367,o),
(438,303,cs),
(438,0,l),
(634,0,l),
(634,293,ls),
(634,357,o),
(671,406,o),
(727,406,cs),
(783,406,o),
(820,367,o),
(820,303,cs),
(820,0,l),
(1016,0,l),
(1016,329,ls),
(1016,475,o),
(940,568,o),
(799,568,cs),
(707,568,o),
(624,517,o),
(602,394,c),
(588,504,o),
(524,568,o),
(425,568,cs),
(347,568,o),
(276,521,o),
(252,440,c),
(252,561,l),
(56,561,l),
(56,0,l)
);
}
);
width = 1067;
}
);
unicode = 109;
userData = {
com.schriftgestaltung.Glyphs.ColorIndex = 4;
com.typemytype.robofont.layerData = {
b = {
anchors = (
);
components = (
);
contours = (
{
points = (
{
segmentType = line;
smooth = 0;
x = 85;
y = 0;
},
{
segmentType = line;
smooth = 0;
x = 105;
y = 0;
},
{
segmentType = line;
smooth = 0;
x = 105;
y = 540;
},
{
segmentType = line;
smooth = 0;
x = 85;
y = 540;
}
);
},
{
points = (
{
segmentType = line;
smooth = 0;
x = 485;
y = 0;
},
{
segmentType = line;
smooth = 0;
x = 504;
y = 0;
},
{
segmentType = line;
smooth = 1;
x = 504;
y = 325;
},
{
smooth = 0;
x = 504;
y = 485;
},
{
smooth = 0;
x = 399;
y = 552;
},
{
segmentType = curve;
smooth = 1;
x = 292;
y = 552;
},
{
smooth = 0;
x = 189;
y = 552;
},
{
smooth = 0;
x = 91;
y = 494;
},
{
segmentType = curve;
smooth = 0;
x = 72;
y = 345;
},
{
segmentType = line;
smooth = 0;
x = 105;
y = 317;
},
{
smooth = 0;
x = 105;
y = 465;
},
{
smooth = 0;
x = 181;
y = 536;
},
{
segmentType = curve;
smooth = 1;
x = 296;
y = 536;
},
{
smooth = 0;
x = 410;
y = 536;
},
{
smooth = 0;
x = 485;
y = 465;
},
{
segmentType = curve;
smooth = 1;
x = 485;
y = 317;
}
);
},
{
points = (
{
segmentType = line;
smooth = 0;
x = 884;
y = 0;
},
{
segmentType = line;
smooth = 0;
x = 903;
y = 0;
},
{
segmentType = line;
smooth = 1;
x = 903;
y = 325;
},
{
smooth = 0;
x = 903;
y = 485;
},
{
smooth = 0;
x = 796;
y = 552;
},
{
segmentType = curve;
smooth = 1;
x = 694;
y = 552;
},
{
smooth = 0;
x = 580;
y = 552;
},
{
smooth = 0;
x = 492;
y = 487;
},
{
segmentType = curve;
smooth = 0;
x = 468;
y = 357;
},
{
segmentType = line;
smooth = 0;
x = 504;
y = 317;
},
{
smooth = 0;
x = 504;
y = 465;
},
{
smooth = 0;
x = 580;
y = 536;
},
{
segmentType = curve;
smooth = 1;
x = 695;
y = 536;
},
{
smooth = 0;
x = 809;
y = 536;
},
{
smooth = 0;
x = 884;
y = 465;
},
{
segmentType = curve;
smooth = 1;
x = 884;
y = 317;
}
);
}
);
lib = {
};
name = m;
unicodes = (
);
width = 1003;
};
};
com.typesupply.AccentFactory.yCoordinates = {
bottom = {
name = origin;
type = glyphMetric;
};
top = {
name = xHeight;
type = fontInfo;
};
};
};
},
{
color = 4;
glyphname = n;
lastChange = "2024-08-04 20:18:09 +0000";
layers = (
{
anchors = (
{
name = bottom;
pos = (343,0);
},
{
name = top;
pos = (343,561);
}
);
layerId = "86171893-955A-4CD1-BD1B-2F7A53CC85DC";
shapes = (
{
closed = 1;
nodes = (
(252,0,l),
(252,293,ls),
(252,357,o),
(286,406,o),
(346,406,cs),
(402,406,o),
(438,367,o),
(438,303,cs),
(438,0,l),
(634,0,l),
(634,329,ls),
(634,475,o),
(553,568,o),
(425,568,cs),
(347,568,o),
(276,521,o),
(252,440,c),
(252,561,l),
(56,561,l),
(56,0,l)
);
}
);
width = 686;
}
);
unicode = 110;
userData = {
com.schriftgestaltung.Glyphs.ColorIndex = 4;
com.typesupply.AccentFactory.yCoordinates = {
bottom = {
name = origin;
type = glyphMetric;
};
top = {
name = xHeight;
type = fontInfo;
};
};
};
},
{
color = 4;
glyphname = ncommaaccent;
lastChange = "2024-06-18 14:45:25 +0000";
layers = (
{
layerId = "86171893-955A-4CD1-BD1B-2F7A53CC85DC";
shapes = (
{
closed = 1;
nodes = (
(343,-326,o),
(442,-273,o),
(442,-152,cs),
(442,-94,o),
(400,-38,o),
(340,-38,cs),
(287,-38,o),
(246,-73,o),
(246,-126,cs),
(246,-180,o),
(283,-202,o),
(327,-202,c),
(336,-202,o),
(344,-201,o),
(352,-198,c),
(336,-227,o),
(293,-243,o),
(242,-241,c),
(242,-318,l)
);
},
{
alignment = -1;
ref = n;
}
);
width = 686;
}
);
unicode = 326;
userData = {
com.schriftgestaltung.Glyphs.ColorIndex = 8;
com.typesupply.AccentFactory.compileType = manual;
};
},
{
color = 4;
glyphname = o;
lastChange = "2024-08-04 21:12:36 +0000";
layers = (
{
anchors = (
{
name = top;
pos = (337,563);
}
);
layerId = "86171893-955A-4CD1-BD1B-2F7A53CC85DC";
shapes = (
{
closed = 1;
nodes = (
(484,-7,o),
(612,102,o),
(612,281,cs),
(612,459,o),
(485,568,o),
(318,568,cs),
(151,568,o),
(24,459,o),
(24,281,cs),
(24,102,o),
(150,-7,o),
(317,-7,cs)
);
},
{
closed = 1;
nodes = (
(266,163,o),
(224,200,o),
(224,281,cs),
(224,361,o),
(268,398,o),
(318,398,cs),
(368,398,o),
(413,361,o),
(413,281,cs),
(413,200,o),
(367,163,o),
(317,163,cs)
);
}
);
width = 636;
}
);
unicode = 111;
userData = {
com.schriftgestaltung.Glyphs.ColorIndex = 4;
com.typesupply.AccentFactory.yCoordinates = {
bottom = {
name = origin;
type = glyphMetric;
};
top = {
name = xHeight;
type = fontInfo;
};
};
};
},
{
color = 4;
glyphname = oslash;
lastChange = "2024-06-18 09:52:37 +0000";
layers = (
{
layerId = "86171893-955A-4CD1-BD1B-2F7A53CC85DC";
shapes = (
{
closed = 1;
nodes = (
(7,0,l),
(104,0,l),
(618,561,l),
(521,561,l)
);
},
{
alignment = -1;
pos = (-6,0);
ref = o;
}
);
width = 625;
}
);
unicode = 248;
userData = {
com.schriftgestaltung.Glyphs.ColorIndex = 4;
};
},
{
color = 4;
glyphname = oe;
lastChange = "2024-08-05 09:37:24 +0000";
layers = (
{
layerId = "86171893-955A-4CD1-BD1B-2F7A53CC85DC";
shapes = (
{
closed = 1;
nodes = (
(484,-7,o),
(612,102,o),
(612,281,cs),
(612,459,o),
(485,568,o),
(318,568,cs),
(151,568,o),
(24,459,o),
(24,281,cs),
(24,102,o),
(150,-7,o),
(317,-7,cs)
);
},
{
closed = 1;
nodes = (
(266,163,o),
(224,200,o),
(224,281,cs),
(224,361,o),
(268,398,o),
(318,398,cs),
(368,398,o),
(413,361,o),
(413,281,cs),
(413,200,o),
(367,163,o),
(317,163,cs)
);
},
{
closed = 1;
nodes = (
(843,-7,o),
(949,31,o),
(1008,107,c),
(888,204,l),
(857,170,o),
(804,136,o),
(743,136,cs),
(686,136,o),
(632,165,o),
(623,200,c),
(635,199,o),
(647,199,o),
(660,199,cs),
(805,199,o),
(981,242,o),
(981,380,cs),
(981,498,o),
(849,568,o),
(724,568,cs),
(562,568,o),
(428,447,o),
(428,276,cs),
(428,90,o),
(585,-7,o),
(739,-7,cs)
);
},
{
closed = 1;
nodes = (
(641,320,o),
(622,321,o),
(613,322,c),
(616,363,o),
(654,425,o),
(723,425,cs),
(757,425,o),
(795,408,o),
(795,380,cs),
(795,331,o),
(718,320,o),
(656,320,cs)
);
}
);
width = 1032;
}
);
unicode = 339;
userData = {
com.schriftgestaltung.Glyphs.ColorIndex = 4;
com.typemytype.robofont.layerData = {
b = {
anchors = (
);
components = (
);
contours = (
{
points = (
{
segmentType = curve;
smooth = 1;
x = 569;
y = 270;
},
{
smooth = 0;
x = 569;
y = 98;
},
{
smooth = 0;
x = 444;
y = -1;
},
{
segmentType = curve;
smooth = 1;
x = 312;
y = -1;
},
{
smooth = 0;
x = 179;
y = -1;
},
{
smooth = 0;
x = 84;
y = 98;
},
{
segmentType = curve;
smooth = 1;
x = 84;
y = 270;
},
{
smooth = 0;
x = 84;
y = 444;
},
{
smooth = 0;
x = 191;
y = 541;
},
{
segmentType = curve;
smooth = 1;
x = 322;
y = 541;
},
{
smooth = 0;
x = 455;
y = 541;
},
{
smooth = 0;
x = 569;
y = 444;
}
);
},
{
points = (
{
segmentType = curve;
smooth = 1;
x = 64;
y = 270;
},
{
smooth = 0;
x = 64;
y = 103;
},
{
smooth = 0;
x = 162;
y = -12;
},
{
segmentType = curve;
smooth = 1;
x = 312;
y = -12;
},
{
smooth = 0;
x = 430;
y = -12;
},
{
smooth = 0;
x = 531;
y = 48;
},
{
segmentType = curve;
smooth = 0;
x = 578;
y = 146;
},
{
smooth = 0;
x = 620;
y = 48;
},
{
smooth = 0;
x = 709;
y = -12;
},
{
segmentType = curve;
smooth = 1;
x = 826;
y = -12;
},
{
smooth = 0;
x = 962;
y = -12;
},
{
smooth = 0;
x = 1026;
y = 66;
},
{
segmentType = curve;
smooth = 0;
x = 1059;
y = 137;
},
{
segmentType = line;
smooth = 0;
x = 1039;
y = 137;
},
{
smooth = 0;
x = 1015;
y = 60;
},
{
smooth = 0;
x = 934;
y = -1;
},
{
segmentType = curve;
smooth = 1;
x = 826;
y = -1;
},
{
smooth = 0;
x = 697;
y = -1;
},
{
smooth = 0;
x = 592;
y = 93;
},
{
segmentType = curve;
smooth = 1;
x = 592;
y = 269;
},
{
segmentType = line;
smooth = 1;
x = 592;
y = 274;
},
{
smooth = 0;
x = 592;
y = 447;
},
{
smooth = 0;
x = 694;
y = 541;
},
{
segmentType = curve;
smooth = 1;
x = 827;
y = 541;
},
{
smooth = 0;
x = 958;
y = 541;
},
{
smooth = 0;
x = 1062;
y = 448;
},
{
segmentType = curve;
smooth = 0;
x = 1059;
y = 290;
},
{
segmentType = line;
smooth = 0;
x = 570;
y = 290;
},
{
segmentType = line;
smooth = 0;
x = 571;
y = 261;
},
{
segmentType = line;
smooth = 0;
x = 1074;
y = 261;
},
{
smooth = 0;
x = 1077;
y = 280;
},
{
smooth = 0;
x = 1078;
y = 298;
},
{
segmentType = curve;
smooth = 1;
x = 1078;
y = 315;
},
{
smooth = 0;
x = 1078;
y = 434;
},
{
smooth = 0;
x = 993;
y = 552;
},
{
segmentType = curve;
smooth = 1;
x = 840;
y = 552;
},
{
smooth = 0;
x = 715;
y = 552;
},
{
smooth = 0;
x = 623;
y = 495;
},
{
segmentType = curve;
smooth = 0;
x = 582;
y = 400;
},
{
smooth = 0;
x = 537;
y = 495;
},
{
smooth = 0;
x = 442;
y = 552;
},
{
segmentType = curve;
smooth = 1;
x = 328;
y = 552;
},
{
smooth = 0;
x = 177;
y = 552;
},
{
smooth = 0;
x = 64;
y = 438;
}
);
}
);
lib = {
};
name = oe;
unicodes = (
);
width = 1135;
};
};
com.typesupply.AccentFactory.yCoordinates = {
bottom = {
name = origin;
type = glyphMetric;
};
top = {
name = xHeight;
type = fontInfo;
};
};
};
},
{
color = 4;
glyphname = p;
lastChange = "2024-08-04 21:13:32 +0000";
layers = (
{
layerId = "86171893-955A-4CD1-BD1B-2F7A53CC85DC";
shapes = (
{
closed = 1;
nodes = (
(571,-7,o),
(655,124,o),
(655,280,c),
(655,436,o),
(571,568,o),
(423,568,c),
(341,568,o),
(276,519,o),
(252,435,c),
(252,561,l),
(56,561,l),
(56,-267,l),
(252,-267,l),
(252,125,l),
(276,41,o),
(341,-7,o),
(423,-7,c)
);
},
{
closed = 1;
nodes = (
(296,165,o),
(252,208,o),
(252,280,c),
(252,352,o),
(296,397,o),
(354,397,c),
(412,397,o),
(455,352,o),
(455,280,c),
(455,208,o),
(412,165,o),
(354,165,c)
);
}
);
width = 680;
}
);
unicode = 112;
userData = {
com.schriftgestaltung.Glyphs.ColorIndex = 4;
com.typemytype.robofont.guides = (
{
angle = 0;
isGlobal = 0;
magnetic = 5;
x = -74;
y = -254;
}
);
com.typesupply.AccentFactory.yCoordinates = {
top = {
name = xHeight;
type = fontInfo;
};
};
};
},
{
color = 4;
glyphname = thorn;
lastChange = "2024-08-04 18:10:58 +0000";
layers = (
{
layerId = "86171893-955A-4CD1-BD1B-2F7A53CC85DC";
shapes = (
{
closed = 1;
nodes = (
(252,500,c),
(252,740,l),
(56,740,l),
(56,-267,l),
(252,-267,l),
(252,72,l),
(290,21,o),
(337,-7,o),
(404,-7,cs),
(541,-7,o),
(655,109,o),
(655,279,cs),
(655,449,o),
(541,568,o),
(404,568,cs),
(337,568,o),
(289,545,o)
);
},
{
closed = 1;
nodes = (
(456,279,cs),
(456,196,o),
(400,164,o),
(354,164,cs),
(308,164,o),
(252,198,o),
(252,281,cs),
(252,363,o),
(308,398,o),
(354,398,cs),
(400,398,o),
(456,362,o)
);
}
);
width = 680;
}
);
unicode = 254;
userData = {
com.schriftgestaltung.Glyphs.ColorIndex = 4;
};
},
{
color = 4;
glyphname = q;
lastChange = "2024-08-04 18:11:12 +0000";
layers = (
{
anchors = (
{
name = bottom;
pos = (340,0);
},
{
name = top;
pos = (340,561);
}
);
layerId = "86171893-955A-4CD1-BD1B-2F7A53CC85DC";
shapes = (
{
closed = 1;
nodes = (
(623,-267,l),
(623,561,l),
(427,561,l),
(427,435,l),
(403,519,o),
(338,568,o),
(256,568,cs),
(108,568,o),
(24,436,o),
(24,280,cs),
(24,124,o),
(108,-7,o),
(256,-7,cs),
(338,-7,o),
(403,41,o),
(427,125,c),
(427,-267,l)
);
},
{
closed = 1;
nodes = (
(267,165,o),
(224,208,o),
(224,280,cs),
(224,352,o),
(267,397,o),
(325,397,cs),
(383,397,o),
(427,352,o),
(427,280,cs),
(427,208,o),
(383,165,o),
(325,165,cs)
);
}
);
width = 679;
}
);
unicode = 113;
userData = {
com.schriftgestaltung.Glyphs.ColorIndex = 4;
com.typesupply.AccentFactory.yCoordinates = {
top = {
name = xHeight;
type = fontInfo;
};
};
};
},
{
color = 4;
glyphname = r;
lastChange = "2024-08-04 21:14:00 +0000";
layers = (
{
anchors = (
{
name = bottom;
pos = (150,0);
},
{
name = top;
pos = (267,561);
}
);
layerId = "86171893-955A-4CD1-BD1B-2F7A53CC85DC";
shapes = (
{
closed = 1;
nodes = (
(252,0,l),
(252,221,ls),
(252,312,o),
(318,365,o),
(389,365,cs),
(403,365,o),
(418,364,o),
(434,360,c),
(434,566,l),
(334,566,o),
(274,511,o),
(252,420,c),
(252,561,l),
(56,561,l),
(56,0,l)
);
}
);
width = 448;
}
);
unicode = 114;
userData = {
com.schriftgestaltung.Glyphs.ColorIndex = 4;
com.typesupply.AccentFactory.yCoordinates = {
bottom = {
name = origin;
type = glyphMetric;
};
top = {
name = xHeight;
type = fontInfo;
};
};
};
},
{
color = 4;
glyphname = rcommaaccent;
lastChange = "2024-07-30 13:51:37 +0000";
layers = (
{
layerId = "86171893-955A-4CD1-BD1B-2F7A53CC85DC";
shapes = (
{
closed = 1;
nodes = (
(161,-326,o),
(260,-273,o),
(260,-152,cs),
(260,-94,o),
(218,-38,o),
(158,-38,cs),
(105,-38,o),
(64,-73,o),
(64,-126,cs),
(64,-180,o),
(101,-202,o),
(145,-202,c),
(154,-202,o),
(162,-201,o),
(170,-198,c),
(154,-227,o),
(111,-243,o),
(60,-241,c),
(60,-318,l)
);
},
{
alignment = -1;
ref = r;
}
);
width = 448;
}
);
unicode = 343;
userData = {
com.schriftgestaltung.Glyphs.ColorIndex = 8;
com.typesupply.AccentFactory.compileType = manual;
};
},
{
color = 4;
glyphname = s;
lastChange = "2024-08-05 08:13:16 +0000";
layers = (
{
anchors = (
{
name = bottom;
pos = (301,0);
},
{
name = top;
pos = (301,563);
}
);
layerId = "86171893-955A-4CD1-BD1B-2F7A53CC85DC";
shapes = (
{
closed = 1;
nodes = (
(425,-7,o),
(518,61,o),
(518,162,cs),
(518,375,o),
(217,312,o),
(217,392,cs),
(217,413,o),
(234,428,o),
(266,428,cs),
(308,428,o),
(333,406,o),
(340,370,c),
(508,415,l),
(480,507,o),
(398,568,o),
(270,568,cs),
(118,568,o),
(36,485,o),
(36,387,cs),
(36,181,o),
(336,251,o),
(336,169,cs),
(336,149,o),
(316,132,o),
(283,132,cs),
(242,132,o),
(214,153,o),
(206,186,c),
(27,145,l),
(60,50,o),
(157,-7,o),
(284,-7,cs)
);
}
);
width = 545;
}
);
unicode = 115;
userData = {
com.schriftgestaltung.Glyphs.ColorIndex = 4;
com.typesupply.AccentFactory.yCoordinates = {
bottom = {
name = origin;
type = glyphMetric;
};
top = {
name = xHeight;
type = fontInfo;
};
};
};
},
{
color = 4;
glyphname = scedilla;
lastChange = "2024-08-04 21:41:31 +0000";
layers = (
{
anchors = (
{
name = bottom;
pos = (301,0);
},
{
name = top;
pos = (301,563);
}
);
layerId = "86171893-955A-4CD1-BD1B-2F7A53CC85DC";
shapes = (
{
closed = 1;
nodes = (
(425,-7,o),
(518,61,o),
(518,162,cs),
(518,375,o),
(217,312,o),
(217,392,cs),
(217,413,o),
(234,426,o),
(266,426,cs),
(308,426,o),
(333,406,o),
(340,370,c),
(508,415,l),
(480,507,o),
(398,568,o),
(270,568,cs),
(118,568,o),
(36,485,o),
(36,387,cs),
(36,181,o),
(336,247,o),
(336,165,cs),
(336,145,o),
(316,128,o),
(283,128,cs),
(242,128,o),
(213,151,o),
(206,186,c),
(27,145,l),
(60,50,o),
(157,-7,o),
(284,-7,cs)
);
},
{
closed = 1;
nodes = (
(347,2,l),
(231,2,l),
(231,-129,l),
(309,-129,ls),
(330,-129,o),
(342,-135,o),
(342,-150,cs),
(342,-164,o),
(330,-171,o),
(309,-171,cs),
(169,-171,l),
(169,-274,l),
(332,-274,ls),
(400,-274,o),
(477,-244,o),
(477,-155,cs),
(477,-66,o),
(401,-37,o),
(347,-37,c)
);
}
);
width = 545;
}
);
unicode = 351;
userData = {
com.schriftgestaltung.Glyphs.ColorIndex = 8;
};
},
{
color = 4;
glyphname = scommaaccent;
lastChange = "2024-08-04 21:14:43 +0000";
layers = (
{
layerId = "86171893-955A-4CD1-BD1B-2F7A53CC85DC";
shapes = (
{
closed = 1;
nodes = (
(289,-326,o),
(388,-273,o),
(388,-152,cs),
(388,-94,o),
(346,-38,o),
(286,-38,cs),
(233,-38,o),
(192,-73,o),
(192,-126,cs),
(192,-180,o),
(229,-202,o),
(273,-202,c),
(282,-202,o),
(290,-201,o),
(298,-198,c),
(282,-227,o),
(239,-243,o),
(188,-241,c),
(188,-318,l)
);
},
{
alignment = -1;
ref = s;
}
);
width = 545;
}
);
unicode = 537;
userData = {
com.schriftgestaltung.Glyphs.ColorIndex = 8;
com.typesupply.AccentFactory.compileType = manual;
};
},
{
color = 4;
glyphname = germandbls;
lastChange = "2024-07-29 15:51:46 +0000";
layers = (
{
layerId = "86171893-955A-4CD1-BD1B-2F7A53CC85DC";
shapes = (
{
closed = 1;
nodes = (
(46,0,l),
(241,0,l),
(241,510,ls),
(241,567,o),
(274,603,o),
(335,603,cs),
(383,603,o),
(416,581,o),
(416,545,cs),
(416,490,o),
(316,441,o),
(316,362,cs),
(316,302,o),
(361,268,o),
(476,226,cs),
(543,201,o),
(556,187,o),
(556,164,cs),
(556,141,o),
(539,128,o),
(513,128,cs),
(480,128,o),
(455,151,o),
(449,184,c),
(273,184,l),
(294,59,o),
(379,-10,o),
(517,-10,cs),
(651,-10,o),
(741,63,o),
(741,173,cs),
(741,254,o),
(700,300,o),
(597,340,cs),
(521,370,o),
(511,380,o),
(511,396,cs),
(511,431,o),
(610,477,o),
(610,579,cs),
(610,682,o),
(502,765,o),
(346,765,cs),
(169,765,o),
(46,671,o),
(46,522,cs)
);
}
);
width = 788;
}
);
unicode = 223;
userData = {
com.schriftgestaltung.Glyphs.ColorIndex = 4;
};
},
{
color = 4;
glyphname = t;
lastChange = "2024-08-04 20:21:45 +0000";
layers = (
{
anchors = (
{
name = bottom;
pos = (218,0);
},
{
name = topright;
pos = (264,915);
}
);
layerId = "86171893-955A-4CD1-BD1B-2F7A53CC85DC";
shapes = (
{
closed = 1;
nodes = (
(358,-7,o),
(392,3,o),
(422,13,c),
(389,163,l),
(379,160,o),
(370,158,o),
(361,158,cs),
(329,158,o),
(305,179,o),
(305,209,cs),
(305,402,l),
(404,402,l),
(404,561,l),
(237,561,l),
(283,568,o),
(305,614,o),
(305,644,c),
(305,697,l),
(116,697,l),
(116,614,l),
(116,583,o),
(93,561,o),
(63,561,c),
(18,561,l),
(18,402,l),
(108,402,l),
(108,209,ls),
(108,65,o),
(177,-7,o),
(320,-7,c)
);
}
);
width = 456;
}
);
unicode = 116;
userData = {
com.schriftgestaltung.Glyphs.ColorIndex = 4;
com.typesupply.AccentFactory.yCoordinates = {
bottom = {
name = origin;
type = glyphMetric;
};
};
};
},
{
color = 4;
glyphname = tcaron;
lastChange = "2024-07-30 13:52:16 +0000";
layers = (
{
layerId = "86171893-955A-4CD1-BD1B-2F7A53CC85DC";
shapes = (
{
closed = 1;
nodes = (
(441,590,o),
(540,643,o),
(540,764,cs),
(540,822,o),
(498,878,o),
(438,878,cs),
(385,878,o),
(344,843,o),
(344,790,cs),
(344,736,o),
(381,714,o),
(425,714,c),
(434,714,o),
(442,715,o),
(450,718,c),
(434,689,o),
(391,673,o),
(340,675,c),
(340,598,l)
);
},
{
alignment = -1;
ref = t;
}
);
width = 471;
}
);
unicode = 357;
userData = {
com.schriftgestaltung.Glyphs.ColorIndex = 5;
com.typesupply.AccentFactory.compileType = manual;
};
},
{
color = 4;
glyphname = tcedilla;
lastChange = "2024-08-04 18:13:36 +0000";
layers = (
{
layerId = "86171893-955A-4CD1-BD1B-2F7A53CC85DC";
shapes = (
{
closed = 1;
nodes = (
(358,-7,o),
(392,3,o),
(422,13,c),
(389,163,l),
(379,160,o),
(370,158,o),
(361,158,cs),
(329,158,o),
(305,179,o),
(305,209,cs),
(305,402,l),
(404,402,l),
(404,561,l),
(237,561,l),
(283,568,o),
(305,614,o),
(305,644,c),
(305,697,l),
(116,697,l),
(116,614,l),
(116,583,o),
(93,561,o),
(63,561,c),
(18,561,l),
(18,402,l),
(108,402,l),
(108,209,ls),
(108,65,o),
(177,-7,o),
(320,-7,c)
);
},
{
closed = 1;
nodes = (
(298,-269,ls),
(366,-269,o),
(442,-239,o),
(442,-150,cs),
(442,-61,o),
(366,-32,o),
(312,-32,c),
(312,96,l),
(197,96,l),
(197,-124,l),
(275,-124,ls),
(295,-124,o),
(308,-130,o),
(308,-145,cs),
(308,-159,o),
(295,-166,o),
(275,-166,cs),
(134,-166,l),
(134,-269,l)
);
}
);
width = 441;
}
);
unicode = 355;
userData = {
com.schriftgestaltung.Glyphs.ColorIndex = 8;
};
},
{
color = 4;
glyphname = tcommaaccent;
lastChange = "2024-08-04 21:15:36 +0000";
layers = (
{
layerId = "86171893-955A-4CD1-BD1B-2F7A53CC85DC";
shapes = (
{
closed = 1;
nodes = (
(252,-326,o),
(351,-273,o),
(351,-152,cs),
(351,-94,o),
(309,-38,o),
(249,-38,cs),
(196,-38,o),
(155,-73,o),
(155,-126,cs),
(155,-180,o),
(192,-202,o),
(236,-202,c),
(245,-202,o),
(253,-201,o),
(261,-198,c),
(245,-227,o),
(202,-243,o),
(151,-241,c),
(151,-318,l)
);
},
{
alignment = -1;
ref = t;
}
);
width = 456;
}
);
unicode = 539;
userData = {
com.schriftgestaltung.Glyphs.ColorIndex = 8;
com.typesupply.AccentFactory.compileType = manual;
};
},
{
color = 4;
glyphname = u;
lastChange = "2024-08-04 18:13:53 +0000";
layers = (
{
anchors = (
{
name = ogonek;
pos = (630,-3);
},
{
name = top;
pos = (343,561);
}
);
layerId = "86171893-955A-4CD1-BD1B-2F7A53CC85DC";
shapes = (
{
closed = 1;
nodes = (
(350,-7,o),
(413,42,o),
(433,124,c),
(433,96,ls),
(433,34,o),
(467,0,o),
(529,0,cs),
(630,0,l),
(630,561,l),
(433,561,l),
(433,271,ls),
(433,206,o),
(399,158,o),
(340,158,cs),
(284,158,o),
(247,196,o),
(247,261,cs),
(247,561,l),
(52,561,l),
(52,236,ls),
(52,96,o),
(124,-7,o),
(264,-7,cs)
);
}
);
width = 686;
}
);
unicode = 117;
userData = {
com.schriftgestaltung.Glyphs.ColorIndex = 4;
com.typesupply.AccentFactory.yCoordinates = {
bottom = {
name = origin;
type = glyphMetric;
};
top = {
name = xHeight;
type = fontInfo;
};
};
};
},
{
color = 4;
glyphname = uogonek;
lastChange = "2024-08-04 21:42:31 +0000";
layers = (
{
anchors = (
{
name = ogonek;
pos = (630,-3);
},
{
name = top;
pos = (343,561);
}
);
layerId = "86171893-955A-4CD1-BD1B-2F7A53CC85DC";
shapes = (
{
closed = 1;
nodes = (
(350,-7,o),
(413,42,o),
(433,124,c),
(433,96,ls),
(433,34,o),
(467,0,o),
(529,0,cs),
(630,0,l),
(630,561,l),
(433,561,l),
(433,271,ls),
(433,206,o),
(399,158,o),
(340,158,cs),
(284,158,o),
(247,196,o),
(247,261,cs),
(247,561,l),
(52,561,l),
(52,236,ls),
(52,96,o),
(124,-7,o),
(264,-7,cs)
);
},
{
closed = 1;
nodes = (
(553,70,ls),
(412,11,o),
(374,-41,o),
(374,-103,cs),
(374,-178,o),
(436,-220,o),
(529,-220,cs),
(567,-220,o),
(603,-214,o),
(634,-204,c),
(634,-99,l),
(603,-109,o),
(576,-114,o),
(553,-114,cs),
(529,-114,o),
(514,-103,o),
(514,-87,cs),
(514,-66,o),
(534,-48,o),
(586,-22,cs),
(630,0,l),
(591,86,l)
);
}
);
width = 686;
}
);
unicode = 371;
userData = {
com.schriftgestaltung.Glyphs.ColorIndex = 8;
com.typesupply.AccentFactory.compileType = manual;
};
},
{
color = 4;
glyphname = v;
lastChange = "2024-08-05 08:08:06 +0000";
layers = (
{
layerId = "86171893-955A-4CD1-BD1B-2F7A53CC85DC";
shapes = (
{
closed = 1;
nodes = (
(9,561,l),
(202,0,l),
(446,0,l),
(639,561,l),
(430,561,l),
(325,185,l),
(218,561,l)
);
}
);
width = 649;
}
);
unicode = 118;
userData = {
com.schriftgestaltung.Glyphs.ColorIndex = 4;
com.typesupply.AccentFactory.yCoordinates = {
bottom = {
name = origin;
type = glyphMetric;
};
top = {
name = xHeight;
type = fontInfo;
};
};
};
},
{
color = 4;
glyphname = w;
lastChange = "2024-06-18 11:14:40 +0000";
layers = (
{
layerId = "86171893-955A-4CD1-BD1B-2F7A53CC85DC";
shapes = (
{
closed = 1;
nodes = (
(144,0,l),
(363,0,l),
(465,428,l),
(424,428,l),
(522,0,l),
(742,0,l),
(885,561,l),
(701,561,l),
(618,64,l),
(667,64,l),
(553,561,l),
(343,561,l),
(232,64,l),
(281,64,l),
(197,561,l),
(2,561,l)
);
}
);
width = 885;
}
);
unicode = 119;
userData = {
com.schriftgestaltung.Glyphs.ColorIndex = 4;
com.typemytype.robofont.layerData = {
b = {
anchors = (
);
components = (
);
contours = (
{
points = (
{
segmentType = line;
smooth = 0;
x = 211;
y = 0;
},
{
segmentType = line;
smooth = 0;
x = 225;
y = 0;
},
{
segmentType = line;
smooth = 0;
x = 405;
y = 569;
},
{
segmentType = line;
smooth = 0;
x = 373;
y = 569;
},
{
segmentType = line;
smooth = 0;
x = 555;
y = 0;
},
{
segmentType = line;
smooth = 0;
x = 569;
y = 0;
},
{
segmentType = line;
smooth = 0;
x = 747;
y = 540;
},
{
segmentType = line;
smooth = 0;
x = 716;
y = 540;
},
{
segmentType = line;
smooth = 0;
x = 552;
y = 32;
},
{
segmentType = line;
smooth = 0;
x = 560;
y = 32;
},
{
segmentType = line;
smooth = 0;
x = 401;
y = 540;
},
{
segmentType = line;
smooth = 0;
x = 386;
y = 540;
},
{
segmentType = line;
smooth = 0;
x = 214;
y = 32;
},
{
segmentType = line;
smooth = 0;
x = 222;
y = 32;
},
{
segmentType = line;
smooth = 0;
x = 56;
y = 540;
},
{
segmentType = line;
smooth = 0;
x = 30;
y = 540;
}
);
}
);
lib = {
};
name = w;
unicodes = (
);
width = 803;
};
};
com.typesupply.AccentFactory.yCoordinates = {
bottom = {
name = origin;
type = glyphMetric;
};
top = {
name = xHeight;
type = fontInfo;
};
};
};
},
{
color = 4;
glyphname = x;
lastChange = "2024-06-18 11:14:40 +0000";
layers = (
{
layerId = "86171893-955A-4CD1-BD1B-2F7A53CC85DC";
shapes = (
{
closed = 1;
nodes = (
(406,0,l),
(626,0,l),
(222,561,l),
(2,561,l)
);
},
{
closed = 1;
nodes = (
(241,360,l),
(10,0,l),
(225,0,l),
(347,216,l)
);
},
{
closed = 1;
nodes = (
(388,216,l),
(619,561,l),
(404,561,l),
(289,361,l)
);
}
);
width = 628;
}
);
unicode = 120;
userData = {
com.schriftgestaltung.Glyphs.ColorIndex = 4;
com.typesupply.AccentFactory.yCoordinates = {
bottom = {
name = origin;
type = glyphMetric;
};
top = {
name = xHeight;
type = fontInfo;
};
};
};
},
{
color = 4;
glyphname = y;
lastChange = "2024-08-04 21:17:19 +0000";
layers = (
{
anchors = (
{
name = top;
pos = (324,561);
}
);
layerId = "86171893-955A-4CD1-BD1B-2F7A53CC85DC";
shapes = (
{
closed = 1;
nodes = (
(531,-274,o),
(613,-118,o),
(613,32,cs),
(613,561,l),
(418,561,l),
(418,282,ls),
(418,217,o),
(385,169,o),
(326,169,cs),
(270,169,o),
(234,207,o),
(234,272,cs),
(234,561,l),
(41,561,l),
(41,250,ls),
(41,104,o),
(130,4,o),
(260,4,cs),
(345,4,o),
(402,59,o),
(418,135,c),
(418,32,ls),
(418,-48,o),
(382,-104,o),
(302,-104,cs),
(245,-104,o),
(206,-70,o),
(188,-30,c),
(20,-86,l),
(57,-207,o),
(176,-274,o),
(311,-274,cs)
);
}
);
width = 668;
}
);
unicode = 121;
userData = {
com.schriftgestaltung.Glyphs.ColorIndex = 4;
com.typesupply.AccentFactory.yCoordinates = {
top = {
name = xHeight;
type = fontInfo;
};
};
};
},
{
color = 4;
glyphname = z;
lastChange = "2024-06-18 11:14:46 +0000";
layers = (
{
anchors = (
{
name = top;
pos = (259,561);
}
);
layerId = "86171893-955A-4CD1-BD1B-2F7A53CC85DC";
shapes = (
{
closed = 1;
nodes = (
(473,561,l),
(28,561,l),
(28,398,l),
(249,398,l),
(26,155,l),
(26,0,l),
(481,0,l),
(481,163,l),
(242,163,l),
(473,406,l)
);
}
);
width = 507;
}
);
unicode = 122;
userData = {
com.schriftgestaltung.Glyphs.ColorIndex = 4;
com.typesupply.AccentFactory.yCoordinates = {
bottom = {
name = origin;
type = glyphMetric;
};
top = {
name = xHeight;
type = fontInfo;
};
};
};
},
{
color = 4;
glyphname = fi;
lastChange = "2024-08-05 09:16:59 +0000";
layers = (
{
layerId = "86171893-955A-4CD1-BD1B-2F7A53CC85DC";
shapes = (
{
closed = 1;
nodes = (
(290,0,l),
(290,398,l),
(441,398,l),
(441,0,l),
(638,0,l),
(638,561,l),
(290,561,l),
(290,570,ls),
(290,628,o),
(354,624,o),
(376,622,c),
(376,788,l),
(249,799,o),
(93,754,o),
(93,566,cs),
(93,561,l),
(32,561,l),
(32,398,l),
(93,398,l),
(93,0,l)
);
},
{
closed = 1;
nodes = (
(609,597,o),
(654,638,o),
(654,695,cs),
(654,751,o),
(609,792,o),
(540,792,cs),
(470,792,o),
(425,751,o),
(425,695,cs),
(425,638,o),
(470,597,o),
(540,597,cs)
);
}
);
width = 713;
}
);
unicode = 64257;
userData = {
com.schriftgestaltung.Glyphs.ColorIndex = 4;
};
},
{
color = 4;
glyphname = fl;
lastChange = "2024-08-05 09:22:04 +0000";
layers = (
{
layerId = "86171893-955A-4CD1-BD1B-2F7A53CC85DC";
shapes = (
{
closed = 1;
nodes = (
(271,0,l),
(271,398,l),
(359,398,l),
(359,561,l),
(271,561,l),
(271,570,ls),
(271,628,o),
(335,624,o),
(357,622,c),
(357,788,l),
(230,799,o),
(74,754,o),
(74,566,cs),
(74,561,l),
(13,561,l),
(13,398,l),
(74,398,l),
(74,0,l)
);
},
{
closed = 1;
nodes = (
(658,-7,o),
(694,0,o),
(723,12,c),
(694,165,l),
(686,162,o),
(678,161,o),
(670,161,cs),
(646,161,o),
(625,174,o),
(625,203,cs),
(625,740,l),
(429,740,l),
(429,196,ls),
(429,43,o),
(528,-7,o),
(622,-7,cs)
);
}
);
width = 735;
}
);
unicode = 64258;
userData = {
com.schriftgestaltung.Glyphs.ColorIndex = 4;
};
},
{
color = 4;
glyphname = ordfeminine;
lastChange = "2024-08-04 18:20:50 +0000";
layers = (
{
layerId = "86171893-955A-4CD1-BD1B-2F7A53CC85DC";
shapes = (
{
closed = 1;
nodes = (
(23,415,o),
(96,349,o),
(190,349,cs),
(246,349,o),
(291,371,o),
(304,425,c),
(304,403,l),
(304,371,o),
(320,355,o),
(352,355,c),
(450,355,l),
(450,707,l),
(304,707,l),
(304,636,l),
(291,674,o),
(244,711,o),
(188,711,cs),
(95,711,o),
(23,645,o),
(23,530,cs)
);
},
{
closed = 1;
nodes = (
(173,572,o),
(204,596,o),
(239,596,cs),
(273,596,o),
(304,573,o),
(304,531,cs),
(304,488,o),
(273,466,o),
(239,466,cs),
(204,466,o),
(173,486,o),
(173,529,cs)
);
}
);
width = 475;
}
);
unicode = 170;
userData = {
com.schriftgestaltung.Glyphs.ColorIndex = 4;
};
},
{
color = 4;
glyphname = ordmasculine;
lastChange = "2024-06-18 16:32:49 +0000";
layers = (
{
layerId = "86171893-955A-4CD1-BD1B-2F7A53CC85DC";
shapes = (
{
closed = 1;
nodes = (
(23,529,cs),
(23,425,o),
(104,347,o),
(231,347,cs),
(359,347,o),
(441,425,o),
(441,529,cs),
(441,634,o),
(360,709,o),
(232,709,cs),
(104,709,o),
(23,634,o)
);
},
{
closed = 1;
nodes = (
(292,529,cs),
(292,482,o),
(264,460,o),
(231,460,cs),
(199,460,o),
(172,482,o),
(172,529,cs),
(172,575,o),
(199,597,o),
(232,597,cs),
(264,597,o),
(292,575,o)
);
}
);
width = 464;
}
);
unicode = 186;
userData = {
com.schriftgestaltung.Glyphs.ColorIndex = 4;
};
},
{
color = 4;
glyphname = pi;
lastChange = "2024-06-18 16:32:49 +0000";
layers = (
{
layerId = "86171893-955A-4CD1-BD1B-2F7A53CC85DC";
shapes = (
{
closed = 1;
nodes = (
(15,413,l),
(83,413,l),
(83,0,l),
(279,0,l),
(279,413,l),
(431,413,l),
(431,0,l),
(627,0,l),
(627,413,l),
(695,413,l),
(695,561,l),
(15,561,l)
);
}
);
width = 708;
}
);
unicode = 960;
userData = {
com.schriftgestaltung.Glyphs.ColorIndex = 8;
};
},
{
color = 4;
glyphname = zero;
lastChange = "2024-08-04 18:21:55 +0000";
layers = (
{
layerId = "86171893-955A-4CD1-BD1B-2F7A53CC85DC";
shapes = (
{
closed = 1;
nodes = (
(525,-7,o),
(620,152,o),
(620,370,cs),
(620,588,o),
(525,742,o),
(329,742,cs),
(133,742,o),
(39,588,o),
(39,370,cs),
(39,152,o),
(133,-7,o),
(329,-7,cs)
);
},
{
closed = 1;
nodes = (
(256,178,o),
(232,268,o),
(232,370,cs),
(232,472,o),
(256,557,o),
(329,557,cs),
(402,557,o),
(426,472,o),
(426,370,cs),
(426,268,o),
(402,178,o),
(329,178,cs)
);
}
);
width = 657;
}
);
unicode = 48;
userData = {
com.schriftgestaltung.Glyphs.ColorIndex = 3;
};
},
{
color = 4;
glyphname = one;
lastChange = "2024-08-04 21:20:33 +0000";
layers = (
{
layerId = "86171893-955A-4CD1-BD1B-2F7A53CC85DC";
shapes = (
{
closed = 1;
nodes = (
(510,0,l),
(510,156,l),
(360,156,l),
(360,730,l),
(200,730,l),
(175,651,o),
(100,603,o),
(16,603,c),
(16,427,l),
(82,430,o),
(147,461,o),
(174,507,c),
(174,156,l),
(16,156,l),
(16,0,l)
);
}
);
width = 526;
}
);
unicode = 49;
userData = {
com.schriftgestaltung.Glyphs.ColorIndex = 3;
};
},
{
color = 4;
glyphname = two;
lastChange = "2024-08-04 12:39:12 +0000";
layers = (
{
layerId = "86171893-955A-4CD1-BD1B-2F7A53CC85DC";
shapes = (
{
closed = 1;
nodes = (
(543,0,l),
(543,156,l),
(295,156,l),
(434,257,o),
(543,380,o),
(543,519,cs),
(543,651,o),
(450,742,o),
(287,742,cs),
(143,742,o),
(58,656,o),
(35,513,c),
(202,474,l),
(207,504,o),
(224,573,o),
(279,573,cs),
(310,573,o),
(341,550,o),
(341,504,cs),
(341,434,o),
(276,353,o),
(194,278,cs),
(148,236,o),
(101,195,o),
(31,148,c),
(31,0,l)
);
}
);
width = 569;
}
);
unicode = 50;
userData = {
com.schriftgestaltung.Glyphs.ColorIndex = 3;
};
},
{
color = 4;
glyphname = three;
lastChange = "2024-08-04 21:21:03 +0000";
layers = (
{
layerId = "86171893-955A-4CD1-BD1B-2F7A53CC85DC";
shapes = (
{
closed = 1;
nodes = (
(470,-7,o),
(570,77,o),
(570,202,cs),
(570,287,o),
(531,350,o),
(446,381,c),
(446,381,l),
(509,404,o),
(554,453,o),
(554,543,cs),
(554,660,o),
(469,742,o),
(314,742,cs),
(166,742,o),
(80,680,o),
(58,548,c),
(241,510,l),
(245,534,o),
(258,582,o),
(309,582,cs),
(345,582,o),
(368,561,o),
(368,522,cs),
(368,475,o),
(322,451,o),
(275,451,cs),
(224,451,l),
(224,296,l),
(290,296,ls),
(349,296,o),
(376,259,o),
(376,226,cs),
(376,187,o),
(355,155,o),
(308,155,cs),
(247,155,o),
(232,198,o),
(226,233,c),
(40,202,l),
(56,55,o),
(159,-7,o),
(315,-7,cs)
);
}
);
width = 623;
}
);
unicode = 51;
userData = {
com.schriftgestaltung.Glyphs.ColorIndex = 3;
};
},
{
color = 4;
glyphname = four;
lastChange = "2024-08-03 18:27:19 +0000";
layers = (
{
layerId = "86171893-955A-4CD1-BD1B-2F7A53CC85DC";
shapes = (
{
closed = 1;
nodes = (
(573,0,l),
(573,129,l),
(650,129,l),
(650,299,l),
(573,299,l),
(573,730,l),
(358,730,l),
(51,291,l),
(51,129,l),
(375,129,l),
(375,0,l)
);
},
{
closed = 1;
nodes = (
(390,509,l),
(390,299,l),
(252,299,l)
);
}
);
width = 691;
}
);
unicode = 52;
userData = {
com.schriftgestaltung.Glyphs.ColorIndex = 3;
};
},
{
color = 4;
glyphname = five;
lastChange = "2024-08-04 20:30:59 +0000";
layers = (
{
layerId = "86171893-955A-4CD1-BD1B-2F7A53CC85DC";
shapes = (
{
closed = 1;
nodes = (
(520,-7,o),
(620,100,o),
(620,239,c),
(620,385,o),
(534,487,o),
(420,487,cs),
(355,487,o),
(302,454,o),
(281,407,c),
(281,562,l),
(581,562,l),
(581,730,l),
(97,730,l),
(97,327,l),
(289,279,l),
(300,311,o),
(328,333,o),
(356,333,cs),
(396,333,o),
(435,299,o),
(435,243,c),
(435,185,o),
(402,152,o),
(358,152,cs),
(319,152,o),
(289,182,o),
(281,221,c),
(89,190,l),
(112,67,o),
(212,-7,o),
(366,-7,c)
);
}
);
width = 664;
}
);
unicode = 53;
userData = {
com.schriftgestaltung.Glyphs.ColorIndex = 3;
};
},
{
color = 4;
glyphname = six;
lastChange = "2024-08-04 18:24:20 +0000";
layers = (
{
layerId = "86171893-955A-4CD1-BD1B-2F7A53CC85DC";
shapes = (
{
closed = 1;
nodes = (
(490,-7,o),
(590,96,o),
(590,233,cs),
(590,379,o),
(508,472,o),
(377,472,cs),
(308,472,o),
(247,426,o),
(227,363,c),
(227,435,o),
(230,587,o),
(327,587,cs),
(372,587,o),
(401,564,o),
(409,518,c),
(587,549,l),
(564,665,o),
(477,742,o),
(337,742,cs),
(154,742,o),
(57,577,o),
(57,354,cs),
(57,144,o),
(136,-7,o),
(335,-7,cs)
);
},
{
closed = 1;
nodes = (
(277,155,o),
(244,189,o),
(244,237,cs),
(244,284,o),
(277,318,o),
(325,318,cs),
(372,318,o),
(404,284,o),
(404,237,cs),
(404,189,o),
(372,155,o),
(325,155,cs)
);
}
);
width = 638;
}
);
unicode = 54;
userData = {
com.schriftgestaltung.Glyphs.ColorIndex = 3;
};
},
{
color = 4;
glyphname = seven;
lastChange = "2024-08-04 18:24:33 +0000";
layers = (
{
layerId = "86171893-955A-4CD1-BD1B-2F7A53CC85DC";
shapes = (
{
closed = 1;
nodes = (
(267,0,l),
(507,585,l),
(507,730,l),
(23,730,l),
(23,562,l),
(308,562,l),
(66,0,l)
);
}
);
width = 523;
}
);
unicode = 55;
userData = {
com.schriftgestaltung.Glyphs.ColorIndex = 3;
};
},
{
color = 4;
glyphname = eight;
lastChange = "2024-08-04 18:24:52 +0000";
layers = (
{
layerId = "86171893-955A-4CD1-BD1B-2F7A53CC85DC";
shapes = (
{
closed = 1;
nodes = (
(488,-7,o),
(601,83,o),
(601,225,cs),
(601,307,o),
(564,365,o),
(495,400,c),
(551,430,o),
(584,477,o),
(584,548,cs),
(584,683,o),
(461,742,o),
(326,742,cs),
(182,742,o),
(68,677,o),
(68,548,cs),
(68,479,o),
(98,432,o),
(157,400,c),
(88,365,o),
(51,307,o),
(51,225,cs),
(51,83,o),
(164,-7,o),
(326,-7,cs)
);
},
{
closed = 1;
nodes = (
(274,155,o),
(241,188,o),
(241,236,cs),
(241,288,o),
(274,317,o),
(326,317,cs),
(378,317,o),
(410,288,o),
(410,236,cs),
(410,188,o),
(378,155,o),
(326,155,cs)
);
},
{
closed = 1;
nodes = (
(286,448,o),
(260,474,o),
(260,518,cs),
(260,562,o),
(286,587,o),
(326,587,cs),
(366,587,o),
(392,564,o),
(392,518,cs),
(392,474,o),
(366,448,o),
(326,448,cs)
);
}
);
width = 653;
}
);
unicode = 56;
userData = {
com.schriftgestaltung.Glyphs.ColorIndex = 3;
};
},
{
color = 4;
glyphname = nine;
lastChange = "2024-08-04 20:31:48 +0000";
layers = (
{
layerId = "86171893-955A-4CD1-BD1B-2F7A53CC85DC";
shapes = (
{
closed = 1;
nodes = (
(141,742,o),
(41,635,o),
(41,498,cs),
(41,352,o),
(123,259,o),
(264,259,cs),
(323,259,o),
(384,296,o),
(404,359,c),
(404,287,o),
(399,153,o),
(303,153,cs),
(257,153,o),
(229,179,o),
(222,212,c),
(44,181,l),
(67,62,o),
(154,-7,o),
(294,-7,cs),
(477,-7,o),
(574,154,o),
(574,377,cs),
(574,587,o),
(495,742,o),
(296,742,cs)
);
},
{
closed = 1;
nodes = (
(354,587,o),
(387,546,o),
(387,500,cs),
(387,455,o),
(354,413,o),
(306,413,cs),
(259,413,o),
(227,455,o),
(227,500,cs),
(227,546,o),
(259,587,o),
(306,587,cs)
);
}
);
width = 611;
}
);
unicode = 57;
userData = {
com.schriftgestaltung.Glyphs.ColorIndex = 3;
};
},
{
color = 4;
glyphname = onesuperior;
lastChange = "2024-08-04 18:25:23 +0000";
layers = (
{
layerId = "86171893-955A-4CD1-BD1B-2F7A53CC85DC";
shapes = (
{
closed = 1;
nodes = (
(259,353,l),
(259,705,l),
(113,705,l),
(96,667,o),
(61,644,o),
(20,644,c),
(20,507,l),
(55,507,o),
(99,541,o),
(113,572,c),
(113,353,l)
);
}
);
width = 297;
}
);
unicode = 185;
userData = {
com.schriftgestaltung.Glyphs.ColorIndex = 4;
};
},
{
color = 4;
glyphname = twosuperior;
lastChange = "2024-08-04 18:25:36 +0000";
layers = (
{
layerId = "86171893-955A-4CD1-BD1B-2F7A53CC85DC";
shapes = (
{
closed = 1;
nodes = (
(106,717,o),
(43,671,o),
(37,592,c),
(175,566,l),
(175,589,o),
(188,613,o),
(206,613,cs),
(217,613,o),
(224,606,o),
(224,596,cs),
(224,575,o),
(208,554,o),
(172,534,cs),
(44,462,l),
(44,353,l),
(371,353,l),
(371,466,l),
(199,466,l),
(249,488,ls),
(340,528,o),
(378,558,o),
(378,607,cs),
(378,659,o),
(335,717,o),
(224,717,cs)
);
}
);
width = 403;
}
);
unicode = 178;
userData = {
com.schriftgestaltung.Glyphs.ColorIndex = 4;
};
},
{
color = 4;
glyphname = threesuperior;
lastChange = "2024-08-04 18:25:47 +0000";
layers = (
{
layerId = "86171893-955A-4CD1-BD1B-2F7A53CC85DC";
shapes = (
{
closed = 1;
nodes = (
(301,350,o),
(367,386,o),
(367,452,cs),
(367,493,o),
(343,519,o),
(288,533,c),
(288,536,l),
(334,545,o),
(359,569,o),
(359,611,cs),
(359,673,o),
(299,717,o),
(199,717,cs),
(68,717,o),
(20,654,o),
(20,616,c),
(160,586,l),
(161,606,o),
(168,615,o),
(183,615,cs),
(197,615,o),
(204,606,o),
(204,592,cs),
(204,571,o),
(193,562,o),
(171,562,cs),
(147,562,l),
(147,507,l),
(179,507,ls),
(200,507,o),
(212,499,o),
(212,478,cs),
(212,459,o),
(202,451,o),
(190,451,cs),
(176,451,o),
(168,458,o),
(166,477,c),
(14,457,l),
(17,380,o),
(124,350,o),
(201,350,cs)
);
}
);
width = 389;
}
);
unicode = 179;
userData = {
com.schriftgestaltung.Glyphs.ColorIndex = 4;
};
},
{
color = 4;
glyphname = fraction;
lastChange = "2024-08-04 18:25:55 +0000";
layers = (
{
layerId = "86171893-955A-4CD1-BD1B-2F7A53CC85DC";
shapes = (
{
closed = 1;
nodes = (
(-9,0,l),
(180,0,l),
(559,705,l),
(371,705,l)
);
}
);
width = 563;
}
);
unicode = 8260;
userData = {
com.schriftgestaltung.Glyphs.ColorIndex = 4;
};
},
{
color = 4;
glyphname = onehalf;
lastChange = "2024-08-04 18:26:04 +0000";
layers = (
{
layerId = "86171893-955A-4CD1-BD1B-2F7A53CC85DC";
shapes = (
{
closed = 1;
nodes = (
(99,0,l),
(290,0,l),
(681,705,l),
(491,705,l)
);
},
{
alignment = -1;
pos = (22,0);
ref = onesuperior;
},
{
alignment = -1;
pos = (432,-353);
ref = twosuperior;
}
);
width = 874;
}
);
unicode = 189;
userData = {
com.schriftgestaltung.Glyphs.ColorIndex = 4;
};
},
{
color = 4;
glyphname = onequarter;
lastChange = "2024-08-04 18:26:13 +0000";
layers = (
{
layerId = "86171893-955A-4CD1-BD1B-2F7A53CC85DC";
shapes = (
{
closed = 1;
nodes = (
(99,0,l),
(290,0,l),
(676,705,l),
(486,705,l)
);
},
{
closed = 1;
nodes = (
(769,141,l),
(769,351,l),
(566,351,l),
(423,136,l),
(423,60,l),
(622,60,l),
(622,0,l),
(769,0,l),
(769,60,l),
(807,60,l),
(807,141,l)
);
},
{
closed = 1;
nodes = (
(561,144,l),
(629,258,l),
(629,144,l)
);
},
{
alignment = -1;
pos = (22,0);
ref = onesuperior;
}
);
width = 833;
}
);
unicode = 188;
userData = {
com.schriftgestaltung.Glyphs.ColorIndex = 4;
};
},
{
color = 4;
glyphname = threequarters;
lastChange = "2024-08-04 18:26:20 +0000";
layers = (
{
layerId = "86171893-955A-4CD1-BD1B-2F7A53CC85DC";
shapes = (
{
closed = 1;
nodes = (
(232,0,l),
(423,0,l),
(800,705,l),
(609,705,l)
);
},
{
closed = 1;
nodes = (
(903,141,l),
(903,351,l),
(685,351,l),
(556,136,l),
(556,60,l),
(756,60,l),
(756,0,l),
(903,0,l),
(903,60,l),
(940,60,l),
(940,141,l)
);
},
{
closed = 1;
nodes = (
(695,141,l),
(764,274,l),
(764,141,l)
);
},
{
alignment = -1;
pos = (44,0);
ref = threesuperior;
}
);
width = 957;
}
);
unicode = 190;
userData = {
com.schriftgestaltung.Glyphs.ColorIndex = 4;
};
},
{
color = 4;
glyphname = asterisk;
lastChange = "2024-08-04 18:26:35 +0000";
layers = (
{
layerId = "86171893-955A-4CD1-BD1B-2F7A53CC85DC";
shapes = (
{
closed = 1;
nodes = (
(343,740,l),
(212,740,l),
(241,615,l),
(143,699,l),
(81,588,l),
(196,552,l),
(79,512,l),
(148,393,l),
(240,482,l),
(214,358,l),
(342,358,l),
(315,482,l),
(409,395,l),
(475,511,l),
(358,549,l),
(475,589,l),
(413,700,l),
(315,615,l)
);
}
);
width = 548;
}
);
unicode = 42;
userData = {
com.schriftgestaltung.Glyphs.ColorIndex = 3;
};
},
{
color = 4;
glyphname = backslash;
lastChange = "2024-08-04 19:34:22 +0000";
layers = (
{
layerId = "86171893-955A-4CD1-BD1B-2F7A53CC85DC";
shapes = (
{
closed = 1;
nodes = (
(380,952,l),
(192,952,l),
(446,-193,l),
(634,-193,l)
);
}
);
width = 840;
}
);
unicode = 92;
userData = {
com.schriftgestaltung.Glyphs.ColorIndex = 3;
};
},
{
color = 4;
glyphname = bullet;
lastChange = "2024-06-18 16:51:01 +0000";
layers = (
{
layerId = "86171893-955A-4CD1-BD1B-2F7A53CC85DC";
shapes = (
{
closed = 1;
nodes = (
(259,175,cs),
(349,175,o),
(419,244,o),
(419,333,cs),
(419,423,o),
(349,493,o),
(259,493,cs),
(170,493,o),
(100,423,o),
(100,333,cs),
(100,244,o),
(170,175,o)
);
}
);
width = 519;
}
);
unicode = 8226;
userData = {
com.schriftgestaltung.Glyphs.ColorIndex = 4;
};
},
{
color = 4;
glyphname = comma;
lastChange = "2024-08-04 21:26:35 +0000";
layers = (
{
layerId = "86171893-955A-4CD1-BD1B-2F7A53CC85DC";
shapes = (
{
closed = 1;
nodes = (
(138,-166,o),
(262,-100,o),
(262,52,cs),
(262,124,o),
(210,194,o),
(135,194,cs),
(68,194,o),
(17,150,o),
(17,84,cs),
(17,17,o),
(63,-11,o),
(118,-11,c),
(138,-11,o),
(160,-5,o),
(175,8,c),
(159,-35,o),
(96,-83,o),
(12,-78,c),
(12,-156,l)
);
}
);
width = 292;
}
);
unicode = 44;
userData = {
com.schriftgestaltung.Glyphs.ColorIndex = 8;
com.typemytype.robofont.layerData = {
b = {
anchors = (
);
components = (
);
contours = (
{
points = (
{
segmentType = line;
smooth = 0;
x = 37;
y = 31;
},
{
segmentType = line;
smooth = 0;
x = 37;
y = -7;
},
{
segmentType = line;
smooth = 0;
x = 68;
y = -7;
},
{
segmentType = line;
smooth = 1;
x = 68;
y = -14;
},
{
smooth = 0;
x = 68;
y = -47;
},
{
smooth = 0;
x = 57;
y = -68;
},
{
segmentType = curve;
smooth = 0;
x = 25;
y = -68;
},
{
segmentType = line;
smooth = 0;
x = 25;
y = -86;
},
{
smooth = 0;
x = 61;
y = -86;
},
{
smooth = 0;
x = 90;
y = -71;
},
{
segmentType = curve;
smooth = 1;
x = 90;
y = 0;
},
{
smooth = 0;
x = 90;
y = 9;
},
{
smooth = 0;
x = 89;
y = 22;
},
{
segmentType = curve;
smooth = 0;
x = 88;
y = 31;
}
);
}
);
lib = {
};
name = comma;
unicodes = (
);
width = 119.5644;
};
};
};
},
{
color = 4;
glyphname = exclam;
lastChange = "2024-08-04 21:27:34 +0000";
layers = (
{
layerId = "86171893-955A-4CD1-BD1B-2F7A53CC85DC";
shapes = (
{
closed = 1;
nodes = (
(119,264,l),
(286,264,l),
(309,740,l),
(96,740,l)
);
},
{
closed = 1;
nodes = (
(271,-7,o),
(315,37,o),
(315,95,cs),
(315,153,o),
(271,198,o),
(203,198,cs),
(134,198,o),
(90,153,o),
(90,95,cs),
(90,37,o),
(134,-7,o),
(203,-7,cs)
);
}
);
width = 405;
}
);
unicode = 33;
userData = {
com.schriftgestaltung.Glyphs.ColorIndex = 3;
};
},
{
color = 4;
glyphname = numbersign;
lastChange = "2024-06-18 16:52:24 +0000";
layers = (
{
layerId = "86171893-955A-4CD1-BD1B-2F7A53CC85DC";
shapes = (
{
closed = 1;
nodes = (
(130,0,l),
(312,0,l),
(470,740,l),
(288,740,l)
);
},
{
closed = 1;
nodes = (
(465,0,l),
(648,0,l),
(806,740,l),
(623,740,l)
);
},
{
closed = 1;
nodes = (
(15,138,l),
(831,138,l),
(831,316,l),
(15,316,l)
);
},
{
closed = 1;
nodes = (
(81,430,l),
(897,430,l),
(897,608,l),
(81,608,l)
);
}
);
width = 919;
}
);
unicode = 35;
userData = {
com.schriftgestaltung.Glyphs.ColorIndex = 3;
};
},
{
color = 4;
glyphname = period;
lastChange = "2024-08-04 18:29:33 +0000";
layers = (
{
layerId = "86171893-955A-4CD1-BD1B-2F7A53CC85DC";
shapes = (
{
closed = 1;
nodes = (
(217,-7,o),
(261,37,o),
(261,95,cs),
(261,153,o),
(217,198,o),
(149,198,cs),
(80,198,o),
(36,153,o),
(36,95,cs),
(36,37,o),
(80,-7,o),
(149,-7,cs)
);
}
);
width = 297;
}
);
unicode = 46;
userData = {
com.schriftgestaltung.Glyphs.ColorIndex = 3;
};
},
{
color = 4;
glyphname = question;
lastChange = "2024-08-04 18:29:52 +0000";
layers = (
{
layerId = "86171893-955A-4CD1-BD1B-2F7A53CC85DC";
shapes = (
{
closed = 1;
nodes = (
(275,272,l),
(283,345,l),
(413,345,o),
(497,431,o),
(497,544,cs),
(497,672,o),
(405,758,o),
(260,758,cs),
(148,758,o),
(44,693,o),
(23,590,c),
(187,529,l),
(195,572,o),
(220,597,o),
(254,597,cs),
(291,597,o),
(306,571,o),
(306,548,cs),
(306,495,o),
(265,467,o),
(185,467,cs),
(99,467,l),
(107,272,l)
);
},
{
alignment = -1;
pos = (43,0);
ref = period;
}
);
width = 524;
}
);
unicode = 63;
userData = {
com.schriftgestaltung.Glyphs.ColorIndex = 3;
};
},
{
color = 4;
glyphname = quotedbl;
lastChange = "2024-06-18 16:57:13 +0000";
layers = (
{
layerId = "86171893-955A-4CD1-BD1B-2F7A53CC85DC";
shapes = (
{
closed = 1;
nodes = (
(56,574,l),
(188,574,l),
(200,802,l),
(42,802,l)
);
},
{
closed = 1;
nodes = (
(264,574,l),
(395,574,l),
(408,802,l),
(250,802,l)
);
}
);
width = 451;
}
);
unicode = 34;
userData = {
com.schriftgestaltung.Glyphs.ColorIndex = 4;
};
},
{
color = 4;
glyphname = quotesingle;
lastChange = "2024-07-30 11:48:31 +0000";
layers = (
{
layerId = "86171893-955A-4CD1-BD1B-2F7A53CC85DC";
shapes = (
{
closed = 1;
nodes = (
(56,574,l),
(188,574,l),
(200,802,l),
(42,802,l)
);
}
);
width = 243;
}
);
unicode = 39;
userData = {
com.schriftgestaltung.Glyphs.ColorIndex = 4;
};
},
{
color = 4;
glyphname = semicolon;
lastChange = "2024-08-04 21:31:12 +0000";
layers = (
{
layerId = "86171893-955A-4CD1-BD1B-2F7A53CC85DC";
shapes = (
{
closed = 1;
nodes = (
(227,383,o),
(271,427,o),
(271,485,cs),
(271,543,o),
(227,588,o),
(159,588,cs),
(90,588,o),
(46,543,o),
(46,485,cs),
(46,427,o),
(90,383,o),
(159,383,cs)
);
},
{
closed = 1;
nodes = (
(162,-166,o),
(286,-100,o),
(286,52,cs),
(286,124,o),
(234,194,o),
(159,194,cs),
(92,194,o),
(41,150,o),
(41,84,cs),
(41,17,o),
(87,-11,o),
(142,-11,c),
(162,-11,o),
(184,-5,o),
(199,8,c),
(183,-35,o),
(120,-83,o),
(36,-78,c),
(36,-156,l)
);
}
);
width = 323;
}
);
unicode = 59;
userData = {
com.schriftgestaltung.Glyphs.ColorIndex = 8;
};
},
{
color = 4;
glyphname = slash;
lastChange = "2024-08-04 20:39:13 +0000";
layers = (
{
layerId = "86171893-955A-4CD1-BD1B-2F7A53CC85DC";
shapes = (
{
closed = 1;
nodes = (
(-13,-193,l),
(175,-193,l),
(442,952,l),
(254,952,l)
);
}
);
width = 425;
}
);
unicode = 47;
userData = {
com.schriftgestaltung.Glyphs.ColorIndex = 3;
};
},
{
color = 4;
glyphname = underscore;
lastChange = "2024-06-18 16:59:19 +0000";
layers = (
{
layerId = "86171893-955A-4CD1-BD1B-2F7A53CC85DC";
shapes = (
{
closed = 1;
nodes = (
(67,-232,l),
(715,-232,l),
(715,-42,l),
(67,-42,l)
);
}
);
width = 772;
}
);
unicode = 95;
userData = {
com.schriftgestaltung.Glyphs.ColorIndex = 3;
};
},
{
color = 4;
glyphname = braceleft;
lastChange = "2024-06-18 16:59:19 +0000";
layers = (
{
layerId = "86171893-955A-4CD1-BD1B-2F7A53CC85DC";
shapes = (
{
closed = 1;
nodes = (
(144,261,o),
(169,234,o),
(169,192,cs),
(169,137,o),
(146,46,o),
(146,-27,cs),
(146,-152,o),
(230,-221,o),
(355,-221,cs),
(429,-221,l),
(429,-62,l),
(393,-62,ls),
(349,-62,o),
(333,-42,o),
(333,-7,cs),
(333,41,o),
(350,137,o),
(350,200,cs),
(350,274,o),
(317,327,o),
(243,341,c),
(243,343,l),
(317,357,o),
(350,410,o),
(350,484,cs),
(350,547,o),
(333,643,o),
(333,690,cs),
(333,726,o),
(349,746,o),
(393,746,cs),
(429,746,l),
(429,905,l),
(355,905,ls),
(230,905,o),
(146,836,o),
(146,711,cs),
(146,638,o),
(169,547,o),
(169,491,cs),
(169,447,o),
(144,423,o),
(76,422,c),
(76,263,l)
);
}
);
width = 492;
}
);
unicode = 123;
userData = {
com.schriftgestaltung.Glyphs.ColorIndex = 3;
};
},
{
color = 4;
glyphname = bracketleft;
lastChange = "2024-06-18 16:59:19 +0000";
layers = (
{
layerId = "86171893-955A-4CD1-BD1B-2F7A53CC85DC";
shapes = (
{
closed = 1;
nodes = (
(108,-219,l),
(448,-219,l),
(448,-60,l),
(292,-60,l),
(292,746,l),
(448,746,l),
(448,904,l),
(108,904,l)
);
}
);
width = 522;
}
);
unicode = 91;
userData = {
com.schriftgestaltung.Glyphs.ColorIndex = 3;
};
},
{
color = 4;
glyphname = parenleft;
lastChange = "2024-06-18 16:59:19 +0000";
layers = (
{
layerId = "86171893-955A-4CD1-BD1B-2F7A53CC85DC";
shapes = (
{
closed = 1;
nodes = (
(468,-219,l),
(468,-201,l),
(337,-64,o),
(258,136,o),
(258,340,cs),
(258,544,o),
(337,748,o),
(473,886,c),
(473,904,l),
(281,904,l),
(149,781,o),
(71,570,o),
(71,340,cs),
(71,111,o),
(149,-97,o),
(277,-219,c)
);
}
);
width = 470;
}
);
unicode = 40;
userData = {
com.schriftgestaltung.Glyphs.ColorIndex = 3;
};
},
{
color = 4;
glyphname = emdash;
lastChange = "2024-06-18 16:59:19 +0000";
layers = (
{
layerId = "86171893-955A-4CD1-BD1B-2F7A53CC85DC";
shapes = (
{
closed = 1;
nodes = (
(63,265,l),
(871,265,l),
(871,428,l),
(63,428,l)
);
}
);
width = 933;
}
);
unicode = 8212;
userData = {
com.schriftgestaltung.Glyphs.ColorIndex = 4;
};
},
{
color = 4;
glyphname = endash;
lastChange = "2024-06-18 16:59:19 +0000";
layers = (
{
layerId = "86171893-955A-4CD1-BD1B-2F7A53CC85DC";
shapes = (
{
closed = 1;
nodes = (
(63,265,l),
(627,265,l),
(627,428,l),
(63,428,l)
);
}
);
width = 689;
}
);
unicode = 8211;
userData = {
com.schriftgestaltung.Glyphs.ColorIndex = 4;
};
},
{
color = 4;
glyphname = guillemotleft;
lastChange = "2024-06-18 16:59:19 +0000";
layers = (
{
layerId = "86171893-955A-4CD1-BD1B-2F7A53CC85DC";
shapes = (
{
closed = 1;
nodes = (
(222,295,l),
(305,470,l),
(126,470,l),
(45,295,l),
(126,120,l),
(305,120,l)
);
},
{
closed = 1;
nodes = (
(462,295,l),
(545,470,l),
(366,470,l),
(285,295,l),
(366,120,l),
(545,120,l)
);
}
);
width = 588;
}
);
unicode = 171;
userData = {
com.schriftgestaltung.Glyphs.ColorIndex = 4;
};
},
{
color = 4;
glyphname = guillemotright;
lastChange = "2024-06-18 16:59:19 +0000";
layers = (
{
layerId = "86171893-955A-4CD1-BD1B-2F7A53CC85DC";
shapes = (
{
closed = 1;
nodes = (
(470,120,l),
(550,295,l),
(470,470,l),
(290,470,l),
(374,295,l),
(290,120,l)
);
},
{
closed = 1;
nodes = (
(230,120,l),
(310,295,l),
(230,470,l),
(50,470,l),
(134,295,l),
(50,120,l)
);
}
);
width = 588;
}
);
unicode = 187;
userData = {
com.schriftgestaltung.Glyphs.ColorIndex = 4;
};
},
{
color = 4;
glyphname = guilsinglleft;
lastChange = "2024-06-18 16:59:19 +0000";
layers = (
{
layerId = "86171893-955A-4CD1-BD1B-2F7A53CC85DC";
shapes = (
{
closed = 1;
nodes = (
(222,295,l),
(305,470,l),
(126,470,l),
(45,295,l),
(126,120,l),
(305,120,l)
);
}
);
width = 355;
}
);
unicode = 8249;
userData = {
com.schriftgestaltung.Glyphs.ColorIndex = 4;
};
},
{
color = 4;
glyphname = guilsinglright;
lastChange = "2024-06-18 16:59:19 +0000";
layers = (
{
layerId = "86171893-955A-4CD1-BD1B-2F7A53CC85DC";
shapes = (
{
closed = 1;
nodes = (
(230,120,l),
(310,295,l),
(230,470,l),
(50,470,l),
(134,295,l),
(50,120,l)
);
}
);
width = 355;
}
);
unicode = 8250;
userData = {
com.schriftgestaltung.Glyphs.ColorIndex = 4;
};
},
{
color = 4;
glyphname = quotedblbase;
lastChange = "2024-08-04 21:32:37 +0000";
layers = (
{
layerId = "86171893-955A-4CD1-BD1B-2F7A53CC85DC";
shapes = (
{
closed = 1;
nodes = (
(147,-156,o),
(262,-100,o),
(262,52,cs),
(262,124,o),
(210,194,o),
(135,194,cs),
(68,194,o),
(17,150,o),
(17,84,cs),
(17,17,o),
(63,-11,o),
(118,-11,c),
(138,-11,o),
(160,-5,o),
(175,8,c),
(159,-35,o),
(106,-78,o),
(12,-78,c),
(12,-156,l)
);
},
{
closed = 1;
nodes = (
(422,-156,o),
(537,-100,o),
(537,52,cs),
(537,124,o),
(485,194,o),
(410,194,cs),
(343,194,o),
(292,150,o),
(292,84,cs),
(292,17,o),
(338,-11,o),
(393,-11,c),
(413,-11,o),
(435,-5,o),
(450,8,c),
(434,-35,o),
(381,-78,o),
(287,-78,c),
(287,-156,l)
);
}
);
width = 567;
}
);
unicode = 8222;
userData = {
com.schriftgestaltung.Glyphs.ColorIndex = 8;
};
},
{
color = 4;
glyphname = quotedblleft;
lastChange = "2024-08-04 18:31:20 +0000";
layers = (
{
layerId = "86171893-955A-4CD1-BD1B-2F7A53CC85DC";
shapes = (
{
closed = 1;
nodes = (
(164,705,o),
(44,649,o),
(44,497,cs),
(44,425,o),
(96,355,o),
(171,355,cs),
(238,355,o),
(289,399,o),
(289,465,cs),
(289,533,o),
(238,560,o),
(191,560,cs),
(168,560,o),
(145,553,o),
(131,541,c),
(147,584,o),
(206,627,o),
(294,627,c),
(294,705,l)
);
},
{
closed = 1;
nodes = (
(439,705,o),
(319,649,o),
(319,497,cs),
(319,425,o),
(371,355,o),
(446,355,cs),
(513,355,o),
(564,399,o),
(564,465,cs),
(564,533,o),
(513,560,o),
(466,560,cs),
(443,560,o),
(420,553,o),
(406,541,c),
(422,584,o),
(481,627,o),
(569,627,c),
(569,705,l)
);
}
);
width = 625;
}
);
metricLeft = quoteleft;
metricRight = quoteleft;
unicode = 8220;
userData = {
com.schriftgestaltung.Glyphs.ColorIndex = 8;
};
},
{
color = 4;
glyphname = quotedblright;
lastChange = "2024-08-04 18:32:19 +0000";
layers = (
{
layerId = "86171893-955A-4CD1-BD1B-2F7A53CC85DC";
shapes = (
{
closed = 1;
nodes = (
(192,362,o),
(306,418,o),
(306,570,cs),
(306,642,o),
(254,712,o),
(179,712,cs),
(112,712,o),
(61,668,o),
(61,602,cs),
(61,535,o),
(107,507,o),
(162,507,cs),
(182,507,o),
(204,513,o),
(219,526,c),
(203,483,o),
(150,440,o),
(56,440,c),
(56,362,l)
);
},
{
closed = 1;
nodes = (
(467,362,o),
(581,418,o),
(581,570,cs),
(581,642,o),
(529,712,o),
(454,712,cs),
(387,712,o),
(336,668,o),
(336,602,cs),
(336,535,o),
(382,507,o),
(437,507,cs),
(457,507,o),
(479,513,o),
(494,526,c),
(478,483,o),
(425,440,o),
(331,440,c),
(331,362,l)
);
}
);
width = 625;
}
);
metricLeft = quoteright;
metricRight = quoteright;
unicode = 8221;
userData = {
com.schriftgestaltung.Glyphs.ColorIndex = 8;
};
},
{
color = 4;
glyphname = quoteleft;
lastChange = "2024-08-04 18:33:16 +0000";
layers = (
{
layerId = "86171893-955A-4CD1-BD1B-2F7A53CC85DC";
shapes = (
{
closed = 1;
nodes = (
(164,705,o),
(44,649,o),
(44,497,cs),
(44,425,o),
(96,355,o),
(171,355,cs),
(238,355,o),
(289,399,o),
(289,465,cs),
(289,532,o),
(243,560,o),
(188,560,c),
(168,560,o),
(146,554,o),
(131,541,c),
(147,584,o),
(206,627,o),
(294,627,c),
(294,705,l)
);
}
);
width = 350;
}
);
unicode = 8216;
userData = {
com.schriftgestaltung.Glyphs.ColorIndex = 8;
};
},
{
color = 4;
glyphname = quoteright;
lastChange = "2024-08-04 18:32:58 +0000";
layers = (
{
layerId = "86171893-955A-4CD1-BD1B-2F7A53CC85DC";
shapes = (
{
closed = 1;
nodes = (
(192,362,o),
(306,418,o),
(306,570,cs),
(306,642,o),
(254,712,o),
(179,712,cs),
(112,712,o),
(61,668,o),
(61,602,cs),
(61,535,o),
(107,507,o),
(162,507,cs),
(182,507,o),
(204,513,o),
(219,526,c),
(203,483,o),
(150,440,o),
(56,440,c),
(56,362,l)
);
}
);
width = 350;
}
);
unicode = 8217;
userData = {
com.schriftgestaltung.Glyphs.ColorIndex = 8;
com.typemytype.robofont.layerData = {
b = {
anchors = (
{
name = _bottom;
x = 64;
y = 787;
}
);
components = (
);
contours = (
{
points = (
{
segmentType = line;
smooth = 0;
x = 32;
y = 732;
},
{
segmentType = line;
smooth = 0;
x = 32;
y = 680;
},
{
segmentType = line;
smooth = 0;
x = 68;
y = 680;
},
{
segmentType = line;
smooth = 1;
x = 68;
y = 650;
},
{
smooth = 0;
x = 68;
y = 625;
},
{
smooth = 0;
x = 57;
y = 610;
},
{
segmentType = curve;
smooth = 0;
x = 25;
y = 610;
},
{
segmentType = line;
smooth = 0;
x = 25;
y = 585;
},
{
smooth = 0;
x = 64;
y = 585;
},
{
smooth = 0;
x = 91;
y = 593;
},
{
segmentType = curve;
smooth = 1;
x = 91;
y = 664;
},
{
smooth = 0;
x = 91;
y = 682;
},
{
smooth = 0;
x = 90;
y = 704;
},
{
segmentType = curve;
smooth = 0;
x = 88;
y = 732;
}
);
}
);
lib = {
};
name = quoteright;
unicodes = (
);
width = 122;
};
};
};
},
{
color = 4;
glyphname = quotesinglbase;
lastChange = "2024-08-04 21:32:57 +0000";
layers = (
{
layerId = "86171893-955A-4CD1-BD1B-2F7A53CC85DC";
shapes = (
{
closed = 1;
nodes = (
(147,-156,o),
(262,-100,o),
(262,52,cs),
(262,124,o),
(210,194,o),
(135,194,cs),
(68,194,o),
(17,150,o),
(17,84,cs),
(17,17,o),
(63,-11,o),
(118,-11,c),
(138,-11,o),
(160,-5,o),
(175,8,c),
(159,-35,o),
(106,-78,o),
(12,-78,c),
(12,-156,l)
);
}
);
width = 292;
}
);
unicode = 8218;
userData = {
com.schriftgestaltung.Glyphs.ColorIndex = 8;
};
},
{
color = 4;
glyphname = Euro;
lastChange = "2024-08-04 18:34:48 +0000";
layers = (
{
layerId = "86171893-955A-4CD1-BD1B-2F7A53CC85DC";
shapes = (
{
closed = 1;
nodes = (
(451,375,l),
(451,470,l),
(18,470,l),
(18,375,l)
);
},
{
closed = 1;
nodes = (
(451,239,l),
(451,333,l),
(18,333,l),
(18,239,l)
);
},
{
closed = 1;
nodes = (
(213,712,o),
(74,564,o),
(74,354,cs),
(74,143,o),
(213,-7,o),
(425,-7,cs),
(602,-7,o),
(710,95,o),
(745,191,c),
(552,255,l),
(528,203,o),
(480,174,o),
(422,174,cs),
(333,174,o),
(274,246,o),
(274,354,cs),
(274,462,o),
(332,531,o),
(422,531,cs),
(480,531,o),
(528,502,o),
(552,450,c),
(742,515,l),
(696,619,o),
(602,712,o),
(425,712,cs)
);
}
);
width = 774;
}
);
unicode = 8364;
userData = {
com.schriftgestaltung.Glyphs.ColorIndex = 4;
};
},
{
color = 4;
glyphname = cent;
lastChange = "2024-08-04 21:33:27 +0000";
layers = (
{
layerId = "86171893-955A-4CD1-BD1B-2F7A53CC85DC";
shapes = (
{
closed = 1;
nodes = (
(470,-7,o),
(541,86,o),
(564,174,c),
(387,198,l),
(384,179,o),
(361,152,o),
(311,152,cs),
(262,152,o),
(231,179,o),
(231,250,cs),
(231,322,o),
(263,358,o),
(311,358,cs),
(352,358,o),
(378,344,o),
(387,306,c),
(567,347,l),
(521,481,o),
(410,509,o),
(315,509,cs),
(143,509,o),
(31,405,o),
(31,250,cs),
(31,92,o),
(146,-7,o),
(315,-7,cs)
);
},
{
closed = 1;
nodes = (
(341,-84,l),
(341,125,l),
(279,125,l),
(279,-84,l)
);
},
{
closed = 1;
nodes = (
(341,385,l),
(341,593,l),
(279,593,l),
(279,385,l)
);
}
);
width = 612;
}
);
unicode = 162;
userData = {
com.schriftgestaltung.Glyphs.ColorIndex = 4;
};
},
{
color = 4;
glyphname = currency;
lastChange = "2024-06-19 08:36:26 +0000";
layers = (
{
layerId = "86171893-955A-4CD1-BD1B-2F7A53CC85DC";
shapes = (
{
closed = 1;
nodes = (
(169,560,o),
(79,492,o),
(79,379,cs),
(79,266,o),
(168,194,o),
(296,194,cs),
(425,194,o),
(515,266,o),
(515,379,cs),
(515,492,o),
(425,560,o),
(297,560,cs)
);
},
{
closed = 1;
nodes = (
(331,448,o),
(363,427,o),
(363,377,cs),
(363,328,o),
(330,308,o),
(296,308,cs),
(262,308,o),
(231,328,o),
(231,377,cs),
(231,427,o),
(262,448,o),
(297,448,cs)
);
},
{
closed = 1;
nodes = (
(246,502,l),
(133,615,l),
(60,541,l),
(159,442,l)
);
},
{
closed = 1;
nodes = (
(416,427,l),
(530,541,l),
(457,615,l),
(345,503,l)
);
},
{
closed = 1;
nodes = (
(353,248,l),
(457,144,l),
(530,218,l),
(432,317,l)
);
},
{
closed = 1;
nodes = (
(165,322,l),
(60,218,l),
(133,144,l),
(257,268,l)
);
}
);
width = 590;
}
);
unicode = 164;
userData = {
com.schriftgestaltung.Glyphs.ColorIndex = 4;
com.typemytype.robofont.guides = (
{
angle = 90;
isGlobal = 0;
magnetic = 5;
x = 250;
y = 554;
}
);
};
},
{
color = 4;
glyphname = dollar;
lastChange = "2024-08-04 21:33:47 +0000";
layers = (
{
layerId = "86171893-955A-4CD1-BD1B-2F7A53CC85DC";
shapes = (
{
closed = 1;
nodes = (
(357,-87,l),
(357,796,l),
(294,796,l),
(294,-87,l)
);
},
{
closed = 1;
nodes = (
(482,-7,o),
(603,90,o),
(603,214,cs),
(603,436,o),
(254,403,o),
(254,508,cs),
(254,536,o),
(281,556,o),
(314,556,cs),
(356,556,o),
(386,529,o),
(396,479,c),
(584,528,l),
(560,643,o),
(465,712,o),
(317,712,cs),
(162,712,o),
(55,636,o),
(55,498,cs),
(55,275,o),
(397,304,o),
(397,201,cs),
(397,169,o),
(370,150,o),
(324,150,cs),
(276,150,o),
(239,185,o),
(225,244,c),
(37,200,l),
(68,71,o),
(180,-7,o),
(335,-7,cs)
);
}
);
width = 649;
}
);
unicode = 36;
userData = {
com.schriftgestaltung.Glyphs.ColorIndex = 4;
};
},
{
color = 4;
glyphname = florin;
lastChange = "2024-06-19 08:37:18 +0000";
layers = (
{
layerId = "86171893-955A-4CD1-BD1B-2F7A53CC85DC";
shapes = (
{
closed = 1;
nodes = (
(17,398,l),
(331,398,l),
(348,561,l),
(33,561,l)
);
},
{
closed = 1;
nodes = (
(82,574,cs),
(11,-90,ls),
(9,-109,o),
(0,-121,o),
(-18,-121,cs),
(-51,-121,l),
(-67,-288,l),
(-36,-288,ls),
(88,-288,o),
(191,-247,o),
(208,-90,cs),
(278,574,ls),
(282,610,o),
(304,621,o),
(347,621,c),
(364,788,l),
(188,788,o),
(98,723,o)
);
}
);
width = 338;
}
);
unicode = 402;
userData = {
com.schriftgestaltung.Glyphs.ColorIndex = 4;
};
},
{
color = 4;
glyphname = indianrupee;
lastChange = "2024-08-04 14:37:39 +0000";
layers = (
{
layerId = "86171893-955A-4CD1-BD1B-2F7A53CC85DC";
shapes = (
{
closed = 1;
nodes = (
(302,643,l),
(302,473,ls),
(302,367,o),
(280,359,o),
(44,359,c),
(44,233,ls),
(44,67,o),
(132,-7,o),
(285,-7,cs),
(430,-7,o),
(501,79,o),
(508,210,c),
(327,210,l),
(327,163,o),
(315,140,o),
(277,140,cs),
(238,140,o),
(227,168,o),
(227,206,cs),
(227,232,l),
(414,232,o),
(485,339,o),
(485,479,cs),
(485,643,l)
);
},
{
closed = 1;
nodes = (
(34,575,l),
(557,575,l),
(557,705,l),
(34,705,l)
);
},
{
closed = 1;
nodes = (
(557,414,l),
(557,529,l),
(34,529,l),
(34,414,l)
);
}
);
width = 588;
}
);
userData = {
com.schriftgestaltung.Glyphs.ColorIndex = 4;
};
},
{
color = 4;
glyphname = ruble;
lastChange = "2024-08-04 18:35:20 +0000";
layers = (
{
layerId = "86171893-955A-4CD1-BD1B-2F7A53CC85DC";
shapes = (
{
closed = 1;
nodes = (
(14,268,l),
(405,268,ls),
(583,268,o),
(668,365,o),
(668,486,cs),
(668,612,o),
(580,705,o),
(405,705,cs),
(111,705,l),
(111,0,l),
(308,0,l),
(308,557,l),
(394,557,ls),
(444,557,o),
(469,526,o),
(469,487,cs),
(469,446,o),
(444,418,o),
(394,418,cs),
(14,418,l)
);
},
{
closed = 1;
nodes = (
(14,70,l),
(442,70,l),
(442,218,l),
(14,218,l)
);
}
);
width = 692;
}
);
unicode = 8381;
userData = {
com.schriftgestaltung.Glyphs.ColorIndex = 8;
};
},
{
color = 4;
glyphname = rupee;
lastChange = "2024-08-04 21:34:05 +0000";
layers = (
{
layerId = "86171893-955A-4CD1-BD1B-2F7A53CC85DC";
shapes = (
{
closed = 1;
nodes = (
(252,0,l),
(252,244,l),
(308,242,o),
(350,227,o),
(381,200,cs),
(431,158,o),
(452,88,o),
(458,0,c),
(670,0,l),
(649,161,o),
(578,267,o),
(479,302,c),
(576,324,o),
(628,402,o),
(628,485,cs),
(628,623,o),
(530,705,o),
(365,705,cs),
(56,705,l),
(56,0,l)
);
},
{
closed = 1;
nodes = (
(252,547,l),
(349,547,ls),
(400,547,o),
(429,518,o),
(429,476,cs),
(429,430,o),
(402,400,o),
(349,400,cs),
(252,400,l)
);
},
{
closed = 1;
nodes = (
(1080,-7,o),
(1173,61,o),
(1173,162,cs),
(1173,375,o),
(872,312,o),
(872,392,cs),
(872,413,o),
(889,426,o),
(921,426,cs),
(963,426,o),
(988,406,o),
(995,370,c),
(1163,415,l),
(1135,507,o),
(1053,568,o),
(925,568,cs),
(773,568,o),
(691,485,o),
(691,387,cs),
(691,181,o),
(991,247,o),
(991,165,cs),
(991,145,o),
(971,128,o),
(938,128,cs),
(897,128,o),
(868,151,o),
(861,186,c),
(682,145,l),
(715,50,o),
(812,-7,o),
(939,-7,cs)
);
}
);
width = 1210;
}
);
unicode = 8360;
},
{
color = 4;
glyphname = sterling;
lastChange = "2024-08-04 13:05:14 +0000";
layers = (
{
layerId = "86171893-955A-4CD1-BD1B-2F7A53CC85DC";
shapes = (
{
closed = 1;
nodes = (
(602,0,l),
(602,156,l),
(238,156,l),
(292,187,o),
(325,243,o),
(325,286,c),
(478,286,l),
(478,417,l),
(302,417,l),
(291,455,o),
(281,491,o),
(281,521,cs),
(281,575,o),
(304,604,o),
(349,604,cs),
(402,604,o),
(420,544,o),
(423,495,c),
(605,527,l),
(605,673,o),
(488,759,o),
(345,759,cs),
(200,759,o),
(95,683,o),
(95,542,cs),
(95,495,o),
(103,453,o),
(113,417,c),
(34,417,l),
(34,286,l),
(140,286,l),
(148,225,o),
(127,164,o),
(47,114,c),
(71,0,l)
);
}
);
width = 674;
}
);
unicode = 163;
userData = {
com.schriftgestaltung.Glyphs.ColorIndex = 4;
};
},
{
color = 4;
glyphname = yen;
lastChange = "2024-08-04 18:35:53 +0000";
layers = (
{
layerId = "86171893-955A-4CD1-BD1B-2F7A53CC85DC";
shapes = (
{
closed = 1;
nodes = (
(459,309,l),
(648,309,l),
(648,439,l),
(452,439,l)
);
},
{
closed = 1;
nodes = (
(51,131,l),
(648,131,l),
(648,260,l),
(51,260,l)
);
},
{
closed = 1;
nodes = (
(252,224,l),
(252,0,l),
(449,0,l),
(449,224,l),
(697,705,l),
(476,705,l),
(323,337,l),
(381,337,l),
(228,705,l),
(4,705,l)
);
},
{
closed = 1;
nodes = (
(51,309,l),
(292,309,l),
(298,439,l),
(51,439,l)
);
}
);
width = 701;
}
);
unicode = 165;
userData = {
com.schriftgestaltung.Glyphs.ColorIndex = 4;
};
},
{
color = 4;
glyphname = plus;
lastChange = "2024-06-19 08:44:19 +0000";
layers = (
{
layerId = "86171893-955A-4CD1-BD1B-2F7A53CC85DC";
shapes = (
{
closed = 1;
nodes = (
(201,600,l),
(201,90,l),
(389,90,l),
(389,600,l)
);
},
{
closed = 1;
nodes = (
(39,256,l),
(550,256,l),
(550,433,l),
(39,433,l)
);
}
);
width = 589;
}
);
unicode = 43;
userData = {
com.schriftgestaltung.Glyphs.ColorIndex = 3;
};
},
{
color = 4;
glyphname = minus;
lastChange = "2024-06-19 08:44:19 +0000";
layers = (
{
layerId = "86171893-955A-4CD1-BD1B-2F7A53CC85DC";
shapes = (
{
closed = 1;
nodes = (
(36,265,l),
(489,265,l),
(489,428,l),
(36,428,l)
);
}
);
width = 525;
}
);
unicode = 8722;
userData = {
com.schriftgestaltung.Glyphs.ColorIndex = 3;
};
},
{
color = 4;
glyphname = multiply;
lastChange = "2024-06-19 08:44:19 +0000";
layers = (
{
layerId = "86171893-955A-4CD1-BD1B-2F7A53CC85DC";
shapes = (
{
closed = 1;
nodes = (
(48,478,l),
(435,92,l),
(564,220,l),
(178,606,l)
);
},
{
closed = 1;
nodes = (
(171,93,l),
(555,480,l),
(428,606,l),
(44,219,l)
);
}
);
width = 609;
}
);
unicode = 215;
userData = {
com.schriftgestaltung.Glyphs.ColorIndex = 3;
};
},
{
color = 4;
glyphname = divide;
lastChange = "2024-06-19 08:44:19 +0000";
layers = (
{
layerId = "86171893-955A-4CD1-BD1B-2F7A53CC85DC";
shapes = (
{
closed = 1;
nodes = (
(37,257,l),
(547,257,l),
(547,434,l),
(37,434,l)
);
},
{
alignment = -1;
pos = (145,19);
ref = period;
},
{
alignment = -1;
pos = (145,484);
ref = period;
}
);
width = 581;
}
);
unicode = 247;
userData = {
com.schriftgestaltung.Glyphs.ColorIndex = 3;
};
},
{
color = 4;
glyphname = equal;
lastChange = "2024-06-19 08:44:19 +0000";
layers = (
{
layerId = "86171893-955A-4CD1-BD1B-2F7A53CC85DC";
shapes = (
{
closed = 1;
nodes = (
(44,123,l),
(617,123,l),
(617,299,l),
(44,299,l)
);
},
{
closed = 1;
nodes = (
(44,390,l),
(617,390,l),
(617,567,l),
(44,567,l)
);
}
);
width = 661;
}
);
unicode = 61;
userData = {
com.schriftgestaltung.Glyphs.ColorIndex = 3;
};
},
{
color = 4;
glyphname = notequal;
lastChange = "2024-06-19 08:44:19 +0000";
layers = (
{
layerId = "86171893-955A-4CD1-BD1B-2F7A53CC85DC";
shapes = (
{
closed = 1;
nodes = (
(45,24,l),
(146,24,l),
(617,665,l),
(516,665,l)
);
},
{
alignment = -1;
ref = equal;
}
);
width = 656;
}
);
unicode = 8800;
userData = {
com.schriftgestaltung.Glyphs.ColorIndex = 8;
};
},
{
color = 4;
glyphname = greater;
lastChange = "2024-06-19 08:44:19 +0000";
layers = (
{
layerId = "86171893-955A-4CD1-BD1B-2F7A53CC85DC";
shapes = (
{
closed = 1;
nodes = (
(42,127,l),
(287,127,l),
(479,345,l),
(287,564,l),
(42,564,l),
(234,345,l)
);
}
);
width = 519;
}
);
unicode = 62;
userData = {
com.schriftgestaltung.Glyphs.ColorIndex = 3;
};
},
{
color = 4;
glyphname = less;
lastChange = "2024-06-19 08:44:19 +0000";
layers = (
{
layerId = "86171893-955A-4CD1-BD1B-2F7A53CC85DC";
shapes = (
{
closed = 1;
nodes = (
(284,345,l),
(476,564,l),
(230,564,l),
(38,345,l),
(230,127,l),
(476,127,l)
);
}
);
width = 524;
}
);
unicode = 60;
userData = {
com.schriftgestaltung.Glyphs.ColorIndex = 3;
};
},
{
color = 4;
glyphname = greaterequal;
lastChange = "2024-06-19 08:44:19 +0000";
layers = (
{
layerId = "86171893-955A-4CD1-BD1B-2F7A53CC85DC";
shapes = (
{
closed = 1;
nodes = (
(278,198,l),
(470,380,l),
(278,564,l),
(35,564,l),
(234,373,l),
(234,388,l),
(35,198,l)
);
},
{
closed = 1;
nodes = (
(36,121,l),
(36,-30,l),
(447,-30,l),
(447,121,l)
);
}
);
width = 505;
}
);
unicode = 8805;
userData = {
com.schriftgestaltung.Glyphs.ColorIndex = 8;
com.typemytype.robofont.layerData = {
b = {
anchors = (
);
components = (
);
contours = (
{
points = (
{
segmentType = line;
smooth = 0;
x = 89;
y = 221;
},
{
segmentType = line;
smooth = 0;
x = 365;
y = 419;
},
{
segmentType = line;
smooth = 0;
x = 89;
y = 618;
},
{
segmentType = line;
smooth = 0;
x = 49;
y = 618;
},
{
segmentType = line;
smooth = 0;
x = 356;
y = 398;
},
{
segmentType = line;
smooth = 0;
x = 356;
y = 442;
},
{
segmentType = line;
smooth = 0;
x = 49;
y = 221;
}
);
},
{
points = (
{
segmentType = line;
smooth = 0;
x = 52;
y = 191;
},
{
segmentType = line;
smooth = 0;
x = 52;
y = 180;
},
{
segmentType = line;
smooth = 0;
x = 372;
y = 180;
},
{
segmentType = line;
smooth = 0;
x = 372;
y = 191;
}
);
}
);
lib = {
};
name = greaterequal;
unicodes = (
);
width = 392;
};
};
};
},
{
color = 4;
glyphname = lessequal;
lastChange = "2024-06-19 08:44:19 +0000";
layers = (
{
layerId = "86171893-955A-4CD1-BD1B-2F7A53CC85DC";
shapes = (
{
closed = 1;
nodes = (
(58,-30,l),
(469,-30,l),
(469,121,l),
(58,121,l)
);
},
{
closed = 1;
nodes = (
(271,388,l),
(271,373,l),
(470,564,l),
(227,564,l),
(35,380,l),
(227,198,l),
(470,198,l)
);
}
);
width = 505;
}
);
unicode = 8804;
userData = {
com.schriftgestaltung.Glyphs.ColorIndex = 8;
com.typemytype.robofont.layerData = {
b = {
anchors = (
);
components = (
);
contours = (
{
points = (
{
segmentType = line;
smooth = 0;
x = 57;
y = 442;
},
{
segmentType = line;
smooth = 0;
x = 57;
y = 398;
},
{
segmentType = line;
smooth = 0;
x = 365;
y = 618;
},
{
segmentType = line;
smooth = 0;
x = 325;
y = 618;
},
{
segmentType = line;
smooth = 0;
x = 49;
y = 419;
},
{
segmentType = line;
smooth = 0;
x = 325;
y = 221;
},
{
segmentType = line;
smooth = 0;
x = 365;
y = 221;
}
);
}
);
lib = {
};
name = lessequal;
unicodes = (
);
width = 392;
};
};
};
},
{
color = 4;
glyphname = plusminus;
lastChange = "2024-06-19 08:44:19 +0000";
layers = (
{
layerId = "86171893-955A-4CD1-BD1B-2F7A53CC85DC";
shapes = (
{
closed = 1;
nodes = (
(201,628,l),
(201,151,l),
(389,151,l),
(389,628,l)
);
},
{
closed = 1;
nodes = (
(40,351,l),
(550,351,l),
(550,527,l),
(40,527,l)
);
},
{
closed = 1;
nodes = (
(40,103,l),
(550,103,l),
(550,280,l),
(40,280,l)
);
}
);
width = 590;
}
);
unicode = 177;
userData = {
com.schriftgestaltung.Glyphs.ColorIndex = 3;
com.typemytype.robofont.layerData = {
b = {
anchors = (
);
components = (
);
contours = (
{
points = (
{
segmentType = line;
smooth = 0;
x = 290;
y = 630;
},
{
segmentType = line;
smooth = 0;
x = 290;
y = 184;
},
{
segmentType = line;
smooth = 0;
x = 305;
y = 184;
},
{
segmentType = line;
smooth = 0;
x = 305;
y = 630;
}
);
},
{
points = (
{
segmentType = line;
smooth = 0;
x = 43;
y = 392;
},
{
segmentType = line;
smooth = 0;
x = 552;
y = 392;
},
{
segmentType = line;
smooth = 0;
x = 552;
y = 405;
},
{
segmentType = line;
smooth = 0;
x = 43;
y = 405;
}
);
},
{
points = (
{
segmentType = line;
smooth = 0;
x = 43;
y = 150;
},
{
segmentType = line;
smooth = 0;
x = 552;
y = 150;
},
{
segmentType = line;
smooth = 0;
x = 552;
y = 163;
},
{
segmentType = line;
smooth = 0;
x = 43;
y = 163;
}
);
}
);
lib = {
};
name = plusminus;
unicodes = (
);
width = 589;
};
};
};
},
{
color = 4;
glyphname = asciitilde;
lastChange = "2024-06-19 08:44:19 +0000";
layers = (
{
layerId = "86171893-955A-4CD1-BD1B-2F7A53CC85DC";
shapes = (
{
closed = 1;
nodes = (
(24,194,c),
(168,194,l),
(176,242,o),
(195,262,o),
(231,262,c),
(290,262,o),
(340,196,o),
(432,196,cs),
(539,196,o),
(623,265,o),
(650,436,c),
(504,436,l),
(497,388,o),
(477,369,o),
(442,369,cs),
(384,369,o),
(333,435,o),
(241,435,cs),
(133,435,o),
(51,365,o)
);
}
);
width = 674;
}
);
unicode = 126;
userData = {
com.schriftgestaltung.Glyphs.ColorIndex = 4;
};
},
{
color = 4;
glyphname = logicalnot;
lastChange = "2024-06-19 08:44:19 +0000";
layers = (
{
layerId = "86171893-955A-4CD1-BD1B-2F7A53CC85DC";
shapes = (
{
closed = 1;
nodes = (
(51,297,l),
(491,297,l),
(491,168,l),
(688,168,l),
(688,445,l),
(51,445,l)
);
}
);
width = 748;
}
);
unicode = 172;
userData = {
com.schriftgestaltung.Glyphs.ColorIndex = 4;
};
},
{
color = 4;
glyphname = infinity;
lastChange = "2024-06-19 08:44:19 +0000";
layers = (
{
layerId = "86171893-955A-4CD1-BD1B-2F7A53CC85DC";
shapes = (
{
closed = 1;
nodes = (
(32,347,cs),
(32,234,o),
(104,169,o),
(220,168,cs),
(335,167,o),
(420,249,o),
(443,346,c),
(343,376,l),
(321,322,o),
(276,296,o),
(235,296,cs),
(205,296,o),
(185,314,o),
(185,347,cs),
(185,381,o),
(205,400,o),
(235,400,cs),
(328,400,o),
(373,168,o),
(593,168,cs),
(695,168,o),
(780,235,o),
(780,348,cs),
(780,462,o),
(708,526,o),
(591,527,cs),
(476,528,o),
(392,446,o),
(369,349,c),
(467,320,l),
(490,373,o),
(535,400,o),
(576,400,cs),
(605,400,o),
(627,382,o),
(627,348,cs),
(627,315,o),
(605,296,o),
(576,296,cs),
(446,296,o),
(439,527,o),
(217,527,cs),
(116,527,o),
(32,461,o)
);
}
);
width = 811;
}
);
unicode = 8734;
userData = {
com.schriftgestaltung.Glyphs.ColorIndex = 8;
};
},
{
color = 4;
glyphname = integral;
lastChange = "2024-06-19 08:44:19 +0000";
layers = (
{
layerId = "86171893-955A-4CD1-BD1B-2F7A53CC85DC";
shapes = (
{
closed = 1;
nodes = (
(9,-90,ls),
(7,-109,o),
(-3,-121,o),
(-21,-121,cs),
(-38,-121,l),
(-53,-288,l),
(-39,-288,ls),
(85,-288,o),
(189,-247,o),
(205,-90,cs),
(290,752,ls),
(293,771,o),
(302,783,o),
(320,783,cs),
(337,783,l),
(353,950,l),
(338,950,ls),
(214,950,o),
(110,909,o),
(95,752,cs)
);
}
);
width = 302;
}
);
unicode = 8747;
userData = {
com.schriftgestaltung.Glyphs.ColorIndex = 8;
};
},
{
color = 4;
glyphname = Ohm;
lastChange = "2024-06-19 08:44:19 +0000";
layers = (
{
layerId = "86171893-955A-4CD1-BD1B-2F7A53CC85DC";
shapes = (
{
closed = 1;
nodes = (
(34,378,cs),
(34,259,o),
(72,159,o),
(206,97,c),
(232,149,l),
(37,149,l),
(37,0,l),
(305,0,l),
(305,153,l),
(263,208,o),
(233,268,o),
(233,352,cs),
(233,470,o),
(295,535,o),
(395,535,cs),
(496,535,o),
(556,470,o),
(556,352,cs),
(556,268,o),
(527,208,o),
(485,153,c),
(485,0,l),
(754,0,l),
(754,149,l),
(557,149,l),
(583,97,l),
(718,159,o),
(756,259,o),
(756,378,cs),
(756,591,o),
(596,716,o),
(395,716,cs),
(193,716,o),
(34,591,o)
);
}
);
width = 790;
}
);
unicode = 8486;
userData = {
com.schriftgestaltung.Glyphs.ColorIndex = 8;
};
},
{
color = 4;
glyphname = increment;
lastChange = "2024-06-19 08:44:19 +0000";
layers = (
{
layerId = "86171893-955A-4CD1-BD1B-2F7A53CC85DC";
shapes = (
{
closed = 1;
nodes = (
(20,149,l),
(20,0,l),
(733,0,l),
(733,149,l),
(456,707,l),
(297,707,l)
);
},
{
closed = 1;
nodes = (
(530,149,l),
(223,149,l),
(377,485,l)
);
}
);
width = 753;
}
);
unicode = 8710;
userData = {
com.schriftgestaltung.Glyphs.ColorIndex = 8;
};
},
{
color = 4;
glyphname = product;
lastChange = "2024-08-04 14:38:56 +0000";
layers = (
{
layerId = "86171893-955A-4CD1-BD1B-2F7A53CC85DC";
shapes = (
{
closed = 1;
nodes = (
(15,558,l),
(83,558,l),
(83,0,l),
(279,0,l),
(279,558,l),
(471,558,l),
(471,0,l),
(667,0,l),
(667,558,l),
(735,558,l),
(735,705,l),
(15,705,l)
);
}
);
width = 750;
}
);
unicode = 8719;
userData = {
com.schriftgestaltung.Glyphs.ColorIndex = 8;
};
},
{
color = 4;
glyphname = summation;
lastChange = "2024-08-04 15:42:32 +0000";
layers = (
{
layerId = "86171893-955A-4CD1-BD1B-2F7A53CC85DC";
shapes = (
{
closed = 1;
nodes = (
(40,479,l),
(266,339,l),
(40,182,l),
(40,-48,l),
(521,-48,l),
(521,102,l),
(139,102,l),
(136,40,l),
(456,270,l),
(456,418,l),
(136,620,l),
(177,557,l),
(521,557,l),
(521,705,l),
(40,705,l)
);
}
);
width = 561;
}
);
unicode = 8721;
userData = {
com.schriftgestaltung.Glyphs.ColorIndex = 8;
};
},
{
color = 4;
glyphname = radical;
lastChange = "2024-06-19 08:44:19 +0000";
layers = (
{
layerId = "86171893-955A-4CD1-BD1B-2F7A53CC85DC";
shapes = (
{
closed = 1;
nodes = (
(414,166,l),
(440,147,l),
(280,433,l),
(19,279,l),
(74,189,l),
(161,240,l),
(319,-41,l),
(413,-41,l),
(952,916,l),
(838,916,l)
);
}
);
width = 975;
}
);
unicode = 8730;
userData = {
com.schriftgestaltung.Glyphs.ColorIndex = 8;
};
},
{
color = 4;
glyphname = micro;
lastChange = "2024-08-04 18:36:38 +0000";
layers = (
{
layerId = "86171893-955A-4CD1-BD1B-2F7A53CC85DC";
shapes = (
{
closed = 1;
nodes = (
(653,561,l),
(457,561,l),
(457,0,l),
(653,0,l)
);
},
{
closed = 1;
nodes = (
(457,261,l),
(457,200,o),
(421,165,o),
(363,165,cs),
(307,165,o),
(271,200,o),
(271,261,cs),
(271,561,l),
(75,561,l),
(75,-268,l),
(271,-268,l),
(271,24,l),
(238,9,l),
(251,1,o),
(271,-5,o),
(291,-5,cs),
(386,-5,o),
(449,49,o),
(474,115,c)
);
}
);
width = 728;
}
);
unicode = 181;
userData = {
com.schriftgestaltung.Glyphs.ColorIndex = 4;
};
},
{
color = 4;
glyphname = partialdiff;
lastChange = "2024-08-04 18:37:01 +0000";
layers = (
{
layerId = "86171893-955A-4CD1-BD1B-2F7A53CC85DC";
shapes = (
{
closed = 1;
nodes = (
(388,313,cs),
(388,224,o),
(357,163,o),
(298,163,cs),
(262,163,o),
(231,190,o),
(231,259,cs),
(231,339,o),
(262,398,o),
(324,398,cs),
(358,398,o),
(388,371,o)
);
},
{
closed = 1;
nodes = (
(32,258,cs),
(32,78,o),
(146,-7,o),
(279,-7,cs),
(476,-7,o),
(597,147,o),
(597,403,cs),
(597,609,o),
(504,740,o),
(326,740,cs),
(288,740,o),
(247,734,o),
(201,722,c),
(201,625,l),
(223,629,o),
(242,630,o),
(260,630,cs),
(352,630,o),
(393,589,o),
(412,522,c),
(383,551,o),
(346,561,o),
(305,561,cs),
(156,561,o),
(32,445,o)
);
}
);
width = 629;
}
);
unicode = 8706;
userData = {
com.schriftgestaltung.Glyphs.ColorIndex = 8;
};
},
{
color = 4;
glyphname = percent;
lastChange = "2024-08-04 18:38:28 +0000";
layers = (
{
layerId = "86171893-955A-4CD1-BD1B-2F7A53CC85DC";
shapes = (
{
closed = 1;
nodes = (
(26,537,cs),
(26,421,o),
(101,362,o),
(200,362,cs),
(299,362,o),
(373,421,o),
(373,537,cs),
(373,654,o),
(299,712,o),
(200,712,cs),
(101,712,o),
(26,654,o)
);
},
{
closed = 1;
nodes = (
(199,597,cs),
(225,597,o),
(242,578,o),
(242,537,cs),
(242,496,o),
(225,477,o),
(199,477,cs),
(173,477,o),
(158,496,o),
(158,537,cs),
(158,578,o),
(173,597,o)
);
},
{
closed = 1;
nodes = (
(169,0,l),
(357,0,l),
(736,705,l),
(548,705,l)
);
},
{
closed = 1;
nodes = (
(532,169,cs),
(532,52,o),
(607,-7,o),
(706,-7,cs),
(805,-7,o),
(878,52,o),
(878,169,cs),
(878,285,o),
(805,344,o),
(706,344,cs),
(607,344,o),
(532,285,o)
);
},
{
closed = 1;
nodes = (
(705,229,cs),
(730,229,o),
(747,209,o),
(747,169,cs),
(747,127,o),
(730,108,o),
(705,108,cs),
(678,108,o),
(663,127,o),
(663,169,cs),
(663,209,o),
(678,229,o)
);
}
);
width = 904;
}
);
unicode = 37;
userData = {
com.schriftgestaltung.Glyphs.ColorIndex = 3;
};
},
{
color = 4;
glyphname = perthousand;
lastChange = "2024-08-04 18:39:02 +0000";
layers = (
{
layerId = "86171893-955A-4CD1-BD1B-2F7A53CC85DC";
shapes = (
{
closed = 1;
nodes = (
(25,538,cs),
(25,423,o),
(100,364,o),
(199,364,cs),
(298,364,o),
(372,423,o),
(372,538,cs),
(372,654,o),
(298,712,o),
(199,712,cs),
(100,712,o),
(25,654,o)
);
},
{
closed = 1;
nodes = (
(198,598,cs),
(224,598,o),
(241,579,o),
(241,538,cs),
(241,498,o),
(224,479,o),
(198,479,cs),
(172,479,o),
(157,498,o),
(157,538,cs),
(157,579,o),
(172,598,o)
);
},
{
closed = 1;
nodes = (
(144,0,l),
(332,0,l),
(712,705,l),
(523,705,l)
);
},
{
closed = 1;
nodes = (
(484,168,cs),
(484,52,o),
(559,-7,o),
(658,-7,cs),
(757,-7,o),
(830,52,o),
(830,168,cs),
(830,284,o),
(757,342,o),
(658,342,cs),
(559,342,o),
(484,284,o)
);
},
{
closed = 1;
nodes = (
(657,227,cs),
(682,227,o),
(699,208,o),
(699,168,cs),
(699,127,o),
(682,108,o),
(657,108,cs),
(630,108,o),
(615,127,o),
(615,168,cs),
(615,208,o),
(630,227,o)
);
},
{
closed = 1;
nodes = (
(860,168,cs),
(860,52,o),
(935,-7,o),
(1034,-7,cs),
(1133,-7,o),
(1207,52,o),
(1207,168,cs),
(1207,284,o),
(1133,342,o),
(1034,342,cs),
(935,342,o),
(860,284,o)
);
},
{
closed = 1;
nodes = (
(1033,227,cs),
(1059,227,o),
(1076,208,o),
(1076,168,cs),
(1076,127,o),
(1059,108,o),
(1033,108,cs),
(1007,108,o),
(992,127,o),
(992,168,cs),
(992,208,o),
(1007,227,o)
);
}
);
width = 1232;
}
);
unicode = 8240;
userData = {
com.schriftgestaltung.Glyphs.ColorIndex = 4;
};
},
{
color = 4;
glyphname = lozenge;
lastChange = "2024-06-19 08:44:19 +0000";
layers = (
{
layerId = "86171893-955A-4CD1-BD1B-2F7A53CC85DC";
shapes = (
{
closed = 1;
nodes = (
(15,354,l),
(285,85,l),
(554,354,l),
(285,622,l)
);
},
{
closed = 1;
nodes = (
(367,354,l),
(285,272,l),
(203,354,l),
(285,436,l)
);
}
);
width = 568;
}
);
unicode = 9674;
userData = {
com.schriftgestaltung.Glyphs.ColorIndex = 8;
};
},
{
color = 4;
glyphname = at;
lastChange = "2024-06-19 08:45:12 +0000";
layers = (
{
layerId = "86171893-955A-4CD1-BD1B-2F7A53CC85DC";
shapes = (
{
closed = 1;
nodes = (
(600,62,o),
(656,-5,o),
(766,-5,cs),
(938,-5,o),
(1030,142,o),
(1030,314,cs),
(1030,529,o),
(874,677,o),
(632,677,cs),
(315,677,o),
(75,450,o),
(75,135,cs),
(75,-90,o),
(228,-235,o),
(464,-235,cs),
(546,-235,o),
(624,-220,o),
(690,-191,c),
(658,-67,l),
(608,-89,o),
(545,-102,o),
(477,-102,cs),
(314,-102,o),
(219,-6,o),
(219,149,cs),
(219,369,o),
(388,547,o),
(614,547,cs),
(782,547,o),
(884,454,o),
(884,308,cs),
(884,216,o),
(857,122,o),
(794,122,cs),
(759,122,o),
(754,149,o),
(761,191,cs),
(802,427,l),
(648,427,l),
(629,322,l),
(646,340,l),
(639,396,o),
(599,433,o),
(528,433,cs),
(395,433,o),
(303,300,o),
(303,156,cs),
(303,53,o),
(362,-7,o),
(460,-7,cs),
(546,-7,o),
(615,36,o),
(644,112,c),
(623,197,l),
(618,166,l)
);
},
{
closed = 1;
nodes = (
(589,296,o),
(610,270,o),
(610,232,cs),
(610,175,o),
(569,131,o),
(524,131,cs),
(489,131,o),
(469,155,o),
(469,192,cs),
(469,249,o),
(506,296,o),
(554,296,cs)
);
}
);
width = 1104;
}
);
unicode = 64;
userData = {
com.schriftgestaltung.Glyphs.ColorIndex = 4;
};
},
{
color = 4;
glyphname = ampersand;
lastChange = "2024-07-29 13:25:02 +0000";
layers = (
{
layerId = "86171893-955A-4CD1-BD1B-2F7A53CC85DC";
shapes = (
{
closed = 1;
nodes = (
(814,0,l),
(356,447,ls),
(323,480,o),
(306,507,o),
(306,532,cs),
(306,559,o),
(327,575,o),
(353,575,cs),
(382,575,o),
(402,541,o),
(405,506,c),
(572,544,l),
(557,661,o),
(466,719,o),
(354,719,cs),
(205,719,o),
(123,633,o),
(123,530,cs),
(123,475,o),
(144,429,o),
(205,370,cs),
(593,0,l)
);
},
{
closed = 1;
nodes = (
(511,-11,o),
(626,110,o),
(725,309,cs),
(736,331,l),
(580,401,l),
(540,329,ls),
(481,223,o),
(429,146,o),
(322,146,cs),
(260,146,o),
(225,181,o),
(225,222,cs),
(225,262,o),
(257,304,o),
(324,322,cs),
(383,338,l),
(307,455,l),
(229,431,ls),
(98,390,o),
(36,304,o),
(36,205,cs),
(36,76,o),
(141,-11,o),
(309,-11,cs)
);
}
);
width = 814;
}
);
unicode = 38;
userData = {
com.schriftgestaltung.Glyphs.ColorIndex = 4;
com.typemytype.robofont.layerData = {
b = {
anchors = (
);
components = (
);
contours = (
{
points = (
{
segmentType = curve;
smooth = 1;
x = 61;
y = 192;
},
{
smooth = 0;
x = 61;
y = 306;
},
{
smooth = 0;
x = 135.7746;
y = 365;
},
{
segmentType = curve;
smooth = 1;
x = 229;
y = 365;
},
{
smooth = 0;
x = 306.57141;
y = 365;
},
{
smooth = 0;
x = 410;
y = 279.328;
},
{
segmentType = curve;
smooth = 1;
x = 410;
y = 189;
},
{
smooth = 0;
x = 410;
y = 89.0702;
},
{
smooth = 0;
x = 333;
y = 11;
},
{
segmentType = curve;
smooth = 1;
x = 240;
y = 11;
},
{
smooth = 0;
x = 127.5793;
y = 11;
},
{
smooth = 0;
x = 61;
y = 90;
}
);
},
{
points = (
{
segmentType = curve;
smooth = 1;
x = 175;
y = 570;
},
{
smooth = 0;
x = 175;
y = 485;
},
{
smooth = 0;
x = 220;
y = 473;
},
{
segmentType = curve;
smooth = 1;
x = 256;
y = 426;
},
{
segmentType = line;
smooth = 0;
x = 302;
y = 367;
},
{
smooth = 0;
x = 286.29559;
y = 375.97391;
},
{
smooth = 0;
x = 259.12701;
y = 383;
},
{
segmentType = curve;
smooth = 1;
x = 229;
y = 383;
},
{
smooth = 0;
x = 114.9672;
y = 383;
},
{
smooth = 0;
x = 41;
y = 307;
},
{
segmentType = curve;
smooth = 1;
x = 41;
y = 192;
},
{
smooth = 0;
x = 41;
y = 66;
},
{
smooth = 0;
x = 130.7663;
y = -7;
},
{
segmentType = curve;
smooth = 1;
x = 240;
y = -7;
},
{
smooth = 0;
x = 355;
y = -7;
},
{
smooth = 0;
x = 435.96179;
y = 84.1183;
},
{
segmentType = curve;
smooth = 0;
x = 432;
y = 200;
},
{
segmentType = line;
smooth = 0;
x = 425;
y = 206;
},
{
segmentType = line;
smooth = 0;
x = 588;
y = 0;
},
{
segmentType = line;
smooth = 0;
x = 621;
y = 0;
},
{
segmentType = line;
smooth = 1;
x = 352;
y = 341;
},
{
smooth = 0;
x = 285;
y = 425;
},
{
smooth = 0;
x = 195;
y = 505;
},
{
segmentType = curve;
smooth = 1;
x = 195;
y = 570;
},
{
smooth = 0;
x = 195;
y = 639;
},
{
smooth = 0;
x = 248;
y = 693;
},
{
segmentType = curve;
smooth = 0;
x = 331;
y = 693;
},
{
smooth = 0;
x = 434;
y = 693;
},
{
smooth = 0;
x = 477;
y = 632;
},
{
segmentType = curve;
smooth = 0;
x = 477;
y = 531;
},
{
segmentType = line;
smooth = 0;
x = 497;
y = 531;
},
{
smooth = 0;
x = 497;
y = 613;
},
{
smooth = 0;
x = 464;
y = 711;
},
{
segmentType = curve;
smooth = 0;
x = 331;
y = 711;
},
{
smooth = 0;
x = 233;
y = 711;
},
{
smooth = 0;
x = 175;
y = 642;
}
);
}
);
lib = {
};
name = ampersand;
unicodes = (
);
width = 672;
};
};
};
},
{
color = 4;
glyphname = paragraph;
lastChange = "2024-06-19 08:59:39 +0000";
layers = (
{
layerId = "86171893-955A-4CD1-BD1B-2F7A53CC85DC";
shapes = (
{
closed = 1;
nodes = (
(264,705,ls),
(93,705,o),
(25,596,o),
(25,486,cs),
(25,377,o),
(93,269,o),
(264,269,cs),
(291,269,l),
(291,0,l),
(449,0,l),
(449,557,l),
(509,557,l),
(509,0,l),
(668,0,l),
(668,705,l)
);
}
);
width = 743;
}
);
unicode = 182;
userData = {
com.schriftgestaltung.Glyphs.ColorIndex = 4;
};
},
{
color = 4;
glyphname = section;
lastChange = "2024-07-29 17:43:58 +0000";
layers = (
{
layerId = "86171893-955A-4CD1-BD1B-2F7A53CC85DC";
shapes = (
{
closed = 1;
nodes = (
(63,532,cs),
(63,455,o),
(109,382,o),
(211,334,c),
(236,414,l),
(73,403,o),
(26,326,o),
(26,244,cs),
(26,164,o),
(84,105,o),
(180,61,cs),
(294,6,o),
(330,-15,o),
(330,-55,cs),
(330,-80,o),
(316,-92,o),
(295,-92,cs),
(272,-92,o),
(256,-77,o),
(254,-30,c),
(59,-30,l),
(67,-147,o),
(148,-230,o),
(291,-230,cs),
(443,-230,o),
(528,-151,o),
(528,-44,cs),
(528,33,o),
(482,106,o),
(380,154,c),
(355,61,l),
(518,98,o),
(566,161,o),
(566,244,c),
(566,324,o),
(506,382,o),
(411,428,cs),
(296,482,o),
(261,503,o),
(261,543,cs),
(261,568,o),
(275,580,o),
(296,580,cs),
(319,580,o),
(335,565,o),
(337,518,c),
(532,518,l),
(524,635,o),
(443,718,o),
(300,718,cs),
(148,718,o),
(63,639,o)
);
},
{
closed = 1;
nodes = (
(358,244,cs),
(358,207,o),
(335,177,o),
(296,177,cs),
(257,177,o),
(234,207,o),
(234,244,c),
(234,282,o),
(258,311,o),
(297,311,cs),
(337,311,o),
(358,281,o)
);
}
);
width = 591;
}
);
unicode = 167;
userData = {
com.schriftgestaltung.Glyphs.ColorIndex = 4;
};
},
{
color = 4;
glyphname = copyright;
lastChange = "2024-06-19 09:15:13 +0000";
layers = (
{
layerId = "86171893-955A-4CD1-BD1B-2F7A53CC85DC";
shapes = (
{
closed = 1;
nodes = (
(598,-7,o),
(741,144,o),
(741,356,cs),
(741,568,o),
(598,716,o),
(388,716,cs),
(178,716,o),
(34,568,o),
(34,356,cs),
(34,144,o),
(178,-7,o),
(388,-7,cs)
);
},
{
closed = 1;
nodes = (
(209,54,o),
(99,174,o),
(99,356,cs),
(99,538,o),
(209,656,o),
(388,656,cs),
(566,656,o),
(677,538,o),
(677,356,cs),
(677,174,o),
(566,54,o),
(388,54,cs)
);
},
{
closed = 1;
nodes = (
(510,130,o),
(580,208,o),
(598,284,c),
(442,321,l),
(434,288,o),
(422,259,o),
(385,259,cs),
(346,259,o),
(323,291,o),
(323,353,cs),
(323,415,o),
(347,446,o),
(385,446,cs),
(416,446,o),
(436,426,o),
(443,393,c),
(592,440,l),
(555,555,o),
(463,577,o),
(388,577,cs),
(253,577,o),
(166,487,o),
(166,353,cs),
(166,216,o),
(256,130,o),
(388,130,cs)
);
}
);
width = 775;
}
);
unicode = 169;
userData = {
com.schriftgestaltung.Glyphs.ColorIndex = 4;
};
},
{
color = 4;
glyphname = registered;
lastChange = "2024-08-04 19:46:46 +0000";
layers = (
{
layerId = "86171893-955A-4CD1-BD1B-2F7A53CC85DC";
shapes = (
{
closed = 1;
nodes = (
(386,278,o),
(478,369,o),
(478,498,cs),
(478,626,o),
(386,717,o),
(257,717,cs),
(127,717,o),
(35,626,o),
(35,498,cs),
(35,369,o),
(127,278,o),
(257,278,cs)
);
},
{
closed = 1;
nodes = (
(160,338,o),
(99,404,o),
(99,498,cs),
(99,593,o),
(160,657,o),
(257,657,cs),
(352,657,o),
(413,593,o),
(413,498,cs),
(413,404,o),
(352,338,o),
(257,338,cs)
);
},
{
closed = 1;
nodes = (
(367,395,l),
(366,419,o),
(360,459,o),
(326,480,c),
(345,492,o),
(356,513,o),
(356,538,cs),
(356,580,o),
(325,606,o),
(279,606,cs),
(163,606,l),
(163,395,l),
(239,395,l),
(239,468,l),
(270,468,o),
(283,448,o),
(283,395,c)
);
},
{
closed = 1;
nodes = (
(237,545,l),
(263,545,ls),
(272,545,o),
(278,540,o),
(278,531,cs),
(278,521,o),
(272,517,o),
(263,517,cs),
(237,517,l)
);
}
);
width = 512;
}
);
unicode = 174;
userData = {
com.schriftgestaltung.Glyphs.ColorIndex = 4;
};
},
{
color = 4;
glyphname = trademark;
lastChange = "2024-08-04 18:39:38 +0000";
layers = (
{
layerId = "86171893-955A-4CD1-BD1B-2F7A53CC85DC";
shapes = (
{
closed = 1;
nodes = (
(29,592,l),
(113,592,l),
(112,355,l),
(251,355,l),
(251,592,l),
(335,592,l),
(335,705,l),
(29,705,l)
);
},
{
closed = 1;
nodes = (
(384,355,l),
(505,355,l),
(505,645,l),
(471,640,l),
(579,355,l),
(672,355,l),
(789,640,l),
(745,645,l),
(751,355,l),
(878,355,l),
(878,705,l),
(705,705,l),
(585,410,l),
(670,412,l),
(572,705,l),
(384,705,l)
);
}
);
width = 915;
}
);
unicode = 8482;
userData = {
com.schriftgestaltung.Glyphs.ColorIndex = 4;
};
},
{
color = 4;
glyphname = degree;
lastChange = "2024-06-19 09:17:22 +0000";
layers = (
{
layerId = "86171893-955A-4CD1-BD1B-2F7A53CC85DC";
shapes = (
{
closed = 1;
nodes = (
(24,531,cs),
(24,419,o),
(114,347,o),
(243,347,cs),
(371,347,o),
(456,419,o),
(456,531,cs),
(456,645,o),
(369,712,o),
(241,712,cs),
(112,712,o),
(24,645,o)
);
},
{
closed = 1;
nodes = (
(305,530,cs),
(305,474,o),
(273,452,o),
(243,452,cs),
(211,452,o),
(175,474,o),
(175,530,cs),
(175,586,o),
(210,609,o),
(241,609,cs),
(271,609,o),
(305,586,o)
);
}
);
width = 480;
}
);
unicode = 176;
userData = {
com.schriftgestaltung.Glyphs.ColorIndex = 4;
};
},
{
color = 4;
glyphname = bar;
lastChange = "2024-06-19 09:17:22 +0000";
layers = (
{
layerId = "86171893-955A-4CD1-BD1B-2F7A53CC85DC";
shapes = (
{
closed = 1;
nodes = (
(40,822,l),
(40,-137,l),
(237,-137,l),
(237,822,l)
);
}
);
width = 277;
}
);
unicode = 124;
userData = {
com.schriftgestaltung.Glyphs.ColorIndex = 4;
};
},
{
color = 4;
glyphname = brokenbar;
lastChange = "2024-06-19 09:17:22 +0000";
layers = (
{
layerId = "86171893-955A-4CD1-BD1B-2F7A53CC85DC";
shapes = (
{
closed = 1;
nodes = (
(105,284,l),
(105,-137,l),
(302,-137,l),
(302,284,l)
);
},
{
closed = 1;
nodes = (
(302,402,l),
(302,822,l),
(105,822,l),
(105,402,l)
);
}
);
width = 407;
}
);
unicode = 166;
userData = {
com.schriftgestaltung.Glyphs.ColorIndex = 4;
};
},
{
color = 4;
glyphname = dagger;
lastChange = "2024-06-19 09:17:22 +0000";
layers = (
{
layerId = "86171893-955A-4CD1-BD1B-2F7A53CC85DC";
shapes = (
{
closed = 1;
nodes = (
(421,547,l),
(441,791,l),
(244,791,l),
(263,547,l),
(51,561,l),
(51,413,l),
(263,427,l),
(244,-268,l),
(441,-268,l),
(421,427,l),
(635,413,l),
(635,561,l)
);
}
);
width = 686;
}
);
unicode = 8224;
userData = {
com.schriftgestaltung.Glyphs.ColorIndex = 4;
};
},
{
color = 4;
glyphname = daggerdbl;
lastChange = "2024-06-19 09:17:22 +0000";
layers = (
{
layerId = "86171893-955A-4CD1-BD1B-2F7A53CC85DC";
shapes = (
{
closed = 1;
nodes = (
(635,561,l),
(421,547,l),
(440,791,l),
(243,791,l),
(263,547,l),
(50,561,l),
(50,413,l),
(263,427,l),
(263,97,l),
(50,111,l),
(50,-37,l),
(263,-24,l),
(243,-268,l),
(440,-268,l),
(421,-24,l),
(635,-37,l),
(635,111,l),
(421,97,l),
(421,427,l),
(635,413,l)
);
}
);
width = 685;
}
);
unicode = 8225;
userData = {
com.schriftgestaltung.Glyphs.ColorIndex = 4;
};
},
{
color = 4;
glyphname = estimated;
lastChange = "2024-06-19 09:17:22 +0000";
layers = (
{
layerId = "86171893-955A-4CD1-BD1B-2F7A53CC85DC";
shapes = (
{
closed = 1;
nodes = (
(683,134,c),
(619,209,l),
(552,142,o),
(476,105,o),
(381,105,cs),
(330,105,o),
(282,118,o),
(239,141,c),
(239,322,l),
(713,322,l),
(713,386,ls),
(713,557,o),
(591,717,o),
(372,717,cs),
(153,717,o),
(32,551,o),
(32,338,cs),
(32,118,o),
(181,-7,o),
(381,-7,cs),
(500,-7,o),
(599,43,o)
);
},
{
closed = 1;
nodes = (
(239,418,l),
(239,575,l),
(274,596,o),
(315,610,o),
(372,610,cs),
(423,610,o),
(470,601,o),
(506,580,c),
(506,418,l)
);
}
);
width = 744;
}
);
unicode = 8494;
userData = {
com.schriftgestaltung.Glyphs.ColorIndex = 8;
};
},
{
color = 4;
glyphname = asciicircum;
lastChange = "2024-06-19 09:17:22 +0000";
layers = (
{
layerId = "86171893-955A-4CD1-BD1B-2F7A53CC85DC";
shapes = (
{
closed = 1;
nodes = (
(510,163,l),
(706,163,l),
(464,707,l),
(271,707,l),
(28,163,l),
(224,163,l),
(368,483,l)
);
}
);
width = 733;
}
);
unicode = 94;
userData = {
com.schriftgestaltung.Glyphs.ColorIndex = 3;
};
},
{
color = 4;
glyphname = acute;
lastChange = "2024-06-19 09:17:22 +0000";
layers = (
{
anchors = (
{
name = _top;
pos = (138,561);
}
);
layerId = "86171893-955A-4CD1-BD1B-2F7A53CC85DC";
shapes = (
{
closed = 1;
nodes = (
(10,732,l),
(10,599,l),
(260,697,l),
(260,845,l)
);
}
);
width = 270;
}
);
unicode = 180;
userData = {
com.schriftgestaltung.Glyphs.ColorIndex = 4;
com.typesupply.AccentFactory.yCoordinates = {
below = {
name = xHeight;
type = fontInfo;
};
};
};
},
{
color = 4;
glyphname = breve;
lastChange = "2024-06-19 09:17:22 +0000";
layers = (
{
anchors = (
{
name = _top;
pos = (189,561);
}
);
layerId = "86171893-955A-4CD1-BD1B-2F7A53CC85DC";
shapes = (
{
closed = 1;
nodes = (
(368,787,cs),
(368,805,l),
(274,805,l),
(274,765,o),
(254,741,o),
(189,741,cs),
(124,741,o),
(104,765,o),
(104,805,c),
(10,805,l),
(10,787,ls),
(10,662,o),
(87,599,o),
(189,599,cs),
(292,599,o),
(368,662,o)
);
}
);
width = 378;
}
);
unicode = 728;
userData = {
com.schriftgestaltung.Glyphs.ColorIndex = 4;
com.typesupply.AccentFactory.yCoordinates = {
below = {
name = xHeight;
type = fontInfo;
};
};
};
},
{
color = 4;
glyphname = caron;
lastChange = "2024-06-19 09:17:22 +0000";
layers = (
{
anchors = (
{
name = _top;
pos = (171,561);
}
);
layerId = "86171893-955A-4CD1-BD1B-2F7A53CC85DC";
shapes = (
{
closed = 1;
nodes = (
(171,720,l),
(10,807,l),
(10,676,l),
(171,599,l),
(330,676,l),
(330,807,l)
);
}
);
width = 340;
}
);
unicode = 711;
userData = {
com.schriftgestaltung.Glyphs.ColorIndex = 4;
com.typesupply.AccentFactory.yCoordinates = {
below = {
name = xHeight;
type = fontInfo;
};
};
};
},
{
color = 4;
glyphname = cedilla;
lastChange = "2024-06-19 09:17:22 +0000";
layers = (
{
anchors = (
{
name = _bottom;
pos = (122,5);
}
);
layerId = "86171893-955A-4CD1-BD1B-2F7A53CC85DC";
shapes = (
{
closed = 1;
nodes = (
(188,7,l),
(72,7,l),
(72,-124,l),
(150,-124,ls),
(171,-124,o),
(183,-130,o),
(183,-145,cs),
(183,-159,o),
(171,-166,o),
(150,-166,cs),
(10,-166,l),
(10,-269,l),
(173,-269,ls),
(241,-269,o),
(318,-239,o),
(318,-150,cs),
(318,-61,o),
(242,-32,o),
(188,-32,c)
);
}
);
width = 328;
}
);
unicode = 184;
userData = {
com.schriftgestaltung.Glyphs.ColorIndex = 4;
com.typesupply.AccentFactory.yCoordinates = {
top = {
name = origin;
type = glyphMetric;
};
};
};
},
{
color = 4;
glyphname = circumflex;
lastChange = "2024-06-19 09:17:22 +0000";
layers = (
{
anchors = (
{
name = _top;
pos = (171,561);
}
);
layerId = "86171893-955A-4CD1-BD1B-2F7A53CC85DC";
shapes = (
{
closed = 1;
nodes = (
(330,730,l),
(171,807,l),
(10,730,l),
(10,599,l),
(171,679,l),
(330,599,l)
);
}
);
width = 340;
}
);
unicode = 710;
userData = {
com.schriftgestaltung.Glyphs.ColorIndex = 4;
com.typesupply.AccentFactory.yCoordinates = {
below = {
name = xHeight;
type = fontInfo;
};
};
};
},
{
color = 4;
glyphname = dieresis;
lastChange = "2024-06-19 09:17:22 +0000";
layers = (
{
anchors = (
{
name = _top;
pos = (197,561);
}
);
layerId = "86171893-955A-4CD1-BD1B-2F7A53CC85DC";
shapes = (
{
closed = 1;
nodes = (
(89,620,cs),
(135,620,o),
(170,654,o),
(170,699,cs),
(170,745,o),
(135,780,o),
(89,780,cs),
(44,780,o),
(10,745,o),
(10,699,cs),
(10,654,o),
(44,620,o)
);
},
{
closed = 1;
nodes = (
(302,620,cs),
(348,620,o),
(382,654,o),
(382,699,cs),
(382,745,o),
(348,780,o),
(302,780,cs),
(257,780,o),
(223,745,o),
(223,699,cs),
(223,654,o),
(257,620,o)
);
}
);
width = 392;
}
);
unicode = 168;
userData = {
com.schriftgestaltung.Glyphs.ColorIndex = 4;
com.typesupply.AccentFactory.yCoordinates = {
below = {
name = xHeight;
type = fontInfo;
};
};
};
},
{
color = 4;
glyphname = dotaccent;
lastChange = "2024-06-19 09:17:22 +0000";
layers = (
{
anchors = (
{
name = _top;
pos = (91,561);
}
);
layerId = "86171893-955A-4CD1-BD1B-2F7A53CC85DC";
shapes = (
{
closed = 1;
nodes = (
(89,620,cs),
(135,620,o),
(170,654,o),
(170,699,cs),
(170,745,o),
(135,780,o),
(89,780,cs),
(44,780,o),
(10,745,o),
(10,699,cs),
(10,654,o),
(44,620,o)
);
}
);
width = 180;
}
);
unicode = 729;
userData = {
com.schriftgestaltung.Glyphs.ColorIndex = 4;
com.typesupply.AccentFactory.yCoordinates = {
below = {
name = xHeight;
type = fontInfo;
};
};
};
},
{
color = 4;
glyphname = grave;
lastChange = "2024-06-19 09:17:22 +0000";
layers = (
{
anchors = (
{
name = _top;
pos = (138,561);
}
);
layerId = "86171893-955A-4CD1-BD1B-2F7A53CC85DC";
shapes = (
{
closed = 1;
nodes = (
(10,697,l),
(260,599,l),
(260,732,l),
(10,845,l)
);
}
);
width = 307;
}
);
unicode = 96;
userData = {
com.schriftgestaltung.Glyphs.ColorIndex = 4;
com.typesupply.AccentFactory.yCoordinates = {
below = {
name = xHeight;
type = fontInfo;
};
};
};
},
{
color = 4;
glyphname = hungarumlaut;
lastChange = "2024-06-19 09:17:22 +0000";
layers = (
{
anchors = (
{
name = _top;
pos = (187,561);
}
);
layerId = "86171893-955A-4CD1-BD1B-2F7A53CC85DC";
shapes = (
{
closed = 1;
nodes = (
(87,828,l),
(10,601,l),
(129,601,l),
(239,828,l)
);
},
{
closed = 1;
nodes = (
(315,828,l),
(218,601,l),
(337,601,l),
(466,828,l)
);
}
);
width = 478;
}
);
unicode = 733;
userData = {
com.schriftgestaltung.Glyphs.ColorIndex = 4;
com.typesupply.AccentFactory.yCoordinates = {
below = {
name = xHeight;
type = fontInfo;
};
};
};
},
{
color = 4;
glyphname = macron;
lastChange = "2024-06-19 09:17:22 +0000";
layers = (
{
anchors = (
{
name = _top;
pos = (217,561);
}
);
layerId = "86171893-955A-4CD1-BD1B-2F7A53CC85DC";
shapes = (
{
closed = 1;
nodes = (
(10,625,l),
(426,625,l),
(426,757,l),
(10,757,l)
);
}
);
width = 436;
}
);
unicode = 175;
userData = {
com.schriftgestaltung.Glyphs.ColorIndex = 4;
com.typesupply.AccentFactory.yCoordinates = {
below = {
name = xHeight;
type = fontInfo;
};
};
};
},
{
color = 4;
glyphname = ogonek;
lastChange = "2024-08-04 15:00:10 +0000";
layers = (
{
anchors = (
{
name = _ogonek;
pos = (272,0);
}
);
layerId = "86171893-955A-4CD1-BD1B-2F7A53CC85DC";
shapes = (
{
closed = 1;
nodes = (
(195,70,ls),
(54,11,o),
(16,-41,o),
(16,-103,cs),
(16,-178,o),
(78,-220,o),
(171,-220,cs),
(209,-220,o),
(245,-214,o),
(276,-204,c),
(276,-99,l),
(245,-109,o),
(218,-114,o),
(195,-114,cs),
(171,-114,o),
(156,-103,o),
(156,-87,cs),
(156,-66,o),
(176,-48,o),
(228,-22,cs),
(272,0,l),
(233,86,l)
);
}
);
width = 286;
}
);
unicode = 731;
userData = {
com.schriftgestaltung.Glyphs.ColorIndex = 8;
com.typesupply.AccentFactory.yCoordinates = {
top = {
name = origin;
type = glyphMetric;
};
};
};
},
{
color = 4;
glyphname = ring;
lastChange = "2024-06-19 09:17:22 +0000";
layers = (
{
anchors = (
{
name = _top;
pos = (137,561);
}
);
layerId = "86171893-955A-4CD1-BD1B-2F7A53CC85DC";
shapes = (
{
closed = 1;
nodes = (
(264,801,o),
(207,849,o),
(137,849,cs),
(66,849,o),
(9,801,o),
(9,722,cs),
(9,644,o),
(66,596,o),
(137,596,cs),
(207,596,o),
(264,644,o),
(264,722,cs)
);
},
{
closed = 1;
nodes = (
(183,694,o),
(163,675,o),
(137,675,cs),
(111,675,o),
(90,694,o),
(90,723,cs),
(90,752,o),
(111,771,o),
(137,771,cs),
(163,771,o),
(183,752,o),
(183,723,cs)
);
}
);
width = 272;
}
);
unicode = 730;
userData = {
com.schriftgestaltung.Glyphs.ColorIndex = 4;
com.typesupply.AccentFactory.yCoordinates = {
below = {
name = xHeight;
type = fontInfo;
};
};
};
},
{
color = 4;
glyphname = tilde;
lastChange = "2024-06-19 09:17:22 +0000";
layers = (
{
anchors = (
{
name = _top;
pos = (220,561);
}
);
layerId = "86171893-955A-4CD1-BD1B-2F7A53CC85DC";
shapes = (
{
closed = 1;
nodes = (
(2,603,c),
(100,603,l),
(106,635,o),
(121,649,o),
(145,649,cs),
(185,649,o),
(220,604,o),
(282,604,cs),
(358,604,o),
(412,649,o),
(432,766,c),
(333,766,l),
(328,735,o),
(313,720,o),
(289,720,cs),
(249,720,o),
(214,766,o),
(152,766,cs),
(76,766,o),
(22,720,o)
);
}
);
width = 434;
}
);
unicode = 732;
userData = {
com.schriftgestaltung.Glyphs.ColorIndex = 4;
com.typesupply.AccentFactory.yCoordinates = {
below = {
name = xHeight;
type = fontInfo;
};
};
};
},
{
color = 4;
glyphname = turkishlira;
lastChange = "2024-06-19 09:17:22 +0000";
layers = (
{
layerId = "86171893-955A-4CD1-BD1B-2F7A53CC85DC";
shapes = (
{
closed = 1;
nodes = (
(325,709,l),
(325,186,l),
(353,180,o),
(378,179,o),
(403,179,cs),
(577,179,o),
(590,318,o),
(590,469,c),
(790,469,l),
(790,136,o),
(686,-5,o),
(405,-5,cs),
(321,-5,o),
(229,7,o),
(126,26,c),
(126,709,l)
);
},
{
closed = 1;
nodes = (
(10,391,l),
(10,505,l),
(447,579,l),
(447,462,l)
);
},
{
closed = 1;
nodes = (
(11,228,l),
(11,346,l),
(448,416,l),
(448,298,l)
);
}
);
width = 826;
}
);
},
{
glyphname = Schwa;
lastChange = "2024-08-05 09:24:53 +0000";
layers = (
{
layerId = "86171893-955A-4CD1-BD1B-2F7A53CC85DC";
shapes = (
{
closed = 1;
nodes = (
(537,312,ls),
(537,222,o),
(464,172,o),
(383,172,cs),
(304,172,o),
(242,218,o),
(238,286,c),
(561,286,l),
(561,405,l),
(42,405,l),
(39,385,o),
(38,364,o),
(38,346,cs),
(38,127,o),
(177,-9,o),
(387,-9,cs),
(599,-9,o),
(739,135,o),
(739,357,cs),
(739,580,o),
(598,722,o),
(387,722,cs),
(211,722,o),
(84,613,o),
(50,466,c),
(259,466,l),
(277,516,o),
(328,546,o),
(390,546,cs),
(469,546,o),
(537,493,o),
(537,392,cs)
);
}
